<svg xmlns="http://www.w3.org/2000/svg" width="65.46953" height="74" viewBox="0 0 65.46953 74">
  <defs>
    <style>
      .a {
        opacity: 1;
      }

      .b, .c {
        fill: none;
        stroke: #344154;
        stroke-width: 2px;
      }

      .b {
        stroke-linecap: round;
        stroke-linejoin: round;
      }

      .c {
        stroke-miterlimit: 10;
      }
    </style>
  </defs>
  <title>bar-food</title>
  <g class="a">
    <g>
      <path class="b" d="M53.23143,73H12.238a3.72112,3.72112,0,0,1-3.69711-3.2994L1.01613,3.73292A2.45469,2.45469,0,0,1,3.45508,1H62.01445a2.45469,2.45469,0,0,1,2.439,2.73292L56.9286,69.7006A3.72114,3.72114,0,0,1,53.23143,73Z"/>
      <polygon class="c" points="40.575 44.572 42.285 50.084 36.176 51.98 36.176 57.757 49.36 57.757 49.36 44.572 40.575 44.572"/>
      <polyline class="c" points="40.575 44.572 38.379 37.492 25.787 41.398 29.693 53.991 36.176 51.98"/>
      <line class="c" x1="8.86139" y1="64.93902" x2="57.47175" y2="64.93902"/>
      <line class="c" x1="50.12159" y1="47.17039" x2="55.03491" y2="47.17039"/>
      <line class="c" x1="10.48595" y1="47.17039" x2="27.57736" y2="47.17039"/>
    </g>
  </g>
</svg>
