<svg id="Icon_Set" data-name="Icon Set" xmlns="http://www.w3.org/2000/svg" width="119.8" height="75.85" viewBox="0 0 119.8 75.85"><title>cap</title><path d="M792.51,360.81s14.37-30.27,44-31.88a43.89,43.89,0,0,1,39,19.23c6.13,9.21,10,22.74,3.06,41A13,13,0,0,1,861,396.36a179,179,0,0,1-38.39-23.57,65.32,65.32,0,0,0-15.79-9.53C801.73,361.1,796.13,359.51,792.51,360.81Z" transform="translate(-763.97 -327.36)" fill="none" stroke="#344154" stroke-miterlimit="10" stroke-width="3"/><path d="M792.51,360.81l-26.85,8.89a0.29,0.29,0,0,0,.12.56c5.06-.37,16.07.68,27.31,13.82a42,42,0,0,1,3.67,5.21c3.66,5.9,19,24.35,51.49.66" transform="translate(-763.97 -327.36)" fill="none" stroke="#344154" stroke-miterlimit="10" stroke-width="3"/><path d="M807.68,363.63s22.35-37.85,49-31.09" transform="translate(-763.97 -327.36)" fill="none" stroke="#344154" stroke-miterlimit="10" stroke-width="3"/><path d="M848.25,390S872.37,357,860.33,334.3" transform="translate(-763.97 -327.36)" fill="none" stroke="#344154" stroke-miterlimit="10" stroke-width="3"/></svg>