<svg xmlns="http://www.w3.org/2000/svg" width="76.00907" height="74" viewBox="0 0 76.00907 74">
  <defs>
    <style>
      .a, .b {
        fill: none;
        stroke: #344154;
        stroke-miterlimit: 10;
        stroke-width: 2px;
      }

      .b {
        stroke-linecap: round;
      }
    </style>
  </defs>
  <title>corporate-facilities</title>
  <g>
    <circle class="a" cx="13.33485" cy="46.03727" r="4.28437"/>
    <line class="a" x1="13.33485" y1="54.03159" x2="13.33485" y2="61.38977"/>
    <line class="a" x1="20.19502" y1="73" x2="20.19502" y2="62.74138"/>
    <line class="a" x1="6.47467" y1="62.74138" x2="6.47467" y2="73"/>
    <path class="a" d="M1,73V59.74427c0-3.155,1.68668-5.71268,4.84179-5.71268H20.828"/>
    <path class="a" d="M20.828,54.03159H20.828c3.155,0,4.84167,2.55764,4.84167,5.71268v7.335"/>
    <circle class="a" cx="38.00455" cy="46.03727" r="4.28435"/>
    <line class="a" x1="38.00454" y1="54.03159" x2="38.00454" y2="61.38977"/>
    <line class="a" x1="44.86471" y1="73" x2="44.86471" y2="62.74138"/>
    <line class="a" x1="31.14436" y1="62.74138" x2="31.14436" y2="73"/>
    <path class="a" d="M25.6697,67.07927V59.74421c0-3.155,1.68667-5.71262,4.84178-5.71262H45.49772"/>
    <path class="a" d="M45.49766,54.03159h.00006c3.155,0,4.84166,2.55764,4.84166,5.71262v7.33506"/>
    <circle class="a" cx="62.67425" cy="46.03727" r="4.28436"/>
    <line class="a" x1="62.67423" y1="54.03159" x2="62.67423" y2="61.38977"/>
    <line class="a" x1="69.5344" y1="73" x2="69.5344" y2="62.74138"/>
    <line class="a" x1="55.81405" y1="62.74138" x2="55.81405" y2="73"/>
    <path class="a" d="M50.33938,67.07927v-7.335c0-3.155,1.68668-5.71268,4.84179-5.71268H70.16741"/>
    <path class="a" d="M70.16736,54.03159h.00006c3.155,0,4.84166,2.55764,4.84166,5.71268V73"/>
    <rect class="b" x="12.28238" y="5.58857" width="51.44431" height="26.62555"/>
    <path class="b" d="M64.35083,5.58857H11.6583A2.12268,2.12268,0,0,1,9.76554,3.29428h0A2.12268,2.12268,0,0,1,11.6583,1H64.35083a2.12276,2.12276,0,0,1,1.89276,2.29428h0A2.12276,2.12276,0,0,1,64.35083,5.58857Z"/>
    <line class="b" x1="40.00278" y1="32.21412" x2="40.00278" y2="36.95068"/>
    <line class="b" x1="36.00629" y1="36.95068" x2="36.00629" y2="32.21412"/>
    <line class="b" x1="6.47467" y1="73" x2="69.5344" y2="73"/>
    <polyline class="b" points="21.221 24.222 30.441 17.152 34.806 21.594 42.207 15.809 45.858 19.583 54.788 12.897"/>
  </g>
</svg>
