<svg id="Icon_Set" data-name="Icon Set" xmlns="http://www.w3.org/2000/svg" width="104.18" height="121.14" viewBox="0 0 104.18 121.14"><title>cup</title><path d="M193,739.43H134.75s-4.7,33.36,20.1,58.81h18C197.69,772.79,193,739.43,193,739.43Z" transform="translate(-111.78 -737.93)" fill="none" stroke="#344154" stroke-miterlimit="10" stroke-width="3"/><path d="M134.52,750.52H113.39s2.15,28.76,28.3,28.76" transform="translate(-111.78 -737.93)" fill="none" stroke="#344154" stroke-miterlimit="10" stroke-width="3"/><path d="M135.06,756.36H120.54a32.72,32.72,0,0,0,2.52,6.09c3.62,6.65,8.92,10.23,16.15,10.88" transform="translate(-111.78 -737.93)" fill="none" stroke="#344154" stroke-miterlimit="10" stroke-width="3"/><path d="M193.22,750.52h21.13s-2.15,28.76-28.3,28.76" transform="translate(-111.78 -737.93)" fill="none" stroke="#344154" stroke-miterlimit="10" stroke-width="3"/><path d="M192.67,756.36H207.2a32.72,32.72,0,0,1-2.52,6.09c-3.62,6.65-8.92,10.23-16.15,10.88" transform="translate(-111.78 -737.93)" fill="none" stroke="#344154" stroke-miterlimit="10" stroke-width="3"/><path d="M180.22,834.14a11.9,11.9,0,0,0-3.53-3.57c-3.52-2.26-7.36-6-7.91-10.43a19.18,19.18,0,0,1,4.43-14.33l-0.33-7.57h-18l-0.33,7.57A19.18,19.18,0,0,1,159,820.14c-0.56,4.41-4.39,8.17-7.91,10.43a11.9,11.9,0,0,0-3.53,3.57,17.19,17.19,0,0,0-2.64,10h38A17.19,17.19,0,0,0,180.22,834.14Z" transform="translate(-111.78 -737.93)" fill="none" stroke="#344154" stroke-miterlimit="10" stroke-width="3"/><path d="M187.16,844.1H140.58a6.74,6.74,0,0,0-6.74,6.74H193.9A6.74,6.74,0,0,0,187.16,844.1Z" transform="translate(-111.78 -737.93)" fill="none" stroke="#344154" stroke-miterlimit="10" stroke-width="3"/><path d="M192.13,850.83H135.61a6.74,6.74,0,0,0-6.74,6.74h70A6.74,6.74,0,0,0,192.13,850.83Z" transform="translate(-111.78 -737.93)" fill="none" stroke="#344154" stroke-miterlimit="10" stroke-width="3"/></svg>