<svg id="Icon_Set" data-name="Icon Set" xmlns="http://www.w3.org/2000/svg" width="118.38" height="113.86" viewBox="0 0 118.38 113.86"><title>forest</title><polygon points="74.48 64.27 86.16 64.27 70.87 37.79 79.28 37.79 59.19 3 39.11 37.79 47.51 37.79 32.22 64.27 43.9 64.27 25.67 95.85 51.61 95.85 51.61 112.36 66.78 112.36 66.78 95.85 92.71 95.85 74.48 64.27" fill="none" stroke="#344154" stroke-miterlimit="10" stroke-width="3"/><line x1="51.61" y1="95.85" x2="57.81" y2="95.85" fill="none" stroke="#344154" stroke-miterlimit="10" stroke-width="3"/><line x1="59.19" y1="3" x2="59.19" y2="22.36" fill="none" stroke="#344154" stroke-miterlimit="10" stroke-width="3"/><polyline points="84.63 99.85 84.63 112.36 96.13 112.36 96.13 99.85 115.78 99.85 101.97 75.91 110.82 75.91 99.23 55.84 105.6 55.84 90.38 29.48 78.23 50.52" fill="none" stroke="#344154" stroke-miterlimit="10" stroke-width="3"/><polyline points="33.75 99.85 33.75 112.36 22.26 112.36 22.26 99.85 2.6 99.85 16.41 75.91 7.56 75.91 19.15 55.84 12.78 55.84 28 29.48 40.16 50.52" fill="none" stroke="#344154" stroke-miterlimit="10" stroke-width="3"/></svg>