<svg id="Icon_Set" data-name="Icon Set" xmlns="http://www.w3.org/2000/svg" width="126.2" height="62.79" viewBox="0 0 126.2 62.79"><title>glasses</title><path d="M618.08,1231.14s-6.56-5.89-14.2-5.89-14.2,5.89-14.2,5.89" transform="translate(-540.77 -1193.5)" fill="none" stroke="#344154" stroke-miterlimit="10" stroke-width="3"/><path d="M547,1225.25l17.52-24.64a13.34,13.34,0,0,1,15.32-4.84h0" transform="translate(-540.77 -1193.5)" fill="none" stroke="#344154" stroke-linecap="round" stroke-miterlimit="10" stroke-width="3"/><path d="M660.73,1225.25l-17.52-24.64a13.34,13.34,0,0,0-15.32-4.84h0" transform="translate(-540.77 -1193.5)" fill="none" stroke="#344154" stroke-linecap="round" stroke-miterlimit="10" stroke-width="3"/><path d="M573.24,1219.7H559.81a17.54,17.54,0,0,0,0,35.09h13.43A17.54,17.54,0,1,0,573.24,1219.7Z" transform="translate(-540.77 -1193.5)" fill="none" stroke="#344154" stroke-linecap="round" stroke-miterlimit="10" stroke-width="3"/><path d="M647.93,1219.7H634.5a17.54,17.54,0,0,0,0,35.09h13.43A17.54,17.54,0,0,0,647.93,1219.7Z" transform="translate(-540.77 -1193.5)" fill="none" stroke="#344154" stroke-linecap="round" stroke-miterlimit="10" stroke-width="3"/><line x1="16.28" y1="54.71" x2="35.23" y2="54.71" fill="none" stroke="#344154" stroke-linecap="round" stroke-miterlimit="10" stroke-width="3"/><line x1="90.97" y1="54.71" x2="109.92" y2="54.71" fill="none" stroke="#344154" stroke-linecap="round" stroke-miterlimit="10" stroke-width="3"/></svg>