<svg id="Icon_Set" data-name="Icon Set" xmlns="http://www.w3.org/2000/svg" width="80.32" height="111.35" viewBox="0 0 80.32 111.35"><title>glove</title><path d="M839.9,583.79c3.58,2.3,6,.19,7.61-1.54s2.5-4,3.54-6.06,2.35-4.22,4.39-5.37,5-1,6.35.95a4.92,4.92,0,0,1,.6,3.8,13.55,13.55,0,0,1-1.53,3.64,124.23,124.23,0,0,1-14.18,20.68,77.73,77.73,0,0,0-6.79,8.57,29.74,29.74,0,0,0-4.5,14.19v2.67H802c0-4.07,0-6.62-.34-10.39,0,0-1.72-28.79-10.37-50.78l-5.68-12.92a4.67,4.67,0,0,1,2.4-6.16h0a4.67,4.67,0,0,1,6.16,2.4l7.65,17.42a0.42,0.42,0,0,0,.81-0.21l-3.09-30.55a4.67,4.67,0,0,1,4.18-5.12h0a4.67,4.67,0,0,1,5.12,4.18l2.88,28.48a1.62,1.62,0,0,0,1.8,1.45h0.06a1.65,1.65,0,0,0,1.46-1.64v-33a4.67,4.67,0,0,1,4.67-4.67h0a4.67,4.67,0,0,1,4.67,4.67v32.94a1.67,1.67,0,0,0,1.48,1.66h0a1.62,1.62,0,0,0,1.8-1.45l2.88-28.48a4.67,4.67,0,0,1,5.12-4.18h0a4.67,4.67,0,0,1,4.18,5.12l-3.39,33.54s-1.12,12.66,3.41,16.11" transform="translate(-783.71 -522.34)" fill="none" stroke="#344154" stroke-linecap="round" stroke-miterlimit="10" stroke-width="3"/><path d="M800.92,604.94h21.71a5,5,0,0,1,5,5h0a5,5,0,0,1-5,5H802.3" transform="translate(-783.71 -522.34)" fill="none" stroke="#344154" stroke-linecap="round" stroke-miterlimit="10" stroke-width="3"/><circle cx="38.73" cy="87.6" r="0.91" fill="none" stroke="#344154" stroke-linecap="round" stroke-miterlimit="10" stroke-width="3"/><rect x="18.29" y="102.98" width="33.4" height="6.87" fill="none" stroke="#344154" stroke-linecap="round" stroke-miterlimit="10" stroke-width="3"/></svg>