<svg id="Icon_Set" data-name="Icon Set" xmlns="http://www.w3.org/2000/svg" width="88.35" height="128.3" viewBox="0 0 88.35 128.3"><title>golfer</title><circle cx="46.19" cy="22.04" r="8.8" fill="none" stroke="#344154" stroke-miterlimit="10" stroke-width="3"/><line x1="46.19" y1="41.15" x2="46.19" y2="67.89" fill="none" stroke="#344154" stroke-miterlimit="10" stroke-width="3"/><polyline points="60.28 59.04 60.28 80.11 46.19 80.11 46.19 128.3" fill="none" stroke="#344154" stroke-miterlimit="10" stroke-width="3"/><path d="M181.28,341.53H158.58a20.36,20.36,0,0,0-14,5.55h0c-13.2,13.2-17.79-15.15-17.79-15.15" transform="translate(-119.69 -300.38)" fill="none" stroke="#344154" stroke-miterlimit="10" stroke-width="3"/><path d="M181.28,341.53h0.19a7.22,7.22,0,0,1,5.07,1.8c8,8,4.93,21.32-2,18.86l-10.82-8.32" transform="translate(-119.69 -300.38)" fill="none" stroke="#344154" stroke-miterlimit="10" stroke-width="3"/><line x1="21.33" y1="28.09" x2="1.5" y2="32.92" fill="none" stroke="#344154" stroke-linecap="round" stroke-miterlimit="10" stroke-width="3"/><line x1="34.35" y1="24.92" x2="20.39" y2="28.32" fill="none" stroke="#344154" stroke-miterlimit="10" stroke-width="3"/><line x1="84.73" y1="12.76" x2="58.13" y2="19.25" fill="none" stroke="#344154" stroke-miterlimit="10" stroke-width="3"/><polyline points="31.15 42.68 31.15 73.81 31.15 80.11 46.19 80.11" fill="none" stroke="#344154" stroke-miterlimit="10" stroke-width="3"/><rect x="197.07" y="304.68" width="11.52" height="5.87" rx="2.66" ry="2.66" transform="translate(329.21 -267.03) rotate(75.3)" fill="none" stroke="#344154" stroke-miterlimit="10" stroke-width="3"/><line x1="31.15" y1="80.11" x2="31.15" y2="128.3" fill="none" stroke="#344154" stroke-miterlimit="10" stroke-width="3"/><line x1="60.28" y1="80.11" x2="60.28" y2="128.3" fill="none" stroke="#344154" stroke-miterlimit="10" stroke-width="3"/><path d="M125.09,330.49h3.46a1.31,1.31,0,0,1,1.31,1.31v0.27a1.3,1.3,0,0,1-1.3,1.3h-3.46a1.31,1.31,0,0,1-1.31-1.31V331.8A1.31,1.31,0,0,1,125.09,330.49Z" transform="translate(-195.75 -260.18) rotate(-13.91)" fill="none" stroke="#344154" stroke-miterlimit="10" stroke-width="3"/><circle cx="78.83" cy="116.02" r="3.17" fill="none" stroke="#344154" stroke-miterlimit="10" stroke-width="3"/><line x1="78.83" y1="128.05" x2="78.83" y2="122.17" fill="none" stroke="#344154" stroke-miterlimit="10" stroke-width="3"/></svg>