<svg id="Icon_Set" data-name="Icon Set" xmlns="http://www.w3.org/2000/svg" width="83.48" height="115.56" viewBox="0 0 83.48 115.56"><title>iron</title><path d="M1012.77,1281.17l31.24-1.28a11.46,11.46,0,0,0,10.44-8l1.37-4.26,7.91-24.66a2.63,2.63,0,0,0-1.7-3.31l-4.67-1.5a2.63,2.63,0,0,0-3.31,1.7l-6.74,21a3.83,3.83,0,0,1-4.82,2.48l-25-8a8.47,8.47,0,0,0-10.65,5.48l-2.83,8.84A8.78,8.78,0,0,0,1012.77,1281.17Z" transform="translate(-1002.13 -1167.12)" fill="none" stroke="#344154" stroke-miterlimit="10" stroke-width="3"/><path d="M1082.2,1168.75h0a2.74,2.74,0,0,0-3.44,1.77l-21.67,67.6,5.21,1.67,21.67-67.6A2.74,2.74,0,0,0,1082.2,1168.75Z" transform="translate(-1002.13 -1167.12)" fill="none" stroke="#344154" stroke-miterlimit="10" stroke-width="3"/></svg>