<svg xmlns="http://www.w3.org/2000/svg" width="184" height="48" viewBox="0 0 184 48">
  <defs>
    <style>
      .a {
        fill: #e4edeb;
      }
    </style>
  </defs>
  <title>logo</title>
  <g>
    <path class="a" d="M16.79455.01782Q16.39941.00006,16,0t-.79456.01782C3.58722.54053-3.46314,13.12775,1.738,23.51556L14.27185,47.00665a1.99992,1.99992,0,0,0,3.4563,0L30.262,23.51556C35.46313,13.12775,28.41278.54053,16.79455.01782ZM20,30a1.996,1.996,0,0,0-1.95044,1.572l-1.57239,7.03421a.5.5,0,0,1-.97717,0L13.95044,31.572A1.996,1.996,0,0,0,12,30V27h8Zm-4-4.5a9,9,0,1,1,9-9A9,9,0,0,1,16,25.5Z"/>
    <g>
      <path class="a" d="M66.44334,22.45521c.02979.39014.02979.71972.02979,1.16992a11.82039,11.82039,0,0,1-23.63907.27c0-6.62986,5.33982-11.42964,11.87984-11.42964,5.30955,0,9.8691,3.56981,11.09908,7.85983H59.45363a5.43932,5.43932,0,0,0-4.89012-2.87987A6.08915,6.08915,0,0,0,48.504,23.89514c0,4.65013,3.29979,6.65989,6.08982,6.65989,2.81981,0,4.70994-1.41015,5.30955-3.5703H53.274V22.45521Z"/>
      <path class="a" d="M80.15325,12.4655A11.52059,11.52059,0,1,1,68.45359,24.255a12.53744,12.53744,0,0,1,.87011-4.73973A11.53559,11.53559,0,0,1,80.15325,12.4655Zm.08984,18.05925c4.02,0,5.9697-3.66014,5.9697-6.5095,0-2.87987-1.9497-6.5698-6.02976-6.5698-3.92967,0-6.05955,3.35985-6.05955,6.47947C74.12349,27.34508,76.43354,30.52475,80.24309,30.52475Z"/>
      <path class="a" d="M104.96858,28.74546v3.33885H94.00476v-3.0869a21.25,21.25,0,0,0,4.74656-3.78123c.4834-.54614,2.14257-2.39428,2.14257-3.96947a1.41942,1.41942,0,0,0-1.47021-1.5122c-1.55419,0-1.72216,1.55419-1.78515,2.45751H93.85779a6.51778,6.51778,0,0,1,.92382-3.57079,5.62875,5.62875,0,0,1,4.789-2.37353c3.46581,0,5.29295,2.31054,5.29295,4.5161,0,3.29735-2.70946,5.8176-5.167,7.98166Z"/>
      <path class="a" d="M130.57053,22.45521c.02979.39014.02979.71972.02979,1.16992a11.82039,11.82039,0,0,1-23.63907.27c0-6.62986,5.33982-11.42964,11.87984-11.42964,5.30955,0,9.86959,3.56981,11.09908,7.85983h-6.35935a5.43932,5.43932,0,0,0-4.89012-2.87987,6.08915,6.08915,0,0,0-6.05955,6.44968c0,4.65013,3.29979,6.65989,6.08982,6.65989,2.81981,0,4.70945-1.41015,5.30955-3.5703h-6.62937V22.45521Z"/>
      <path class="a" d="M144.28044,12.4655A11.52059,11.52059,0,1,1,132.58078,24.255a12.53744,12.53744,0,0,1,.87011-4.73973A11.53559,11.53559,0,0,1,144.28044,12.4655Zm.08984,18.05925c4.02,0,5.9697-3.66014,5.9697-6.5095,0-2.87987-1.9497-6.5698-6.02976-6.5698-3.92967,0-6.05955,3.35985-6.05955,6.47947C138.25068,27.34508,140.56072,30.52475,144.37028,30.52475Z"/>
      <path class="a" d="M158.0211,12.88542h5.66941V30.10483h6.5698v4.97947H158.0211Z"/>
      <path class="a" d="M171.88042,12.88542H184v4.98h-6.68991v3.77977h6.45017v4.9802h-6.45017v8.459h-5.42967Z"/>
    </g>
  </g>
</svg>
