<svg id="Icon_Set" data-name="Icon Set" xmlns="http://www.w3.org/2000/svg" width="105.87" height="101.44" viewBox="0 0 105.87 101.44"><title>map</title><polygon points="78.66 1.57 52.94 9.52 27.22 1.57 1.5 9.52 1.5 99.41 27.22 91.45 52.94 99.41 78.66 91.45 104.37 99.41 104.37 9.52 78.66 1.57" fill="none" stroke="#344154" stroke-linecap="round" stroke-miterlimit="10" stroke-width="3"/><line x1="27.22" y1="1.57" x2="27.22" y2="30.47" fill="none" stroke="#344154" stroke-linecap="round" stroke-miterlimit="10" stroke-width="3"/><line x1="52.94" y1="70.51" x2="52.94" y2="99.41" fill="none" stroke="#344154" stroke-linecap="round" stroke-miterlimit="10" stroke-width="3"/><line x1="78.66" y1="1.57" x2="78.66" y2="30.47" fill="none" stroke="#344154" stroke-linecap="round" stroke-miterlimit="10" stroke-width="3"/><path d="M118.15,578s14.64-8.47,20-8c7.54,0.67,18.19,15.15,25.72,16,6.11,0.69,23.28-8,23.28-8" transform="translate(-110.93 -527.53)" fill="none" stroke="#344154" stroke-miterlimit="10" stroke-width="3" stroke-dasharray="3 3"/><line x1="85.88" y1="45.11" x2="96.63" y2="55.86" fill="none" stroke="#344154" stroke-miterlimit="10" stroke-width="3"/><line x1="85.88" y1="55.86" x2="96.63" y2="45.11" fill="none" stroke="#344154" stroke-miterlimit="10" stroke-width="3"/></svg>