<svg id="Icon_Set" data-name="Icon Set" xmlns="http://www.w3.org/2000/svg" width="101" height="105.71" viewBox="0 0 101 105.71"><title>marshal</title><polyline points="37.21 105.71 37.21 62.06 11.69 62.06 11.69 105.71" fill="none" stroke="#344154" stroke-miterlimit="10" stroke-width="3"/><line x1="24.45" y1="62.06" x2="24.45" y2="105.71" fill="none" stroke="#344154" stroke-miterlimit="10" stroke-width="3"/><circle cx="24.45" cy="9.47" r="7.97" fill="none" stroke="#344154" stroke-miterlimit="10" stroke-width="3"/><line x1="24.45" y1="26.77" x2="24.45" y2="51" fill="none" stroke="#344154" stroke-miterlimit="10" stroke-width="3"/><polyline points="37.21 42.98 37.21 62.06 11.69 62.06 11.69 42.98" fill="none" stroke="#344154" stroke-miterlimit="10" stroke-width="3"/><path d="M563.88,771.67h20.55a18.44,18.44,0,0,1,12.66,5h0c12,12,19.9-6.1,19.9-6.1" transform="translate(-553.37 -744.89)" fill="none" stroke="#344154" stroke-miterlimit="10" stroke-width="3"/><path d="M563.88,771.67h0c-5.87,0-9,4.76-9,10.63V807" transform="translate(-553.37 -744.89)" fill="none" stroke="#344154" stroke-miterlimit="10" stroke-width="3"/><line x1="63.62" y1="3.71" x2="63.62" y2="105.71" fill="none" stroke="#344154" stroke-miterlimit="10" stroke-width="3"/><rect x="63.62" y="3.71" width="35.88" height="21.99" fill="none" stroke="#344154" stroke-miterlimit="10" stroke-width="3"/><line x1="63.62" y1="14.71" x2="99.5" y2="14.71" fill="none" stroke="#344154" stroke-miterlimit="10" stroke-width="3"/></svg>