<svg id="Icon_Set" data-name="Icon Set" xmlns="http://www.w3.org/2000/svg" width="105.66" height="69" viewBox="0 0 105.66 69"><title>moving-ball</title><path d="M417.34,556.6a5.25,5.25,0,0,0-7.35,7.35" transform="translate(-331.79 -543.52)" fill="none" stroke="#344154" stroke-miterlimit="10" stroke-width="3"/><path d="M403.51,570.44a5.25,5.25,0,0,0-7.35,7.35" transform="translate(-331.79 -543.52)" fill="none" stroke="#344154" stroke-miterlimit="10" stroke-width="3"/><path d="M389.67,584.27a5.25,5.25,0,0,0-7.35,7.35" transform="translate(-331.79 -543.52)" fill="none" stroke="#344154" stroke-miterlimit="10" stroke-width="3"/><path d="M390.72,557.65a5.25,5.25,0,0,0-7.35,7.35" transform="translate(-331.79 -543.52)" fill="none" stroke="#344154" stroke-miterlimit="10" stroke-width="3"/><path d="M387.76,572.09a5.25,5.25,0,0,0-7.35,7.35" transform="translate(-331.79 -543.52)" fill="none" stroke="#344154" stroke-miterlimit="10" stroke-width="3"/><circle cx="71.16" cy="34.5" r="33" fill="none" stroke="#344154" stroke-miterlimit="10" stroke-width="3"/><path d="M397,562.83a5.25,5.25,0,0,1,7.35-7.35" transform="translate(-331.79 -543.52)" fill="none" stroke="#344154" stroke-miterlimit="10" stroke-width="3"/><line x1="71.16" y1="1.5" x2="11.5" y2="1.5" fill="none" stroke="#344154" stroke-miterlimit="10" stroke-width="3"/><line x1="27.75" y1="12.06" x2="46.98" y2="12.06" fill="none" stroke="#344154" stroke-miterlimit="10" stroke-width="3"/><line x1="74.45" y1="67.34" x2="31.75" y2="67.34" fill="none" stroke="#344154" stroke-miterlimit="10" stroke-width="3"/><line y1="54.76" x2="35" y2="54.76" fill="none" stroke="#344154" stroke-miterlimit="10" stroke-width="3"/></svg>