<svg xmlns="http://www.w3.org/2000/svg" width="24" height="24" viewBox="0 0 24 24">
  <defs>
    <style>
      .a {
        fill: #00adb5;
      }
    </style>
  </defs>
  <title>icon-search</title>
  <path class="a" d="M24,9.00022a8.99792,8.99792,0,0,1-9.00022,8.99963,8.84722,8.84722,0,0,1-4.80539-1.38871l-6.7777,6.80524A2.02073,2.02073,0,0,1,1.99985,24a1.97262,1.97262,0,0,1-1.41625-.58361,2.01092,2.01092,0,0,1,0-2.83308l6.80524-6.7777A8.84722,8.84722,0,0,1,6.00015,9.00022,8.99993,8.99993,0,1,1,24,9.00022Zm-3.00007,0a5.99985,5.99985,0,1,0-6.00015,5.99956A6.01023,6.01023,0,0,0,20.99993,9.00022Z"/>
</svg>
