<svg id="Icon_Set" data-name="Icon Set" xmlns="http://www.w3.org/2000/svg" width="60.18" height="116.12" viewBox="0 0 60.18 116.12"><title>tees</title><path d="M173.37,977.39a5.23,5.23,0,0,0-7.32,7.32" transform="translate(-133.78 -961.22)" fill="none" stroke="#344154" stroke-miterlimit="10" stroke-width="3"/><path d="M157.19,993.57a5.23,5.23,0,0,0-7.32,7.32" transform="translate(-133.78 -961.22)" fill="none" stroke="#344154" stroke-miterlimit="10" stroke-width="3"/><path d="M156.09,975.43a5.23,5.23,0,0,0-7.32,7.32" transform="translate(-133.78 -961.22)" fill="none" stroke="#344154" stroke-miterlimit="10" stroke-width="3"/><circle cx="30.09" cy="30.09" r="28.59" fill="none" stroke="#344154" stroke-miterlimit="10" stroke-width="3"/><path d="M181.66,1042.18a106.52,106.52,0,0,1-35.58,0c-1.83-.31-3.09-2.4-2.81-4.58h0c0.28-2.18,1.92-3.68,3.65-3.39a101.52,101.52,0,0,0,33.91,0c1.73-.29,3.37,1.2,3.65,3.39h0C184.75,1039.78,183.49,1041.87,181.66,1042.18Z" transform="translate(-133.78 -961.22)" fill="none" stroke="#344154" stroke-miterlimit="10" stroke-width="3"/><path d="M189.8,1032.15a99.28,99.28,0,0,1-51.86,0c-1.83-.49-3-2.71-2.56-4.85h0c0.42-2.15,2.15-3.47,3.87-3a94.26,94.26,0,0,0,49.24,0c1.72-.46,3.45.86,3.87,3h0C192.77,1029.44,191.63,1031.66,189.8,1032.15Z" transform="translate(-133.78 -961.22)" fill="none" stroke="#344154" stroke-miterlimit="10" stroke-width="3"/><path d="M153.86,1043.29l10,29.4,10-29.4A134.83,134.83,0,0,1,153.86,1043.29Z" transform="translate(-133.78 -961.22)" fill="none" stroke="#344154" stroke-miterlimit="10" stroke-width="3"/></svg>