<svg id="Icon_Set" data-name="Icon Set" xmlns="http://www.w3.org/2000/svg" width="104.27" height="112.25" viewBox="0 0 104.27 112.25"><title>trolley</title><rect x="824.43" y="1199.4" width="24.42" height="50.98" rx="7.33" ry="7.33" transform="translate(-746.74 -1185.47) rotate(1.16)" fill="none" stroke="#344154" stroke-miterlimit="10" stroke-width="3"/><path d="M848.55,1239.64h0l0.59-29h0a5.8,5.8,0,0,1,5.68,5.92l-0.35,17.4A5.8,5.8,0,0,1,848.55,1239.64Z" transform="translate(-771.73 -1168.77)" fill="none" stroke="#344154" stroke-miterlimit="10" stroke-width="3"/><line x1="59.63" y1="41.51" x2="59.04" y2="70.51" fill="none" stroke="#344154" stroke-miterlimit="10" stroke-width="3"/><line x1="71.3" y1="30.75" x2="71.57" y2="17.4" fill="none" stroke="#344154" stroke-miterlimit="10" stroke-width="3"/><line x1="64.93" y1="30.62" x2="65.42" y2="6.36" fill="none" stroke="#344154" stroke-miterlimit="10" stroke-width="3"/><line x1="58.59" y1="30.5" x2="58.86" y2="17.14" fill="none" stroke="#344154" stroke-miterlimit="10" stroke-width="3"/><path d="M849.52,1189.81l-2.89-.06a3,3,0,1,1,.12-6l2.89,0.06A3,3,0,1,1,849.52,1189.81Z" transform="translate(-771.73 -1168.77)" fill="none" stroke="#344154" stroke-miterlimit="10" stroke-width="3"/><path d="M843.38,1178.27l-2.89-.06a3,3,0,1,1,.12-6l2.89,0.06A3,3,0,1,1,843.38,1178.27Z" transform="translate(-771.73 -1168.77)" fill="none" stroke="#344154" stroke-miterlimit="10" stroke-width="3"/><path d="M827.13,1188.86l-2.89-.06a3,3,0,1,1,.12-6l2.89,0.06A3,3,0,1,1,827.13,1188.86Z" transform="translate(-771.73 -1168.77)" fill="none" stroke="#344154" stroke-miterlimit="10" stroke-width="3"/><circle cx="93.27" cy="101.25" r="9.5" fill="none" stroke="#344154" stroke-miterlimit="10" stroke-width="3"/><circle cx="28.93" cy="95.76" r="3.99" fill="none" stroke="#344154" stroke-miterlimit="10" stroke-width="3"/><path d="M857.26,1264.53H821a20.35,20.35,0,1,0-40.71,0" transform="translate(-771.73 -1168.77)" fill="none" stroke="#344154" stroke-miterlimit="10" stroke-width="3"/><circle cx="28.93" cy="95.76" r="15" fill="none" stroke="#344154" stroke-miterlimit="10" stroke-width="3"/><path d="M792.63,1245.82v-41.43a27,27,0,0,0-7.92-19.12L774,1174.53a2.5,2.5,0,0,1,.14-3.67h0a2.5,2.5,0,0,1,3.39.13L791,1184.47" transform="translate(-771.73 -1168.77)" fill="none" stroke="#344154" stroke-miterlimit="10" stroke-width="3"/><path d="M815.21,1250.3l39.61,0a10.2,10.2,0,0,1,10.18,10.2h0" transform="translate(-771.73 -1168.77)" fill="none" stroke="#344154" stroke-miterlimit="10" stroke-width="3"/><line x1="27.05" y1="75.4" x2="27.05" y2="37.86" fill="none" stroke="#344154" stroke-miterlimit="10" stroke-width="3"/></svg>