<svg xmlns="http://www.w3.org/2000/svg" width="83.14144" height="74" viewBox="0 0 83.14144 74">
  <defs>
    <style>
      .a {
        opacity: 1;
      }

      .b, .c {
        fill: none;
        stroke: #344154;
        stroke-miterlimit: 10;
        stroke-width: 2px;
      }

      .c {
        stroke-linecap: round;
      }
    </style>
  </defs>
  <title>accommodation</title>
  <g class="a">
    <rect class="b" x="1" y="34.33797" width="6.09922" height="38.66203"/>
    <rect class="b" x="63.71895" y="49.178" width="18.42249" height="23.822"/>
    <rect class="b" x="69.78176" y="41.91876" width="6.29694" height="7.25924"/>
    <rect class="b" x="36.86568" y="49.48063" width="11.304" height="23.51937"/>
    <rect class="b" x="12.95023" y="7.08443" width="18.06446" height="7.2677"/>
    <polyline class="b" points="48.17 73 48.17 38.69 63.719 38.69 63.719 73"/>
    <rect class="b" x="51.12741" y="23.47892" width="9.63375" height="15.21129"/>
    <line class="c" x1="55.94428" y1="23.47892" x2="55.94428" y2="10.8873"/>
    <polyline class="b" points="18.94 7.084 18.94 1 25.025 1 25.025 7.084"/>
    <line class="b" x1="14.47183" y1="23.77991" x2="14.47183" y2="20.73762"/>
    <line class="b" x1="21.98249" y1="23.77991" x2="21.98249" y2="20.73762"/>
    <line class="b" x1="29.493" y1="23.77991" x2="29.493" y2="20.73762"/>
    <line class="b" x1="14.47183" y1="32.34681" x2="14.47183" y2="29.3046"/>
    <line class="b" x1="21.98249" y1="32.34681" x2="21.98249" y2="29.3046"/>
    <line class="b" x1="29.493" y1="32.34681" x2="29.493" y2="29.3046"/>
    <line class="b" x1="14.47183" y1="40.91379" x2="14.47183" y2="37.87151"/>
    <line class="b" x1="21.98249" y1="40.91379" x2="21.98249" y2="37.87151"/>
    <line class="b" x1="29.493" y1="40.91379" x2="29.493" y2="37.87151"/>
    <line class="b" x1="14.47183" y1="49.48063" x2="14.47183" y2="46.43834"/>
    <line class="b" x1="21.98249" y1="49.48063" x2="21.98249" y2="46.43834"/>
    <line class="b" x1="29.493" y1="49.48063" x2="29.493" y2="46.43834"/>
    <line class="b" x1="14.47183" y1="58.04753" x2="14.47183" y2="55.00532"/>
    <line class="b" x1="21.98249" y1="58.04753" x2="21.98249" y2="55.00532"/>
    <line class="b" x1="29.493" y1="58.04753" x2="29.493" y2="55.00532"/>
    <line class="b" x1="14.47183" y1="66.61444" x2="14.47183" y2="63.57222"/>
    <line class="b" x1="21.98249" y1="66.61444" x2="21.98249" y2="63.57222"/>
    <line class="b" x1="29.493" y1="66.61444" x2="29.493" y2="63.57222"/>
    <polyline class="b" points="7.099 73 7.099 14.352 36.866 14.352 36.866 73"/>
    <line class="b" x1="1" y1="73" x2="82.14144" y2="73"/>
    <line class="c" x1="42.51769" y1="49.48063" x2="42.51769" y2="41.29643"/>
  </g>
</svg>
