<svg id="Icon_Set" data-name="Icon Set" xmlns="http://www.w3.org/2000/svg" width="119.77" height="129.67" viewBox="0 0 119.77 129.67"><title>ball-retriever</title><path d="M1005.49,781.63h-14l-6.65-25.76a3.61,3.61,0,0,1,3.5-4.51h20.3a3.61,3.61,0,0,1,3.5,4.51Z" transform="translate(-983.23 -733.66)" fill="none" stroke="#344154" stroke-miterlimit="10" stroke-width="3"/><path d="M998.5,735.16c-19.37,0-10.66,16.19-10.66,16.19l4.18,8.86a4.56,4.56,0,0,0,4.12,2.61h4.72a4.56,4.56,0,0,0,4.12-2.61l4.18-8.86s8.71-16.19-10.66-16.19" transform="translate(-983.23 -733.66)" fill="none" stroke="#344154" stroke-miterlimit="10" stroke-width="3"/><path d="M988.57,751.36s-4.13-11,9.93-11" transform="translate(-983.23 -733.66)" fill="none" stroke="#344154" stroke-miterlimit="10" stroke-width="3"/><path d="M1008.42,751.36s4.13-11-9.93-11" transform="translate(-983.23 -733.66)" fill="none" stroke="#344154" stroke-miterlimit="10" stroke-width="3"/><path d="M1006.08,781.63H990.91a2.38,2.38,0,0,0-2.38,2.38h0a2.38,2.38,0,0,0,2.38,2.38h15.18a2.38,2.38,0,0,0,2.38-2.38h0A2.38,2.38,0,0,0,1006.08,781.63Z" transform="translate(-983.23 -733.66)" fill="none" stroke="#344154" stroke-miterlimit="10" stroke-width="3"/><rect x="11.11" y="52.72" width="8.3" height="55.12" fill="none" stroke="#344154" stroke-miterlimit="10" stroke-width="3"/><path d="M1002.65,841.51h-8.3l-0.24.4a18.67,18.67,0,0,0-2.76,9.76h0a18.67,18.67,0,0,0,2.76,9.76l0.24,0.4h8.3l0.24-.4a18.67,18.67,0,0,0,2.76-9.76h0a18.67,18.67,0,0,0-2.76-9.76Z" transform="translate(-983.23 -733.66)" fill="none" stroke="#344154" stroke-miterlimit="10" stroke-width="3"/><path d="M1082.61,798.31a4.66,4.66,0,0,0-9.21,0" transform="translate(-983.23 -733.66)" fill="none" stroke="#344154" stroke-miterlimit="10" stroke-width="3"/><path d="M1058.69,798.31a4.66,4.66,0,0,0-9.21,0" transform="translate(-983.23 -733.66)" fill="none" stroke="#344154" stroke-miterlimit="10" stroke-width="3"/><path d="M1070.65,786.21a4.66,4.66,0,0,0-9.21,0" transform="translate(-983.23 -733.66)" fill="none" stroke="#344154" stroke-miterlimit="10" stroke-width="3"/><path d="M1029.09,823.76a21,21,0,0,0,18.48-11,21,21,0,0,0,37,0,21,21,0,0,0,18.48,11" transform="translate(-983.23 -733.66)" fill="none" stroke="#344154" stroke-miterlimit="10" stroke-width="3"/><path d="M1047.57,812.71a21,21,0,0,0,37,0,21.08,21.08,0,0,0,5,6.09,28.59,28.59,0,1,0-46.87,0A21.07,21.07,0,0,0,1047.57,812.71Z" transform="translate(-983.23 -733.66)" fill="none" stroke="#344154" stroke-miterlimit="10" stroke-width="3"/></svg>