<svg id="Icon_Set" data-name="Icon Set" xmlns="http://www.w3.org/2000/svg" width="123.91" height="77.37" viewBox="0 0 123.91 77.37"><title>golf-field</title><path d="M1006.4,1024.92a4.77,4.77,0,1,0,4.77,4.77" transform="translate(-981.91 -978.56)" fill="none" stroke="#344154" stroke-miterlimit="10" stroke-width="3"/><line x1="24.48" y1="51.13" x2="24.48" y2="2.43" fill="none" stroke="#344154" stroke-miterlimit="10" stroke-width="3"/><line x1="36.25" y1="51.13" x2="87.66" y2="51.13" fill="none" stroke="#344154" stroke-miterlimit="10" stroke-width="3" stroke-dasharray="3 3"/><path d="M1081,1005a24.66,24.66,0,0,0-13.23,2.94,46.72,46.72,0,0,1-22.25,5.87h-3.38a46.72,46.72,0,0,1-22.25-5.87,24.74,24.74,0,1,0,.44,43.28,44.59,44.59,0,0,1,22.08-5.63h2.85a44.59,44.59,0,0,1,22.08,5.63A24.74,24.74,0,1,0,1081,1005Z" transform="translate(-981.91 -978.56)" fill="none" stroke="#344154" stroke-miterlimit="10" stroke-width="3"/><circle cx="97.94" cy="51.13" r="3.67" fill="none" stroke="#344154" stroke-miterlimit="10" stroke-width="3"/><polygon points="24.48 14.19 24.48 2.43 36.25 8.31 24.48 14.19" fill="none" stroke="#344154" stroke-miterlimit="10" stroke-width="3"/></svg>