<svg id="Icon_Set" data-name="Icon Set" xmlns="http://www.w3.org/2000/svg" width="117.76" height="88.55" viewBox="0 0 117.76 88.55"><title>golf-cart</title><circle cx="14.28" cy="76.91" r="10.14" fill="none" stroke="#344154" stroke-miterlimit="10" stroke-width="3"/><circle cx="14.28" cy="76.91" r="3.79" fill="none" stroke="#344154" stroke-miterlimit="10" stroke-width="3"/><circle cx="98.12" cy="76.91" r="3.79" fill="none" stroke="#344154" stroke-miterlimit="10" stroke-width="3"/><circle cx="98.12" cy="76.91" r="10.14" fill="none" stroke="#344154" stroke-miterlimit="10" stroke-width="3"/><line x1="24.42" y1="76.91" x2="87.98" y2="76.91" fill="none" stroke="#344154" stroke-miterlimit="10" stroke-width="3"/><path d="M551.42,391.49l-3.69-3.69a4.25,4.25,0,0,1,0-6h0a8.17,8.17,0,0,1,5.78-2.39h8.6a17.32,17.32,0,0,1,15,8.69h0a8.43,8.43,0,0,0,7.31,4.23h34a6.52,6.52,0,0,0,4.61-1.91l3.1-3.1a30.78,30.78,0,0,1,21.77-9h4.74a8.62,8.62,0,0,1,8.62,8.62v11h-8" transform="translate(-544.99 -321.01)" fill="none" stroke="#344154" stroke-miterlimit="10" stroke-width="3"/><path d="M552.1,379.53s2.34-10.4,11.85-15A9.19,9.19,0,0,1,576.13,369l3.54,7.43-7,6.53" transform="translate(-544.99 -321.01)" fill="none" stroke="#344154" stroke-miterlimit="10" stroke-width="3"/><line x1="32.42" y1="50.71" x2="45.98" y2="40.61" fill="none" stroke="#344154" stroke-miterlimit="10" stroke-width="3"/><line x1="41.79" y1="34.29" x2="50.55" y2="46.26" fill="none" stroke="#344154" stroke-linecap="round" stroke-miterlimit="10" stroke-width="3"/><path d="M618.95,380.36l5.45-17.58a9.85,9.85,0,0,1,9.41-6.93h15.35V328.58" transform="translate(-544.99 -321.01)" fill="none" stroke="#344154" stroke-linecap="round" stroke-miterlimit="10" stroke-width="3"/><line x1="24.42" y1="42.86" x2="36.89" y2="7.58" fill="none" stroke="#344154" stroke-linecap="round" stroke-miterlimit="10" stroke-width="3"/><rect x="24.42" y="1.5" width="91.83" height="6.08" rx="2.41" ry="2.41" fill="none" stroke="#344154" stroke-linecap="round" stroke-miterlimit="10" stroke-width="3"/><line x1="104.18" y1="34.84" x2="104.18" y2="49.64" fill="none" stroke="#344154" stroke-linecap="round" stroke-miterlimit="10" stroke-width="3"/><path d="M623,390.41l3.1-3.1a30.78,30.78,0,0,1,21.77-9h4.74a8.58,8.58,0,0,1,3.19.62v-5.69a2.58,2.58,0,0,0-2.58-2.58H634.61a12.36,12.36,0,0,0-8.74,3.62l-4.27,4.27a8.8,8.8,0,0,1-6.23,2.58H606.1a6,6,0,0,0-6,6v5.15h18.36A6.52,6.52,0,0,0,623,390.41Z" transform="translate(-544.99 -321.01)" fill="none" stroke="#344154" stroke-miterlimit="10" stroke-width="3"/><line x1="31.66" y1="7.58" x2="24.42" y2="27.71" fill="none" stroke="#344154" stroke-linecap="round" stroke-miterlimit="10" stroke-width="3"/></svg>