<svg id="Icon_Set" data-name="Icon Set" xmlns="http://www.w3.org/2000/svg" width="104.54" height="119.55" viewBox="0 0 104.54 119.55"><title>golf-shirt</title><path d="M113.32,1225.72l-0.2,8.28s8.55,4.76,15.73,3l1.91-5.63" transform="translate(-111.6 -1168.47)" fill="none" stroke="#344154" stroke-miterlimit="10" stroke-width="3"/><path d="M132.89,1275.66l-1,7.27s18.83,3.59,32,3.59" transform="translate(-111.6 -1168.47)" fill="none" stroke="#344154" stroke-miterlimit="10" stroke-width="3"/><path d="M210.73,1198.75a25.3,25.3,0,0,0-14.57-16.31,78.53,78.53,0,0,1-20.4-12.47H152a78.53,78.53,0,0,1-20.4,12.47A25.3,25.3,0,0,0,117,1198.75c-1.84,6.19-3.38,14.9-3.68,27,0,0,2.12,6.5,17.45,5.64l1-2.76a1.29,1.29,0,0,1,2.42,0c1.64,4.45,3.47,16.34-1.32,47.06,0,0,8.64,4.1,31,4.1s31-4.1,31-4.1c-4.79-30.72-3-42.61-1.32-47.06a1.29,1.29,0,0,1,2.42,0l1,2.76c15.33,0.86,17.45-5.64,17.45-5.64C214.12,1213.65,212.57,1204.94,210.73,1198.75Z" transform="translate(-111.6 -1168.47)" fill="none" stroke="#344154" stroke-miterlimit="10" stroke-width="3"/><path d="M194.85,1275.66l1,7.27s-18.83,3.59-32,3.59" transform="translate(-111.6 -1168.47)" fill="none" stroke="#344154" stroke-miterlimit="10" stroke-width="3"/><path d="M175.77,1170s3.06,15.68-11.9,28.33C148.9,1185.65,152,1170,152,1170" transform="translate(-111.6 -1168.47)" fill="none" stroke="#344154" stroke-miterlimit="10" stroke-width="3"/><path d="M214.41,1225.72l0.2,8.28s-8.55,4.76-15.73,3l-1.91-5.63" transform="translate(-111.6 -1168.47)" fill="none" stroke="#344154" stroke-miterlimit="10" stroke-width="3"/><line x1="52.27" y1="111.29" x2="52.27" y2="29.83" fill="none" stroke="#344154" stroke-miterlimit="10" stroke-width="3"/></svg>