<svg id="Icon_Set" data-name="Icon Set" xmlns="http://www.w3.org/2000/svg" width="43.49" height="116.7" viewBox="0 0 43.49 116.7"><title>golf-pants</title><path d="M840.68,748.54s7.07,23.32.91,106.22a0.64,0.64,0,0,1-.63.59h-12a0.63,0.63,0,0,1-.63-0.64c0.06-6.3-1.56-57.6-3.8-74.67a0.63,0.63,0,0,0-1.26,0c-2.24,17.07-3.86,68.37-3.8,74.67a0.63,0.63,0,0,1-.63.64h-12a0.64,0.64,0,0,1-.63-0.59c-6.16-82.9.91-106.22,0.91-106.22" transform="translate(-802.12 -740.15)" fill="none" stroke="#344154" stroke-linecap="round" stroke-miterlimit="10" stroke-width="3"/><line x1="21.74" y1="8.39" x2="21.74" y2="19.37" fill="none" stroke="#344154" stroke-linecap="round" stroke-miterlimit="10" stroke-width="3"/><rect x="17.37" y="1.5" width="8.75" height="6.89" fill="none" stroke="#344154" stroke-linecap="round" stroke-miterlimit="10" stroke-width="3"/><polygon points="21.75 1.5 4.93 1.5 4.93 8.39 21.75 8.39 38.56 8.39 38.56 1.5 21.75 1.5" fill="none" stroke="#344154" stroke-linecap="round" stroke-miterlimit="10" stroke-width="3"/></svg>