<svg id="Icon_Set" data-name="Icon Set" xmlns="http://www.w3.org/2000/svg" width="87.43" height="113.68" viewBox="0 0 87.43 113.68"><title>golf-bag</title><rect x="571.76" y="995.07" width="35.11" height="73.3" rx="7.33" ry="7.33" transform="translate(-137.31 -1105.59) rotate(21.68)" fill="none" stroke="#344154" stroke-miterlimit="10" stroke-width="3"/><path d="M605.34,1018.89h2a6.33,6.33,0,0,1,6.33,6.33v29a6.33,6.33,0,0,1-6.33,6.33h-2a0,0,0,0,1,0,0v-41.7A0,0,0,0,1,605.34,1018.89Z" transform="translate(-132.92 -1112.48) rotate(21.68)" fill="none" stroke="#344154" stroke-miterlimit="10" stroke-width="3"/><line x1="29.43" y1="48.52" x2="14.02" y2="87.27" fill="none" stroke="#344154" stroke-miterlimit="10" stroke-width="3"/><path d="M568.81,1069l9.84,3.91a2.3,2.3,0,0,0,2.57-.6l3.53-3.26L567,1062l0.33,4.79A2.3,2.3,0,0,0,568.81,1069Z" transform="translate(-560.15 -960.86)" fill="none" stroke="#344154" stroke-miterlimit="10" stroke-width="3"/><line x1="50.56" y1="39.92" x2="57.65" y2="22.07" fill="none" stroke="#344154" stroke-miterlimit="10" stroke-width="3"/><line x1="42.04" y1="36.53" x2="54.94" y2="4.11" fill="none" stroke="#344154" stroke-miterlimit="10" stroke-width="3"/><line x1="33.58" y1="33.17" x2="40.68" y2="15.32" fill="none" stroke="#344154" stroke-miterlimit="10" stroke-width="3"/><path d="M624.35,991l-3.86-1.53a4.37,4.37,0,1,1,3.2-8.06l3.86,1.53A4.37,4.37,0,1,1,624.35,991Z" transform="translate(-560.15 -960.86)" fill="none" stroke="#344154" stroke-miterlimit="10" stroke-width="3"/><path d="M621.89,972.34L618,970.8a4.37,4.37,0,1,1,3.2-8.06l3.86,1.53A4.37,4.37,0,1,1,621.89,972.34Z" transform="translate(-560.15 -960.86)" fill="none" stroke="#344154" stroke-miterlimit="10" stroke-width="3"/><path d="M594.68,978.41l-3.86-1.53a4.37,4.37,0,1,1,3.2-8.06l3.86,1.53A4.37,4.37,0,1,1,594.68,978.41Z" transform="translate(-560.15 -960.86)" fill="none" stroke="#344154" stroke-miterlimit="10" stroke-width="3"/><path d="M611,1047.21l18.21,23.21A1.62,1.62,0,0,1,628,1073h-6.8" transform="translate(-560.15 -960.86)" fill="none" stroke="#344154" stroke-linecap="round" stroke-miterlimit="10" stroke-width="3"/><path d="M616.6,1033.21l29.14,37.21a1.63,1.63,0,0,1-1.28,2.63h-6.81" transform="translate(-560.15 -960.86)" fill="none" stroke="#344154" stroke-linecap="round" stroke-miterlimit="10" stroke-width="3"/></svg>