<svg id="Icon_Set" data-name="Icon Set" xmlns="http://www.w3.org/2000/svg" width="124.17" height="52.46" viewBox="0 0 124.17 52.46"><title>golf-shoe</title><path d="M554.92,556.45c6.9,4.36,20.65,9.41,38.79-2.18a6.28,6.28,0,0,1,7.33.43c3.32,2.69,8.6,6.83,14.45,10.88a72.72,72.72,0,0,0,37,12.82l3.06,0.19a9.42,9.42,0,0,1,8.92,8.72q0,0.3,0,.6v6.2s-29.16,14.08-63,6.2c0,0-14.41-4.69-22.12-4.69v7.09s-27.48.79-34.69-3.74V586.73S541,571,545.68,559.31A6.29,6.29,0,0,1,554.92,556.45Z" transform="translate(-541.79 -551.79)" fill="none" stroke="#344154" stroke-miterlimit="10" stroke-width="3"/><path d="M544.63,586.73s4.86,3.52,20.45,3.52" transform="translate(-541.79 -551.79)" fill="none" stroke="#344154" stroke-miterlimit="10" stroke-width="3"/><path d="M664.43,587.3s-13.31,8.65-34.17,8.65" transform="translate(-541.79 -551.79)" fill="none" stroke="#344154" stroke-miterlimit="10" stroke-width="3"/><line x1="59.04" y1="16.12" x2="65.85" y2="8.08" fill="none" stroke="#344154" stroke-miterlimit="10" stroke-width="3"/><line x1="66.64" y1="21.37" x2="72.73" y2="13.11" fill="none" stroke="#344154" stroke-miterlimit="10" stroke-width="3"/><path d="M579.68,560.44a254.37,254.37,0,0,0,31.12,22,13.9,13.9,0,0,1,5.63,6.09c1.74,3.78,2.09,9.12-5.79,13.4" transform="translate(-541.79 -551.79)" fill="none" stroke="#344154" stroke-miterlimit="10" stroke-width="3"/><line x1="80.42" y1="17.65" x2="74.65" y2="26.23" fill="none" stroke="#344154" stroke-miterlimit="10" stroke-width="3"/><path d="M545.26,560.44s16.2,13.29,43.27,7" transform="translate(-541.79 -551.79)" fill="none" stroke="#344154" stroke-miterlimit="10" stroke-width="3"/></svg>