<svg id="Icon_Set" data-name="Icon Set" xmlns="http://www.w3.org/2000/svg" width="100.99" height="100.27" viewBox="0 0 100.99 100.27"><title>hole</title><path d="M1237.29,1037c-27.06,0-49,6.83-49,15.26,0,6.27,12.14,11.65,29.5,14a19.54,19.54,0,0,1,39,0c17.36-2.35,29.5-7.73,29.5-14C1286.29,1043.81,1264.35,1037,1237.29,1037Z" transform="translate(-1186.8 -967.67)" fill="none" stroke="#344154" stroke-miterlimit="10" stroke-width="3"/><path d="M1236,969.17a20.33,20.33,0,0,0-20.33,20.33c0,11.23,20.33,38.14,20.33,38.14s20.33-26.91,20.33-38.14A20.33,20.33,0,0,0,1236,969.17Zm0,32.47a12.38,12.38,0,1,1,12.38-12.38A12.38,12.38,0,0,1,1236,1001.64Z" transform="translate(-1186.8 -967.67)" fill="none" stroke="#344154" stroke-miterlimit="10" stroke-width="3"/></svg>