<svg xmlns="http://www.w3.org/2000/svg" width="196" height="48" viewBox="0 0 196 48">
  <defs>
    <style>
      .a {
        fill: #e4edeb;
      }
    </style>
  </defs>
  <title>logo</title>
  <g>
    <path class="a" d="M16.79455.01782Q16.39941.00006,16,0t-.79456.01782C3.58722.54053-3.46314,13.12775,1.738,23.51556L14.27185,47.00665a1.99992,1.99992,0,0,0,3.4563,0L30.262,23.51556C35.46313,13.12775,28.41278.54053,16.79455.01782ZM20,30a1.996,1.996,0,0,0-1.95044,1.572L16.47717,38.6062a.5.5,0,0,1-.97717,0L13.95044,31.572A1.996,1.996,0,0,0,12,30V27h8Zm-4-4.5a9,9,0,1,1,9-9A9,9,0,0,1,16,25.5Z"/>
    <g>
      <path class="a" d="M70.20446,23.39275c.031.40588.031.74876.031,1.21712a12.2973,12.2973,0,0,1-24.59281.28091C45.64264,17.99344,51.1979,13,58.00178,13c5.52377,0,10.26728,3.71384,11.54688,8.17695H62.93274a5.65878,5.65878,0,0,0-5.08741-2.99606,6.33482,6.33482,0,0,0-6.304,6.7099c0,4.83749,3.43293,6.92833,6.33552,6.92833,2.93358,0,4.9-1.467,5.52377-3.71384H56.50375V23.39275Z"/>
      <path class="a" d="M84.46751,13a11.98552,11.98552,0,1,1-12.1717,12.26517,13.04328,13.04328,0,0,1,.90522-4.931A12.001,12.001,0,0,1,84.46751,13ZM84.561,31.78813c4.1822,0,6.21056-3.80781,6.21056-6.77238,0-2.99606-2.02836-6.83486-6.273-6.83486-4.08822,0-6.304,3.49541-6.304,6.74089C78.19447,28.47966,80.59772,31.78813,84.561,31.78813Z"/>
      <path class="a" d="M113.69259,23.9053,112.447,26.89883a9.16577,9.16577,0,0,1-1.22321,2.14164l2.20666,2.27219-2.46929,2.4256-1.90086-1.96639a7.18309,7.18309,0,0,1-4.82885,1.96639c-3.03772,0-5.39728-2.0756-5.39728-4.69779,0-2.40376,1.83533-3.64932,2.99352-4.43568a4.82406,4.82406,0,0,1-1.52953-3.49642,4.28885,4.28885,0,0,1,4.47936-4.17356,4.02927,4.02927,0,0,1,4.23909,3.977,4.51661,4.51661,0,0,1-2.229,3.71485l1.90137,1.9227,1.18-2.644Zm-9.63637,2.88431a2.54076,2.54076,0,0,0-1.24506,1.87952,1.67294,1.67294,0,0,0,1.85717,1.59506,2.34989,2.34989,0,0,0,1.96639-.87423Zm1.68294-5.89967a.93057.93057,0,0,0-.93976-1.02713.98867.98867,0,0,0-.98345,1.07082,2.67567,2.67567,0,0,0,.91792,1.748A2.579,2.579,0,0,0,105.73915,20.88994Z"/>
      <path class="a" d="M140.41434,23.39275c.031.40588.031.74876.031,1.21712a12.2973,12.2973,0,0,1-24.59281.28091C115.85252,17.99344,121.40778,13,128.21166,13c5.52377,0,10.26728,3.71384,11.54688,8.17695h-6.61593a5.65878,5.65878,0,0,0-5.08741-2.99606,6.33482,6.33482,0,0,0-6.304,6.7099c0,4.83749,3.43293,6.92833,6.33552,6.92833,2.93358,0,4.9-1.467,5.52377-3.71384h-6.89684V23.39275Z"/>
      <path class="a" d="M154.67739,13a11.98552,11.98552,0,1,1-12.1717,12.26517,13.04328,13.04328,0,0,1,.90522-4.931A12.001,12.001,0,0,1,154.67739,13Zm.09347,18.78813c4.1822,0,6.21056-3.80781,6.21056-6.77238,0-2.99606-2.02836-6.83486-6.273-6.83486-4.08822,0-6.304,3.49541-6.304,6.74089C148.40435,28.47966,150.8076,31.78813,154.77086,31.78813Z"/>
      <path class="a" d="M168.97193,13.43686h5.89866v17.9139h6.83486v5.18088H168.97193Z"/>
      <path class="a" d="M183.39144,13.43686H196v5.18088h-6.95983V22.55h6.71041V27.7309h-6.71041v8.80075h-5.64873Z"/>
    </g>
  </g>
</svg>
