<svg id="Icon_Set" data-name="Icon Set" xmlns="http://www.w3.org/2000/svg" width="1231.7" height="1027.24" viewBox="0 0 1231.7 1027.24"><title>marker</title><path d="M406,332.41a8.06,8.06,0,0,0-11.27,11.27" transform="translate(-102.02 -300.38)" fill="none" stroke="#344154" stroke-miterlimit="10" stroke-width="3"/><path d="M384.72,353.65a8.06,8.06,0,0,0-11.27,11.27" transform="translate(-102.02 -300.38)" fill="none" stroke="#344154" stroke-miterlimit="10" stroke-width="3"/><path d="M363.49,374.88a8.06,8.06,0,0,0-11.27,11.27" transform="translate(-102.02 -300.38)" fill="none" stroke="#344154" stroke-miterlimit="10" stroke-width="3"/><path d="M365.1,334a8.06,8.06,0,0,0-11.27,11.27" transform="translate(-102.02 -300.38)" fill="none" stroke="#344154" stroke-miterlimit="10" stroke-width="3"/><path d="M360.55,356.18a8.06,8.06,0,0,0-11.27,11.27" transform="translate(-102.02 -300.38)" fill="none" stroke="#344154" stroke-miterlimit="10" stroke-width="3"/><circle cx="281.85" cy="64.9" r="50.64" fill="none" stroke="#344154" stroke-miterlimit="10" stroke-width="3"/><path d="M383.87,405.33a40,40,0,0,0,40-40" transform="translate(-102.02 -300.38)" fill="none" stroke="#344154" stroke-miterlimit="10" stroke-width="3"/><path d="M374.77,342A8.06,8.06,0,0,1,386,330.7" transform="translate(-102.02 -300.38)" fill="none" stroke="#344154" stroke-miterlimit="10" stroke-width="3"/><path d="M1012.77,1281.17l31.24-1.28a11.46,11.46,0,0,0,10.44-8l1.37-4.26,7.91-24.66a2.63,2.63,0,0,0-1.7-3.31l-4.67-1.5a2.63,2.63,0,0,0-3.31,1.7l-6.74,21a3.83,3.83,0,0,1-4.82,2.48l-25-8a8.47,8.47,0,0,0-10.65,5.48l-2.83,8.84A8.78,8.78,0,0,0,1012.77,1281.17Z" transform="translate(-102.02 -300.38)" fill="none" stroke="#344154" stroke-miterlimit="10" stroke-width="3"/><path d="M1082.2,1168.75h0a2.74,2.74,0,0,0-3.44,1.77l-21.67,67.6,5.21,1.67,21.67-67.6A2.74,2.74,0,0,0,1082.2,1168.75Z" transform="translate(-102.02 -300.38)" fill="none" stroke="#344154" stroke-miterlimit="10" stroke-width="3"/><path d="M554.92,556.45c6.9,4.36,20.65,9.41,38.79-2.18a6.28,6.28,0,0,1,7.33.43c3.32,2.69,8.6,6.83,14.45,10.88a72.72,72.72,0,0,0,37,12.82l3.06,0.19a9.42,9.42,0,0,1,8.92,8.72q0,0.3,0,.6v6.2s-29.16,14.08-63,6.2c0,0-14.41-4.69-22.12-4.69v7.09s-27.48.79-34.69-3.74V586.73S541,571,545.68,559.31A6.29,6.29,0,0,1,554.92,556.45Z" transform="translate(-102.02 -300.38)" fill="none" stroke="#344154" stroke-miterlimit="10" stroke-width="3"/><path d="M544.63,586.73s4.86,3.52,20.45,3.52" transform="translate(-102.02 -300.38)" fill="none" stroke="#344154" stroke-miterlimit="10" stroke-width="3"/><path d="M664.43,587.3s-13.31,8.65-34.17,8.65" transform="translate(-102.02 -300.38)" fill="none" stroke="#344154" stroke-miterlimit="10" stroke-width="3"/><line x1="498.81" y1="267.52" x2="505.62" y2="259.49" fill="none" stroke="#344154" stroke-miterlimit="10" stroke-width="3"/><line x1="506.41" y1="272.77" x2="512.5" y2="264.52" fill="none" stroke="#344154" stroke-miterlimit="10" stroke-width="3"/><path d="M579.68,560.44a254.37,254.37,0,0,0,31.12,22,13.9,13.9,0,0,1,5.63,6.09c1.74,3.78,2.09,9.12-5.79,13.4" transform="translate(-102.02 -300.38)" fill="none" stroke="#344154" stroke-miterlimit="10" stroke-width="3"/><line x1="520.18" y1="269.06" x2="514.41" y2="277.64" fill="none" stroke="#344154" stroke-miterlimit="10" stroke-width="3"/><path d="M545.26,560.44s16.2,13.29,43.27,7" transform="translate(-102.02 -300.38)" fill="none" stroke="#344154" stroke-miterlimit="10" stroke-width="3"/><path d="M193,739.43H134.75s-4.7,33.36,20.1,58.81h18C197.69,772.79,193,739.43,193,739.43Z" transform="translate(-102.02 -300.38)" fill="none" stroke="#344154" stroke-miterlimit="10" stroke-width="3"/><path d="M134.52,750.52H113.39s2.15,28.76,28.3,28.76" transform="translate(-102.02 -300.38)" fill="none" stroke="#344154" stroke-miterlimit="10" stroke-width="3"/><path d="M135.06,756.36H120.54a32.72,32.72,0,0,0,2.52,6.09c3.62,6.65,8.92,10.23,16.15,10.88" transform="translate(-102.02 -300.38)" fill="none" stroke="#344154" stroke-miterlimit="10" stroke-width="3"/><path d="M193.22,750.52h21.13s-2.15,28.76-28.3,28.76" transform="translate(-102.02 -300.38)" fill="none" stroke="#344154" stroke-miterlimit="10" stroke-width="3"/><path d="M192.67,756.36H207.2a32.72,32.72,0,0,1-2.52,6.09c-3.62,6.65-8.92,10.23-16.15,10.88" transform="translate(-102.02 -300.38)" fill="none" stroke="#344154" stroke-miterlimit="10" stroke-width="3"/><path d="M180.22,834.14a11.9,11.9,0,0,0-3.53-3.57c-3.52-2.26-7.36-6-7.91-10.43a19.18,19.18,0,0,1,4.43-14.33l-0.33-7.57h-18l-0.33,7.57A19.18,19.18,0,0,1,159,820.14c-0.56,4.41-4.39,8.17-7.91,10.43a11.9,11.9,0,0,0-3.53,3.57,17.19,17.19,0,0,0-2.64,10h38A17.19,17.19,0,0,0,180.22,834.14Z" transform="translate(-102.02 -300.38)" fill="none" stroke="#344154" stroke-miterlimit="10" stroke-width="3"/><path d="M187.16,844.1H140.58a6.74,6.74,0,0,0-6.74,6.74H193.9A6.74,6.74,0,0,0,187.16,844.1Z" transform="translate(-102.02 -300.38)" fill="none" stroke="#344154" stroke-miterlimit="10" stroke-width="3"/><path d="M192.13,850.83H135.61a6.74,6.74,0,0,0-6.74,6.74h70A6.74,6.74,0,0,0,192.13,850.83Z" transform="translate(-102.02 -300.38)" fill="none" stroke="#344154" stroke-miterlimit="10" stroke-width="3"/><path d="M417.34,556.6a5.25,5.25,0,0,0-7.35,7.35" transform="translate(-102.02 -300.38)" fill="none" stroke="#344154" stroke-miterlimit="10" stroke-width="3"/><path d="M403.51,570.44a5.25,5.25,0,0,0-7.35,7.35" transform="translate(-102.02 -300.38)" fill="none" stroke="#344154" stroke-miterlimit="10" stroke-width="3"/><path d="M389.67,584.27a5.25,5.25,0,0,0-7.35,7.35" transform="translate(-102.02 -300.38)" fill="none" stroke="#344154" stroke-miterlimit="10" stroke-width="3"/><path d="M390.72,557.65a5.25,5.25,0,0,0-7.35,7.35" transform="translate(-102.02 -300.38)" fill="none" stroke="#344154" stroke-miterlimit="10" stroke-width="3"/><path d="M387.76,572.09a5.25,5.25,0,0,0-7.35,7.35" transform="translate(-102.02 -300.38)" fill="none" stroke="#344154" stroke-miterlimit="10" stroke-width="3"/><circle cx="300.93" cy="277.64" r="33" fill="none" stroke="#344154" stroke-miterlimit="10" stroke-width="3"/><path d="M397,562.83a5.25,5.25,0,0,1,7.35-7.35" transform="translate(-102.02 -300.38)" fill="none" stroke="#344154" stroke-miterlimit="10" stroke-width="3"/><line x1="300.93" y1="244.64" x2="241.27" y2="244.64" fill="none" stroke="#344154" stroke-miterlimit="10" stroke-width="3"/><line x1="257.52" y1="255.19" x2="276.75" y2="255.19" fill="none" stroke="#344154" stroke-miterlimit="10" stroke-width="3"/><line x1="304.22" y1="310.47" x2="261.52" y2="310.47" fill="none" stroke="#344154" stroke-miterlimit="10" stroke-width="3"/><line x1="229.77" y1="297.9" x2="264.77" y2="297.9" fill="none" stroke="#344154" stroke-miterlimit="10" stroke-width="3"/><path d="M361.39,811.84c-16.58,0-27,10.56-27,18.42,0,11.77,24.39,21.32,54.48,21.32,17.57,0,33.19-3.25,43.15-8.3a2.49,2.49,0,0,0-.74-4.67A92.08,92.08,0,0,1,416.35,835c-4-1.36-8.5-3.05-11.3-6.36a6.65,6.65,0,0,1-1.55-3c-0.44-2.28.89-4.59,2.67-6.09a33.49,33.49,0,0,1,6-3.48,4.75,4.75,0,0,0,1.66-1.26,2.66,2.66,0,0,0-.73-3.7,5.14,5.14,0,0,0-2.49-.53c-5.68-.23-28.43-0.12-34.13,0-3.14,0-6.27.09-9.41,0.09" transform="translate(-102.02 -300.38)" fill="none" stroke="#344154" stroke-miterlimit="10" stroke-width="3"/><line x1="265.08" y1="529.88" x2="265.08" y2="445.03" fill="none" stroke="#344154" stroke-miterlimit="10" stroke-width="3"/><rect x="265.08" y="445.03" width="49.74" height="32.73" fill="none" stroke="#344154" stroke-miterlimit="10" stroke-width="3"/><line x1="265.08" y1="461.4" x2="314.83" y2="461.4" fill="none" stroke="#344154" stroke-miterlimit="10" stroke-width="3"/><polyline points="488.56 550.22 488.56 506.57 463.03 506.57 463.03 550.22" fill="none" stroke="#344154" stroke-miterlimit="10" stroke-width="3"/><line x1="475.8" y1="506.57" x2="475.8" y2="550.22" fill="none" stroke="#344154" stroke-miterlimit="10" stroke-width="3"/><circle cx="475.8" cy="453.98" r="7.97" fill="none" stroke="#344154" stroke-miterlimit="10" stroke-width="3"/><line x1="475.8" y1="471.28" x2="475.8" y2="495.51" fill="none" stroke="#344154" stroke-miterlimit="10" stroke-width="3"/><polyline points="488.56 487.49 488.56 506.57 463.03 506.57 463.03 487.49" fill="none" stroke="#344154" stroke-miterlimit="10" stroke-width="3"/><path d="M563.88,771.67h20.55a18.44,18.44,0,0,1,12.66,5h0c12,12,19.9-6.1,19.9-6.1" transform="translate(-102.02 -300.38)" fill="none" stroke="#344154" stroke-miterlimit="10" stroke-width="3"/><path d="M563.88,771.67h0c-5.87,0-9,4.76-9,10.63V807" transform="translate(-102.02 -300.38)" fill="none" stroke="#344154" stroke-miterlimit="10" stroke-width="3"/><line x1="514.97" y1="448.22" x2="514.97" y2="550.22" fill="none" stroke="#344154" stroke-miterlimit="10" stroke-width="3"/><rect x="514.97" y="448.22" width="35.88" height="21.99" fill="none" stroke="#344154" stroke-miterlimit="10" stroke-width="3"/><line x1="514.97" y1="459.22" x2="550.85" y2="459.22" fill="none" stroke="#344154" stroke-miterlimit="10" stroke-width="3"/><circle cx="457.25" cy="97.53" r="10.14" fill="none" stroke="#344154" stroke-miterlimit="10" stroke-width="3"/><circle cx="457.25" cy="97.53" r="3.79" fill="none" stroke="#344154" stroke-miterlimit="10" stroke-width="3"/><circle cx="541.09" cy="97.53" r="3.79" fill="none" stroke="#344154" stroke-miterlimit="10" stroke-width="3"/><circle cx="541.09" cy="97.53" r="10.14" fill="none" stroke="#344154" stroke-miterlimit="10" stroke-width="3"/><line x1="467.39" y1="97.53" x2="530.95" y2="97.53" fill="none" stroke="#344154" stroke-miterlimit="10" stroke-width="3"/><path d="M551.42,391.49l-3.69-3.69a4.25,4.25,0,0,1,0-6h0a8.17,8.17,0,0,1,5.78-2.39h8.6a17.32,17.32,0,0,1,15,8.69h0a8.43,8.43,0,0,0,7.31,4.23h34a6.52,6.52,0,0,0,4.61-1.91l3.1-3.1a30.78,30.78,0,0,1,21.77-9h4.74a8.62,8.62,0,0,1,8.62,8.62v11h-8" transform="translate(-102.02 -300.38)" fill="none" stroke="#344154" stroke-miterlimit="10" stroke-width="3"/><path d="M552.1,379.53s2.34-10.4,11.85-15A9.19,9.19,0,0,1,576.13,369l3.54,7.43-7,6.53" transform="translate(-102.02 -300.38)" fill="none" stroke="#344154" stroke-miterlimit="10" stroke-width="3"/><line x1="475.39" y1="71.34" x2="488.95" y2="61.23" fill="none" stroke="#344154" stroke-miterlimit="10" stroke-width="3"/><line x1="484.76" y1="54.91" x2="493.52" y2="66.88" fill="none" stroke="#344154" stroke-linecap="round" stroke-miterlimit="10" stroke-width="3"/><path d="M618.95,380.36l5.45-17.58a9.85,9.85,0,0,1,9.41-6.93h15.35V328.58" transform="translate(-102.02 -300.38)" fill="none" stroke="#344154" stroke-linecap="round" stroke-miterlimit="10" stroke-width="3"/><line x1="467.39" y1="63.48" x2="479.86" y2="28.2" fill="none" stroke="#344154" stroke-linecap="round" stroke-miterlimit="10" stroke-width="3"/><rect x="467.39" y="22.12" width="91.83" height="6.08" rx="2.41" ry="2.41" fill="none" stroke="#344154" stroke-linecap="round" stroke-miterlimit="10" stroke-width="3"/><line x1="547.15" y1="55.47" x2="547.15" y2="70.27" fill="none" stroke="#344154" stroke-linecap="round" stroke-miterlimit="10" stroke-width="3"/><path d="M623,390.41l3.1-3.1a30.78,30.78,0,0,1,21.77-9h4.74a8.58,8.58,0,0,1,3.19.62v-5.69a2.58,2.58,0,0,0-2.58-2.58H634.61a12.36,12.36,0,0,0-8.74,3.62l-4.27,4.27a8.8,8.8,0,0,1-6.23,2.58H606.1a6,6,0,0,0-6,6v5.15h18.36A6.52,6.52,0,0,0,623,390.41Z" transform="translate(-102.02 -300.38)" fill="none" stroke="#344154" stroke-miterlimit="10" stroke-width="3"/><line x1="474.63" y1="28.2" x2="467.39" y2="48.33" fill="none" stroke="#344154" stroke-linecap="round" stroke-miterlimit="10" stroke-width="3"/><polygon points="87.57 228.72 61.85 236.67 36.13 228.72 10.41 236.67 10.41 326.56 36.13 318.6 61.85 326.56 87.57 318.6 113.29 326.56 113.29 236.67 87.57 228.72" fill="none" stroke="#344154" stroke-linecap="round" stroke-miterlimit="10" stroke-width="3"/><line x1="36.13" y1="228.72" x2="36.13" y2="257.62" fill="none" stroke="#344154" stroke-linecap="round" stroke-miterlimit="10" stroke-width="3"/><line x1="61.85" y1="297.65" x2="61.85" y2="326.55" fill="none" stroke="#344154" stroke-linecap="round" stroke-miterlimit="10" stroke-width="3"/><line x1="87.57" y1="228.72" x2="87.57" y2="257.62" fill="none" stroke="#344154" stroke-linecap="round" stroke-miterlimit="10" stroke-width="3"/><path d="M118.15,578s14.64-8.47,20-8c7.54,0.67,18.19,15.15,25.72,16,6.11,0.69,23.28-8,23.28-8" transform="translate(-102.02 -300.38)" fill="none" stroke="#344154" stroke-miterlimit="10" stroke-width="3" stroke-dasharray="3 3"/><line x1="94.79" y1="272.26" x2="105.54" y2="283.01" fill="none" stroke="#344154" stroke-miterlimit="10" stroke-width="3"/><line x1="94.79" y1="283.01" x2="105.54" y2="272.26" fill="none" stroke="#344154" stroke-miterlimit="10" stroke-width="3"/><path d="M839.9,583.79c3.58,2.3,6,.19,7.61-1.54s2.5-4,3.54-6.06,2.35-4.22,4.39-5.37,5-1,6.35.95a4.92,4.92,0,0,1,.6,3.8,13.55,13.55,0,0,1-1.53,3.64,124.23,124.23,0,0,1-14.18,20.68,77.73,77.73,0,0,0-6.79,8.57,29.74,29.74,0,0,0-4.5,14.19v2.67H802c0-4.07,0-6.62-.34-10.39,0,0-1.72-28.79-10.37-50.78l-5.68-12.92a4.67,4.67,0,0,1,2.4-6.16h0a4.67,4.67,0,0,1,6.16,2.4l7.65,17.42a0.42,0.42,0,0,0,.81-0.21l-3.09-30.55a4.67,4.67,0,0,1,4.18-5.12h0a4.67,4.67,0,0,1,5.12,4.18l2.88,28.48a1.62,1.62,0,0,0,1.8,1.45h0.06a1.65,1.65,0,0,0,1.46-1.64v-33a4.67,4.67,0,0,1,4.67-4.67h0a4.67,4.67,0,0,1,4.67,4.67v32.94a1.67,1.67,0,0,0,1.48,1.66h0a1.62,1.62,0,0,0,1.8-1.45l2.88-28.48a4.67,4.67,0,0,1,5.12-4.18h0a4.67,4.67,0,0,1,4.18,5.12l-3.39,33.54s-1.12,12.66,3.41,16.11" transform="translate(-102.02 -300.38)" fill="none" stroke="#344154" stroke-linecap="round" stroke-miterlimit="10" stroke-width="3"/><path d="M800.92,604.94h21.71a5,5,0,0,1,5,5h0a5,5,0,0,1-5,5H802.3" transform="translate(-102.02 -300.38)" fill="none" stroke="#344154" stroke-linecap="round" stroke-miterlimit="10" stroke-width="3"/><circle cx="720.42" cy="309.56" r="0.91" fill="none" stroke="#344154" stroke-linecap="round" stroke-miterlimit="10" stroke-width="3"/><rect x="699.98" y="324.94" width="33.4" height="6.87" fill="none" stroke="#344154" stroke-linecap="round" stroke-miterlimit="10" stroke-width="3"/><path d="M840.68,748.54s7.07,23.32.91,106.22a0.64,0.64,0,0,1-.63.59h-12a0.63,0.63,0,0,1-.63-0.64c0.06-6.3-1.56-57.6-3.8-74.67a0.63,0.63,0,0,0-1.26,0c-2.24,17.07-3.86,68.37-3.8,74.67a0.63,0.63,0,0,1-.63.64h-12a0.64,0.64,0,0,1-.63-0.59c-6.16-82.9.91-106.22,0.91-106.22" transform="translate(-102.02 -300.38)" fill="none" stroke="#344154" stroke-linecap="round" stroke-miterlimit="10" stroke-width="3"/><line x1="721.85" y1="448.16" x2="721.85" y2="459.14" fill="none" stroke="#344154" stroke-linecap="round" stroke-miterlimit="10" stroke-width="3"/><rect x="717.47" y="441.26" width="8.75" height="6.89" fill="none" stroke="#344154" stroke-linecap="round" stroke-miterlimit="10" stroke-width="3"/><polygon points="721.85 441.26 705.04 441.26 705.04 448.16 721.85 448.16 738.66 448.16 738.66 441.26 721.85 441.26" fill="none" stroke="#344154" stroke-linecap="round" stroke-miterlimit="10" stroke-width="3"/><path d="M173.37,977.39a5.23,5.23,0,0,0-7.32,7.32" transform="translate(-102.02 -300.38)" fill="none" stroke="#344154" stroke-miterlimit="10" stroke-width="3"/><path d="M157.19,993.57a5.23,5.23,0,0,0-7.32,7.32" transform="translate(-102.02 -300.38)" fill="none" stroke="#344154" stroke-miterlimit="10" stroke-width="3"/><path d="M156.09,975.43a5.23,5.23,0,0,0-7.32,7.32" transform="translate(-102.02 -300.38)" fill="none" stroke="#344154" stroke-miterlimit="10" stroke-width="3"/><circle cx="61.85" cy="690.93" r="28.59" fill="none" stroke="#344154" stroke-miterlimit="10" stroke-width="3"/><path d="M181.66,1042.18a106.52,106.52,0,0,1-35.58,0c-1.83-.31-3.09-2.4-2.81-4.58h0c0.28-2.18,1.92-3.68,3.65-3.39a101.52,101.52,0,0,0,33.91,0c1.73-.29,3.37,1.2,3.65,3.39h0C184.75,1039.78,183.49,1041.87,181.66,1042.18Z" transform="translate(-102.02 -300.38)" fill="none" stroke="#344154" stroke-miterlimit="10" stroke-width="3"/><path d="M189.8,1032.15a99.28,99.28,0,0,1-51.86,0c-1.83-.49-3-2.71-2.56-4.85h0c0.42-2.15,2.15-3.47,3.87-3a94.26,94.26,0,0,0,49.24,0c1.72-.46,3.45.86,3.87,3h0C192.77,1029.44,191.63,1031.66,189.8,1032.15Z" transform="translate(-102.02 -300.38)" fill="none" stroke="#344154" stroke-miterlimit="10" stroke-width="3"/><path d="M153.86,1043.29l10,29.4,10-29.4A134.83,134.83,0,0,1,153.86,1043.29Z" transform="translate(-102.02 -300.38)" fill="none" stroke="#344154" stroke-miterlimit="10" stroke-width="3"/><path d="M323.2,1051.49a23,23,0,0,0,20.22-12.09,23,23,0,0,0,40.45,0,23,23,0,0,0,40.45,0,23,23,0,0,0,20.22,12.09" transform="translate(-102.02 -300.38)" fill="none" stroke="#344154" stroke-miterlimit="10" stroke-width="3"/><path d="M401.55,986.75a6.45,6.45,0,0,0-9,9" transform="translate(-102.02 -300.38)" fill="none" stroke="#344154" stroke-miterlimit="10" stroke-width="3"/><path d="M384.55,1003.75a6.45,6.45,0,0,0-9,9" transform="translate(-102.02 -300.38)" fill="none" stroke="#344154" stroke-miterlimit="10" stroke-width="3"/><path d="M367.56,1020.74a6.45,6.45,0,0,0-9,9" transform="translate(-102.02 -300.38)" fill="none" stroke="#344154" stroke-miterlimit="10" stroke-width="3"/><path d="M368.85,988a6.45,6.45,0,0,0-9,9" transform="translate(-102.02 -300.38)" fill="none" stroke="#344154" stroke-miterlimit="10" stroke-width="3"/><path d="M365.21,1005.78a6.45,6.45,0,0,0-9,9" transform="translate(-102.02 -300.38)" fill="none" stroke="#344154" stroke-miterlimit="10" stroke-width="3"/><path d="M376.58,994.4a6.45,6.45,0,0,1,9-9" transform="translate(-102.02 -300.38)" fill="none" stroke="#344154" stroke-miterlimit="10" stroke-width="3"/><path d="M369.12,1050.82a23,23,0,0,0,14.74-11.42,23,23,0,0,0,14.74,11.42A40.53,40.53,0,1,0,369.12,1050.82Z" transform="translate(-102.02 -300.38)" fill="none" stroke="#344154" stroke-miterlimit="10" stroke-width="3"/><path d="M113.32,1225.72l-0.2,8.28s8.55,4.76,15.73,3l1.91-5.63" transform="translate(-102.02 -300.38)" fill="none" stroke="#344154" stroke-miterlimit="10" stroke-width="3"/><path d="M132.89,1275.66l-1,7.27s18.83,3.59,32,3.59" transform="translate(-102.02 -300.38)" fill="none" stroke="#344154" stroke-miterlimit="10" stroke-width="3"/><path d="M210.73,1198.75a25.3,25.3,0,0,0-14.57-16.31,78.53,78.53,0,0,1-20.4-12.47H152a78.53,78.53,0,0,1-20.4,12.47A25.3,25.3,0,0,0,117,1198.75c-1.84,6.19-3.38,14.9-3.68,27,0,0,2.12,6.5,17.45,5.64l1-2.76a1.29,1.29,0,0,1,2.42,0c1.64,4.45,3.47,16.34-1.32,47.06,0,0,8.64,4.1,31,4.1s31-4.1,31-4.1c-4.79-30.72-3-42.61-1.32-47.06a1.29,1.29,0,0,1,2.42,0l1,2.76c15.33,0.86,17.45-5.64,17.45-5.64C214.12,1213.65,212.57,1204.94,210.73,1198.75Z" transform="translate(-102.02 -300.38)" fill="none" stroke="#344154" stroke-miterlimit="10" stroke-width="3"/><path d="M194.85,1275.66l1,7.27s-18.83,3.59-32,3.59" transform="translate(-102.02 -300.38)" fill="none" stroke="#344154" stroke-miterlimit="10" stroke-width="3"/><path d="M175.77,1170s3.06,15.68-11.9,28.33C148.9,1185.65,152,1170,152,1170" transform="translate(-102.02 -300.38)" fill="none" stroke="#344154" stroke-miterlimit="10" stroke-width="3"/><path d="M214.41,1225.72l0.2,8.28s-8.55,4.76-15.73,3l-1.91-5.63" transform="translate(-102.02 -300.38)" fill="none" stroke="#344154" stroke-miterlimit="10" stroke-width="3"/><line x1="61.85" y1="979.38" x2="61.85" y2="897.92" fill="none" stroke="#344154" stroke-miterlimit="10" stroke-width="3"/><rect x="571.76" y="995.07" width="35.11" height="73.3" rx="7.33" ry="7.33" transform="translate(320.83 -445.11) rotate(21.68)" fill="none" stroke="#344154" stroke-miterlimit="10" stroke-width="3"/><path d="M605.34,1018.89h2a6.33,6.33,0,0,1,6.33,6.33v29a6.33,6.33,0,0,1-6.33,6.33h-2a0,0,0,0,1,0,0v-41.7A0,0,0,0,1,605.34,1018.89Z" transform="translate(325.21 -452) rotate(21.68)" fill="none" stroke="#344154" stroke-miterlimit="10" stroke-width="3"/><line x1="487.56" y1="709" x2="472.16" y2="747.75" fill="none" stroke="#344154" stroke-miterlimit="10" stroke-width="3"/><path d="M568.81,1069l9.84,3.91a2.3,2.3,0,0,0,2.57-.6l3.53-3.26L567,1062l0.33,4.79A2.3,2.3,0,0,0,568.81,1069Z" transform="translate(-102.02 -300.38)" fill="none" stroke="#344154" stroke-miterlimit="10" stroke-width="3"/><line x1="508.69" y1="700.4" x2="515.79" y2="682.55" fill="none" stroke="#344154" stroke-miterlimit="10" stroke-width="3"/><line x1="500.18" y1="697.01" x2="513.07" y2="664.59" fill="none" stroke="#344154" stroke-miterlimit="10" stroke-width="3"/><line x1="491.72" y1="693.65" x2="498.81" y2="675.8" fill="none" stroke="#344154" stroke-miterlimit="10" stroke-width="3"/><path d="M624.35,991l-3.86-1.53a4.37,4.37,0,1,1,3.2-8.06l3.86,1.53A4.37,4.37,0,1,1,624.35,991Z" transform="translate(-102.02 -300.38)" fill="none" stroke="#344154" stroke-miterlimit="10" stroke-width="3"/><path d="M621.89,972.34L618,970.8a4.37,4.37,0,1,1,3.2-8.06l3.86,1.53A4.37,4.37,0,1,1,621.89,972.34Z" transform="translate(-102.02 -300.38)" fill="none" stroke="#344154" stroke-miterlimit="10" stroke-width="3"/><path d="M594.68,978.41l-3.86-1.53a4.37,4.37,0,1,1,3.2-8.06l3.86,1.53A4.37,4.37,0,1,1,594.68,978.41Z" transform="translate(-102.02 -300.38)" fill="none" stroke="#344154" stroke-miterlimit="10" stroke-width="3"/><path d="M611,1047.21l18.21,23.21A1.62,1.62,0,0,1,628,1073h-6.8" transform="translate(-102.02 -300.38)" fill="none" stroke="#344154" stroke-linecap="round" stroke-miterlimit="10" stroke-width="3"/><path d="M616.6,1033.21l29.14,37.21a1.63,1.63,0,0,1-1.28,2.63h-6.81" transform="translate(-102.02 -300.38)" fill="none" stroke="#344154" stroke-linecap="round" stroke-miterlimit="10" stroke-width="3"/><path d="M823.87,1035.52c9.59,0,28.08,4.32,28.08,4.32-4.46-50.36-28.08-64-28.08-64s-23.63,13.64-28.08,64C795.78,1039.84,814.28,1035.52,823.87,1035.52Z" transform="translate(-102.02 -300.38)" fill="none" stroke="#344154" stroke-linejoin="round" stroke-width="3"/><path d="M823.87,975.85s-45.63-2.93-62.24,43.75c0,0,26.06,4.32,34.16,20.25C800.24,989.48,823.87,975.85,823.87,975.85Z" transform="translate(-102.02 -300.38)" fill="none" stroke="#344154" stroke-linejoin="round" stroke-width="3"/><path d="M823.87,975.85s45.63-2.93,62.24,43.75c0,0-26.06,4.32-34.16,20.25C847.5,989.48,823.87,975.85,823.87,975.85Z" transform="translate(-102.02 -300.38)" fill="none" stroke="#344154" stroke-linejoin="round" stroke-width="3"/><line x1="721.85" y1="735.14" x2="721.85" y2="749.84" fill="none" stroke="#344154" stroke-miterlimit="10" stroke-width="3"/><rect x="719.8" y="749.84" width="4.11" height="14.48" rx="1.79" ry="1.79" fill="none" stroke="#344154" stroke-miterlimit="10" stroke-width="3"/><line x1="721.85" y1="675.46" x2="721.85" y2="670.32" fill="none" stroke="#344154" stroke-linecap="round" stroke-linejoin="round" stroke-width="3"/><path d="M618.08,1231.14s-6.56-5.89-14.2-5.89-14.2,5.89-14.2,5.89" transform="translate(-102.02 -300.38)" fill="none" stroke="#344154" stroke-miterlimit="10" stroke-width="3"/><path d="M547,1225.25l17.52-24.64a13.34,13.34,0,0,1,15.32-4.84h0" transform="translate(-102.02 -300.38)" fill="none" stroke="#344154" stroke-linecap="round" stroke-miterlimit="10" stroke-width="3"/><path d="M660.73,1225.25l-17.52-24.64a13.34,13.34,0,0,0-15.32-4.84h0" transform="translate(-102.02 -300.38)" fill="none" stroke="#344154" stroke-linecap="round" stroke-miterlimit="10" stroke-width="3"/><path d="M573.24,1219.7H559.81a17.54,17.54,0,0,0,0,35.09h13.43A17.54,17.54,0,1,0,573.24,1219.7Z" transform="translate(-102.02 -300.38)" fill="none" stroke="#344154" stroke-linecap="round" stroke-miterlimit="10" stroke-width="3"/><path d="M647.93,1219.7H634.5a17.54,17.54,0,0,0,0,35.09h13.43A17.54,17.54,0,0,0,647.93,1219.7Z" transform="translate(-102.02 -300.38)" fill="none" stroke="#344154" stroke-linecap="round" stroke-miterlimit="10" stroke-width="3"/><line x1="455.03" y1="947.83" x2="473.98" y2="947.83" fill="none" stroke="#344154" stroke-linecap="round" stroke-miterlimit="10" stroke-width="3"/><line x1="529.72" y1="947.83" x2="548.67" y2="947.83" fill="none" stroke="#344154" stroke-linecap="round" stroke-miterlimit="10" stroke-width="3"/><rect x="824.43" y="1199.4" width="24.42" height="50.98" rx="7.33" ry="7.33" transform="translate(-77.03 -317.08) rotate(1.16)" fill="none" stroke="#344154" stroke-miterlimit="10" stroke-width="3"/><path d="M848.55,1239.64h0l0.59-29h0a5.8,5.8,0,0,1,5.68,5.92l-0.35,17.4A5.8,5.8,0,0,1,848.55,1239.64Z" transform="translate(-102.02 -300.38)" fill="none" stroke="#344154" stroke-miterlimit="10" stroke-width="3"/><line x1="729.34" y1="909.9" x2="728.76" y2="938.89" fill="none" stroke="#344154" stroke-miterlimit="10" stroke-width="3"/><line x1="741.01" y1="899.14" x2="741.28" y2="885.79" fill="none" stroke="#344154" stroke-miterlimit="10" stroke-width="3"/><line x1="734.64" y1="899.01" x2="735.13" y2="874.75" fill="none" stroke="#344154" stroke-miterlimit="10" stroke-width="3"/><line x1="728.31" y1="898.88" x2="728.58" y2="885.53" fill="none" stroke="#344154" stroke-miterlimit="10" stroke-width="3"/><path d="M849.52,1189.81l-2.89-.06a3,3,0,1,1,.12-6l2.89,0.06A3,3,0,1,1,849.52,1189.81Z" transform="translate(-102.02 -300.38)" fill="none" stroke="#344154" stroke-miterlimit="10" stroke-width="3"/><path d="M843.38,1178.27l-2.89-.06a3,3,0,1,1,.12-6l2.89,0.06A3,3,0,1,1,843.38,1178.27Z" transform="translate(-102.02 -300.38)" fill="none" stroke="#344154" stroke-miterlimit="10" stroke-width="3"/><path d="M827.13,1188.86l-2.89-.06a3,3,0,1,1,.12-6l2.89,0.06A3,3,0,1,1,827.13,1188.86Z" transform="translate(-102.02 -300.38)" fill="none" stroke="#344154" stroke-miterlimit="10" stroke-width="3"/><circle cx="762.98" cy="969.64" r="9.5" fill="none" stroke="#344154" stroke-miterlimit="10" stroke-width="3"/><circle cx="698.64" cy="964.14" r="3.99" fill="none" stroke="#344154" stroke-miterlimit="10" stroke-width="3"/><path d="M857.26,1264.53H821a20.35,20.35,0,1,0-40.71,0" transform="translate(-102.02 -300.38)" fill="none" stroke="#344154" stroke-miterlimit="10" stroke-width="3"/><circle cx="698.64" cy="964.14" r="15" fill="none" stroke="#344154" stroke-miterlimit="10" stroke-width="3"/><path d="M792.63,1245.82v-41.43a27,27,0,0,0-7.92-19.12L774,1174.53a2.5,2.5,0,0,1,.14-3.67h0a2.5,2.5,0,0,1,3.39.13L791,1184.47" transform="translate(-102.02 -300.38)" fill="none" stroke="#344154" stroke-miterlimit="10" stroke-width="3"/><path d="M815.21,1250.3l39.61,0a10.2,10.2,0,0,1,10.18,10.2h0" transform="translate(-102.02 -300.38)" fill="none" stroke="#344154" stroke-miterlimit="10" stroke-width="3"/><line x1="696.76" y1="943.79" x2="696.76" y2="906.25" fill="none" stroke="#344154" stroke-miterlimit="10" stroke-width="3"/><path d="M792.51,360.81s14.37-30.27,44-31.88a43.89,43.89,0,0,1,39,19.23c6.13,9.21,10,22.74,3.06,41A13,13,0,0,1,861,396.36a179,179,0,0,1-38.39-23.57,65.32,65.32,0,0,0-15.79-9.53C801.73,361.1,796.13,359.51,792.51,360.81Z" transform="translate(-102.02 -300.38)" fill="none" stroke="#344154" stroke-miterlimit="10" stroke-width="3"/><path d="M792.51,360.81l-26.85,8.89a0.29,0.29,0,0,0,.12.56c5.06-.37,16.07.68,27.31,13.82a42,42,0,0,1,3.67,5.21c3.66,5.9,19,24.35,51.49.66" transform="translate(-102.02 -300.38)" fill="none" stroke="#344154" stroke-miterlimit="10" stroke-width="3"/><path d="M807.68,363.63s22.35-37.85,49-31.09" transform="translate(-102.02 -300.38)" fill="none" stroke="#344154" stroke-miterlimit="10" stroke-width="3"/><path d="M848.25,390S872.37,357,860.33,334.3" transform="translate(-102.02 -300.38)" fill="none" stroke="#344154" stroke-miterlimit="10" stroke-width="3"/><path d="M1028.89,318a3.27,3.27,0,0,0-4.57,4.57" transform="translate(-102.02 -300.38)" fill="none" stroke="#344154" stroke-miterlimit="10" stroke-width="3"/><path d="M1018.79,328.14a3.27,3.27,0,0,0-4.57,4.57" transform="translate(-102.02 -300.38)" fill="none" stroke="#344154" stroke-miterlimit="10" stroke-width="3"/><path d="M1018.1,316.82a3.27,3.27,0,0,0-4.57,4.57" transform="translate(-102.02 -300.38)" fill="none" stroke="#344154" stroke-miterlimit="10" stroke-width="3"/><circle cx="920.94" cy="26.35" r="17.84" fill="none" stroke="#344154" stroke-miterlimit="10" stroke-width="3"/><path d="M1038.11,354a116.69,116.69,0,0,1-30.31,0,3,3,0,0,1-2.64-3.37h0a3.05,3.05,0,0,1,3.41-2.5,110.78,110.78,0,0,0,28.77,0,3.05,3.05,0,0,1,3.41,2.5h0A3,3,0,0,1,1038.11,354Z" transform="translate(-102.02 -300.38)" fill="none" stroke="#344154" stroke-miterlimit="10" stroke-width="3"/><polygon points="916.29 68.32 916.29 111.47 920.94 121.3 925.59 111.47 925.59 68.32 916.29 68.32" fill="none" stroke="#344154" stroke-miterlimit="10" stroke-width="3"/><path d="M1031.27,354.68v9.54a4.48,4.48,0,0,1-4.48,4.48h-7.67a4.48,4.48,0,0,1-4.48-4.48v-9.54" transform="translate(-102.02 -300.38)" fill="none" stroke="#344154" stroke-miterlimit="10" stroke-width="3"/><path d="M1080.82,353a63.58,63.58,0,0,1-20.43,0,2.44,2.44,0,0,1-1.78-2.82h0a2.17,2.17,0,0,1,2.3-2.09,60.36,60.36,0,0,0,19.4,0,2.17,2.17,0,0,1,2.3,2.09h0A2.44,2.44,0,0,1,1080.82,353Z" transform="translate(-102.02 -300.38)" fill="none" stroke="#344154" stroke-miterlimit="10" stroke-width="3"/><path d="M1067.47,363.1v21.76a32.65,32.65,0,0,0,3.13,14h0a32.65,32.65,0,0,0,3.13-14V363.1h-6.27Z" transform="translate(-102.02 -300.38)" fill="none" stroke="#344154" stroke-miterlimit="10" stroke-width="3"/><path d="M1076.21,353.65v6.43a3,3,0,0,1-3,3H1068a3,3,0,0,1-3-3v-6.43" transform="translate(-102.02 -300.38)" fill="none" stroke="#344154" stroke-miterlimit="10" stroke-width="3"/><path d="M1006.4,1024.92a4.77,4.77,0,1,0,4.77,4.77" transform="translate(-102.02 -300.38)" fill="none" stroke="#344154" stroke-miterlimit="10" stroke-width="3"/><line x1="904.38" y1="729.3" x2="904.38" y2="680.6" fill="none" stroke="#344154" stroke-miterlimit="10" stroke-width="3"/><line x1="916.14" y1="729.3" x2="967.56" y2="729.3" fill="none" stroke="#344154" stroke-miterlimit="10" stroke-width="3" stroke-dasharray="3 3"/><path d="M1081,1005a24.66,24.66,0,0,0-13.23,2.94,46.72,46.72,0,0,1-22.25,5.87h-3.38a46.72,46.72,0,0,1-22.25-5.87,24.74,24.74,0,1,0,.44,43.28,44.59,44.59,0,0,1,22.08-5.63h2.85a44.59,44.59,0,0,1,22.08,5.63A24.74,24.74,0,1,0,1081,1005Z" transform="translate(-102.02 -300.38)" fill="none" stroke="#344154" stroke-miterlimit="10" stroke-width="3"/><circle cx="977.83" cy="729.3" r="3.67" fill="none" stroke="#344154" stroke-miterlimit="10" stroke-width="3"/><polygon points="904.38 692.37 904.38 680.6 916.14 686.48 904.38 692.37" fill="none" stroke="#344154" stroke-miterlimit="10" stroke-width="3"/><path d="M1088.22,563.36a4.5,4.5,0,0,0-6.29,6.29" transform="translate(-102.02 -300.38)" fill="none" stroke="#344154" stroke-miterlimit="10" stroke-width="3"/><path d="M1076.37,575.21a4.5,4.5,0,0,0-6.29,6.29" transform="translate(-102.02 -300.38)" fill="none" stroke="#344154" stroke-miterlimit="10" stroke-width="3"/><path d="M1064.51,587.07a4.5,4.5,0,0,0-6.29,6.29" transform="translate(-102.02 -300.38)" fill="none" stroke="#344154" stroke-miterlimit="10" stroke-width="3"/><path d="M1065.41,564.26a4.5,4.5,0,0,0-6.29,6.29" transform="translate(-102.02 -300.38)" fill="none" stroke="#344154" stroke-miterlimit="10" stroke-width="3"/><path d="M1062.87,576.63a4.5,4.5,0,0,0-6.29,6.29" transform="translate(-102.02 -300.38)" fill="none" stroke="#344154" stroke-miterlimit="10" stroke-width="3"/><circle cx="973.87" cy="281.33" r="28.27" fill="none" stroke="#344154" stroke-miterlimit="10" stroke-width="3"/><path d="M1070.81,568.69a4.5,4.5,0,0,1,6.29-6.29" transform="translate(-102.02 -300.38)" fill="none" stroke="#344154" stroke-miterlimit="10" stroke-width="3"/><polyline points="908.5 258.35 908.5 314.9 900.15 314.9 900.15 258.35" fill="none" stroke="#344154" stroke-miterlimit="10" stroke-width="3"/><path d="M1010.52,615.28h-8.35l-0.25.4a18.79,18.79,0,0,0-2.77,9.82h0a18.79,18.79,0,0,0,2.77,9.82l0.25,0.4h8.35l0.25-.4a18.79,18.79,0,0,0,2.77-9.82h0a18.79,18.79,0,0,0-2.77-9.82Z" transform="translate(-102.02 -300.38)" fill="none" stroke="#344154" stroke-miterlimit="10" stroke-width="3"/><path d="M1006.34,520.31a80.17,80.17,0,0,0-22.77,3.14v4.61a6,6,0,0,0,6,6h1.21a8.68,8.68,0,0,1,8.68,8.68v11.7s0.5,5.41,6.92,5.41,6.92-5.41,6.92-5.41V542.7a8.68,8.68,0,0,1,8.68-8.68h1.21a6,6,0,0,0,6-6v-4.61A80.17,80.17,0,0,0,1006.34,520.31Z" transform="translate(-102.02 -300.38)" fill="none" stroke="#344154" stroke-miterlimit="10" stroke-width="3"/><path d="M1005.49,781.63h-14l-6.65-25.76a3.61,3.61,0,0,1,3.5-4.51h20.3a3.61,3.61,0,0,1,3.5,4.51Z" transform="translate(-102.02 -300.38)" fill="none" stroke="#344154" stroke-miterlimit="10" stroke-width="3"/><path d="M998.5,735.16c-19.37,0-10.66,16.19-10.66,16.19l4.18,8.86a4.56,4.56,0,0,0,4.12,2.61h4.72a4.56,4.56,0,0,0,4.12-2.61l4.18-8.86s8.71-16.19-10.66-16.19" transform="translate(-102.02 -300.38)" fill="none" stroke="#344154" stroke-miterlimit="10" stroke-width="3"/><path d="M988.57,751.36s-4.13-11,9.93-11" transform="translate(-102.02 -300.38)" fill="none" stroke="#344154" stroke-miterlimit="10" stroke-width="3"/><path d="M1008.42,751.36s4.13-11-9.93-11" transform="translate(-102.02 -300.38)" fill="none" stroke="#344154" stroke-miterlimit="10" stroke-width="3"/><path d="M1006.08,781.63H990.91a2.38,2.38,0,0,0-2.38,2.38h0a2.38,2.38,0,0,0,2.38,2.38h15.18a2.38,2.38,0,0,0,2.38-2.38h0A2.38,2.38,0,0,0,1006.08,781.63Z" transform="translate(-102.02 -300.38)" fill="none" stroke="#344154" stroke-miterlimit="10" stroke-width="3"/><rect x="892.33" y="486.01" width="8.3" height="55.12" fill="none" stroke="#344154" stroke-miterlimit="10" stroke-width="3"/><path d="M1002.65,841.51h-8.3l-0.24.4a18.67,18.67,0,0,0-2.76,9.76h0a18.67,18.67,0,0,0,2.76,9.76l0.24,0.4h8.3l0.24-.4a18.67,18.67,0,0,0,2.76-9.76h0a18.67,18.67,0,0,0-2.76-9.76Z" transform="translate(-102.02 -300.38)" fill="none" stroke="#344154" stroke-miterlimit="10" stroke-width="3"/><path d="M1082.61,798.31a4.66,4.66,0,0,0-9.21,0" transform="translate(-102.02 -300.38)" fill="none" stroke="#344154" stroke-miterlimit="10" stroke-width="3"/><path d="M1058.69,798.31a4.66,4.66,0,0,0-9.21,0" transform="translate(-102.02 -300.38)" fill="none" stroke="#344154" stroke-miterlimit="10" stroke-width="3"/><path d="M1070.65,786.21a4.66,4.66,0,0,0-9.21,0" transform="translate(-102.02 -300.38)" fill="none" stroke="#344154" stroke-miterlimit="10" stroke-width="3"/><path d="M1029.09,823.76a21,21,0,0,0,18.48-11,21,21,0,0,0,37,0,21,21,0,0,0,18.48,11" transform="translate(-102.02 -300.38)" fill="none" stroke="#344154" stroke-miterlimit="10" stroke-width="3"/><path d="M1047.57,812.71a21,21,0,0,0,37,0,21.08,21.08,0,0,0,5,6.09,28.59,28.59,0,1,0-46.87,0A21.07,21.07,0,0,0,1047.57,812.71Z" transform="translate(-102.02 -300.38)" fill="none" stroke="#344154" stroke-miterlimit="10" stroke-width="3"/><circle cx="63.87" cy="22.04" r="8.8" fill="none" stroke="#344154" stroke-miterlimit="10" stroke-width="3"/><line x1="63.87" y1="41.15" x2="63.87" y2="67.89" fill="none" stroke="#344154" stroke-miterlimit="10" stroke-width="3"/><polyline points="77.96 59.04 77.96 80.11 63.87 80.11 63.87 128.3" fill="none" stroke="#344154" stroke-miterlimit="10" stroke-width="3"/><path d="M181.28,341.53H158.58a20.36,20.36,0,0,0-14,5.55h0c-13.2,13.2-17.79-15.15-17.79-15.15" transform="translate(-102.02 -300.38)" fill="none" stroke="#344154" stroke-miterlimit="10" stroke-width="3"/><path d="M181.28,341.53h0.19a7.22,7.22,0,0,1,5.07,1.8c8,8,4.93,21.32-2,18.86l-10.82-8.32" transform="translate(-102.02 -300.38)" fill="none" stroke="#344154" stroke-miterlimit="10" stroke-width="3"/><line x1="39.01" y1="28.09" x2="19.17" y2="32.92" fill="none" stroke="#344154" stroke-linecap="round" stroke-miterlimit="10" stroke-width="3"/><line x1="52.03" y1="24.92" x2="38.07" y2="28.32" fill="none" stroke="#344154" stroke-miterlimit="10" stroke-width="3"/><line x1="102.4" y1="12.76" x2="75.81" y2="19.25" fill="none" stroke="#344154" stroke-miterlimit="10" stroke-width="3"/><polyline points="48.82 42.68 48.82 73.81 48.82 80.11 63.87 80.11" fill="none" stroke="#344154" stroke-miterlimit="10" stroke-width="3"/><rect x="197.07" y="304.68" width="11.52" height="5.87" rx="2.66" ry="2.66" transform="translate(346.88 -267.03) rotate(75.3)" fill="none" stroke="#344154" stroke-miterlimit="10" stroke-width="3"/><line x1="48.82" y1="80.11" x2="48.82" y2="128.3" fill="none" stroke="#344154" stroke-miterlimit="10" stroke-width="3"/><line x1="77.96" y1="80.11" x2="77.96" y2="128.3" fill="none" stroke="#344154" stroke-miterlimit="10" stroke-width="3"/><path d="M125.09,330.49h3.46a1.31,1.31,0,0,1,1.31,1.31v0.27a1.3,1.3,0,0,1-1.3,1.3h-3.46a1.31,1.31,0,0,1-1.31-1.31V331.8A1.31,1.31,0,0,1,125.09,330.49Z" transform="translate(-178.08 -260.18) rotate(-13.91)" fill="none" stroke="#344154" stroke-miterlimit="10" stroke-width="3"/><circle cx="96.5" cy="116.02" r="3.17" fill="none" stroke="#344154" stroke-miterlimit="10" stroke-width="3"/><line x1="96.5" y1="128.05" x2="96.5" y2="122.17" fill="none" stroke="#344154" stroke-miterlimit="10" stroke-width="3"/><polygon points="1150.56 71.49 1162.24 71.49 1146.96 45.01 1155.36 45.01 1135.27 10.22 1115.19 45.01 1123.59 45.01 1108.3 71.49 1119.98 71.49 1101.75 103.06 1127.69 103.06 1127.69 119.58 1142.86 119.58 1142.86 103.06 1168.79 103.06 1150.56 71.49" fill="none" stroke="#344154" stroke-miterlimit="10" stroke-width="3"/><line x1="1127.69" y1="103.06" x2="1133.9" y2="103.06" fill="none" stroke="#344154" stroke-miterlimit="10" stroke-width="3"/><line x1="1135.27" y1="10.22" x2="1135.27" y2="29.58" fill="none" stroke="#344154" stroke-miterlimit="10" stroke-width="3"/><polyline points="1160.71 107.06 1160.71 119.58 1172.21 119.58 1172.21 107.06 1191.87 107.06 1178.05 83.13 1186.9 83.13 1175.32 63.06 1181.68 63.06 1166.46 36.7 1154.31 57.74" fill="none" stroke="#344154" stroke-miterlimit="10" stroke-width="3"/><polyline points="1109.83 107.06 1109.83 119.58 1098.34 119.58 1098.34 107.06 1078.68 107.06 1092.5 83.13 1083.64 83.13 1095.23 63.06 1088.86 63.06 1104.09 36.7 1116.24 57.74" fill="none" stroke="#344154" stroke-miterlimit="10" stroke-width="3"/><path d="M1211.56,630.62l29.21-1.19a10.71,10.71,0,0,0,9.76-7.43l1.28-4L1259.2,595a2.46,2.46,0,0,0-1.59-3.09l-4.36-1.4a2.46,2.46,0,0,0-3.09,1.59l-6.3,19.64a3.58,3.58,0,0,1-4.51,2.32L1216,606.54a7.92,7.92,0,0,0-10,5.12l-2.65,8.26A8.2,8.2,0,0,0,1211.56,630.62Z" transform="translate(-102.02 -300.38)" fill="none" stroke="#344154" stroke-miterlimit="10" stroke-width="3"/><path d="M1276.46,525.53h0a2.56,2.56,0,0,0-3.22,1.66L1253,590.39l4.87,1.56,20.26-63.19A2.56,2.56,0,0,0,1276.46,525.53Z" transform="translate(-102.02 -300.38)" fill="none" stroke="#344154" stroke-miterlimit="10" stroke-width="3"/><circle cx="1108.27" cy="277.64" r="13.94" fill="none" stroke="#344154" stroke-miterlimit="10" stroke-width="3"/><line x1="1100.24" y1="289.04" x2="1107.06" y2="307.2" fill="none" stroke="#344154" stroke-miterlimit="10" stroke-width="3"/><line x1="1118.33" y1="287.28" x2="1114.8" y2="302.27" fill="none" stroke="#344154" stroke-miterlimit="10" stroke-width="3"/><polyline points="1155.98 510.28 1168.21 487.46 1189.15 518.21" fill="none" stroke="#344154" stroke-miterlimit="10" stroke-width="3"/><polyline points="1118.89 502.78 1126.13 515.33 1135.27 499.5 1144.41 515.33 1151.66 502.79" fill="none" stroke="#344154" stroke-miterlimit="10" stroke-width="3"/><polyline points="1114.56 510.28 1102.34 487.46 1081.39 518.21" fill="none" stroke="#344154" stroke-miterlimit="10" stroke-width="3"/><polyline points="1097.37 540.07 1135.27 474.41 1173.18 540.07" fill="none" stroke="#344154" stroke-miterlimit="10" stroke-width="3"/><path d="M1237.29,1037c-27.06,0-49,6.83-49,15.26,0,6.27,12.14,11.65,29.5,14a19.54,19.54,0,0,1,39,0c17.36-2.35,29.5-7.73,29.5-14C1286.29,1043.81,1264.35,1037,1237.29,1037Z" transform="translate(-102.02 -300.38)" fill="none" stroke="#344154" stroke-miterlimit="10" stroke-width="3"/><path d="M1236,969.17a20.33,20.33,0,0,0-20.33,20.33c0,11.23,20.33,38.14,20.33,38.14s20.33-26.91,20.33-38.14A20.33,20.33,0,0,0,1236,969.17Zm0,32.47a12.38,12.38,0,1,1,12.38-12.38A12.38,12.38,0,0,1,1236,1001.64Z" transform="translate(-102.02 -300.38)" fill="none" stroke="#344154" stroke-miterlimit="10" stroke-width="3"/><line x1="1161.19" y1="960.12" x2="1109.35" y2="960.12" fill="none" stroke="#344154" stroke-miterlimit="10" stroke-width="3"/><line x1="1109.35" y1="882.35" x2="1161.19" y2="882.35" fill="none" stroke="#344154" stroke-miterlimit="10" stroke-width="3"/><rect x="1102.84" y="871.12" width="64.86" height="106.79" rx="7.47" ry="7.47" fill="none" stroke="#344154" stroke-miterlimit="10" stroke-width="3"/><circle cx="1135.27" cy="969.11" r="4.1" fill="none" stroke="#344154" stroke-miterlimit="10" stroke-width="3"/><path d="M1237.62,1234.21a10.92,10.92,0,0,1-4.22-.79,9.34,9.34,0,0,1-3.26-2.23,10.1,10.1,0,0,1-2.1-3.47,14.06,14.06,0,0,1,0-9.06,9.94,9.94,0,0,1,2.1-3.45,9.24,9.24,0,0,1,3.24-2.2,10.89,10.89,0,0,1,4.16-.77,11.29,11.29,0,0,1,3.56.55,9.29,9.29,0,0,1,2.91,1.55,7.89,7.89,0,0,1,3,5.59h-4.08a4.58,4.58,0,0,0-.48-1.75,3.93,3.93,0,0,0-1.09-1.3,4.91,4.91,0,0,0-1.63-.81,7.42,7.42,0,0,0-2.11-.28,6.35,6.35,0,0,0-2.53.49,5.37,5.37,0,0,0-2,1.44,6.73,6.73,0,0,0-1.28,2.33,10.08,10.08,0,0,0-.46,3.16,10,10,0,0,0,.46,3.14,6.88,6.88,0,0,0,1.28,2.34,5.51,5.51,0,0,0,2,1.47,6.18,6.18,0,0,0,2.54.51,8.91,8.91,0,0,0,3.4-.58,5.79,5.79,0,0,0,2.38-1.82V1226h-5.28v-3.66h9.2v11.49h-3.06l-0.51-1.53a7.5,7.5,0,0,1-2.63,1.4A11.86,11.86,0,0,1,1237.62,1234.21Z" transform="translate(-102.02 -300.38)" fill="#344154"/><line x1="1128.85" y1="876.8" x2="1141.7" y2="876.8" fill="none" stroke="#344154" stroke-miterlimit="10" stroke-width="3"/><circle cx="254.97" cy="911.15" r="17.34" fill="none" stroke="#344154" stroke-linecap="round" stroke-miterlimit="10" stroke-width="3"/><path d="M345.53,1211.54A11.45,11.45,0,0,1,357,1200.08" transform="translate(-102.02 -300.38)" fill="none" stroke="#344154" stroke-linecap="round" stroke-miterlimit="10" stroke-width="3"/><path d="M420.33,1223.79v-22.44c4-6,7.76-12.79,7.76-17.25a17.4,17.4,0,1,0-34.8,0c0,4.46,3.75,11.25,7.76,17.25v22.44l-2.65,2.9a12.11,12.11,0,0,0-3,10.38l8.24,44.45a1.9,1.9,0,0,0,1.51,1.56,1.84,1.84,0,0,0,2.16-1.92l-2.4-43.53a5.2,5.2,0,0,1,2.37-4.65h0a6.23,6.23,0,0,1,6.77,0h0a5.2,5.2,0,0,1,2.37,4.65l-2.39,43.45a1.9,1.9,0,0,0,1.44,2,1.84,1.84,0,0,0,2.2-1.47l8.25-44.53a12.11,12.11,0,0,0-3-10.38Zm-14.94-42.27a6,6,0,1,1-.73,2.88A6.06,6.06,0,0,1,405.39,1181.52Z" transform="translate(-102.02 -300.38)" fill="none" stroke="#344154" stroke-linecap="round" stroke-miterlimit="10" stroke-width="3"/><line x1="308.67" y1="921.44" x2="308.67" y2="900.87" fill="none" stroke="#344154" stroke-linecap="round" stroke-miterlimit="10" stroke-width="3"/><path d="M134.65,465.13a4.83,4.83,0,0,1-1.78,1.58,6.35,6.35,0,0,1-3.14.69,5.35,5.35,0,0,1-3.95-1.49,5.74,5.74,0,0,1-1.5-4.25V457a5.8,5.8,0,0,1,1.45-4.21,5.9,5.9,0,0,1,7.52-.27,4.28,4.28,0,0,1,1.25,3.35l0,0.06h-2.05a3.12,3.12,0,0,0-.71-2.19,2.68,2.68,0,0,0-2.08-.78,2.84,2.84,0,0,0-2.31,1,4.59,4.59,0,0,0-.84,3v4.66a4.64,4.64,0,0,0,.88,3,2.94,2.94,0,0,0,2.38,1,3.84,3.84,0,0,0,1.77-.34,2.36,2.36,0,0,0,1-.84v-3.64h-2.88v-1.59h5.07v5.8Z" transform="translate(-102.02 -300.38)" fill="#636363"/><path d="M150.27,461.51a6,6,0,0,1-1.5,4.33,5.35,5.35,0,0,1-4,1.55,5.2,5.2,0,0,1-4-1.55,6,6,0,0,1-1.47-4.33v-4.3a6.09,6.09,0,0,1,1.47-4.34,5.16,5.16,0,0,1,4-1.57,5.35,5.35,0,0,1,4,1.56,6,6,0,0,1,1.51,4.35v4.3Zm-2.17-4.33a4.76,4.76,0,0,0-.88-3.1,3.06,3.06,0,0,0-2.5-1.06,2.9,2.9,0,0,0-2.41,1.06,4.89,4.89,0,0,0-.84,3.1v4.33a4.93,4.93,0,0,0,.85,3.13,2.91,2.91,0,0,0,2.42,1.06,3,3,0,0,0,2.49-1.06,4.84,4.84,0,0,0,.87-3.13v-4.33Z" transform="translate(-102.02 -300.38)" fill="#636363"/><path d="M157.2,465.52h6.33v1.65H155V451.53h2.18v14Z" transform="translate(-102.02 -300.38)" fill="#636363"/><path d="M175.47,460.22H170v7h-2.18V451.53h8.59v1.68H170v5.35h5.47v1.67Z" transform="translate(-102.02 -300.38)" fill="#636363"/><path d="M188.13,459.91h-5.31v5.61h6.25v1.65h-8.43V451.53H189v1.68h-6.2v5h5.31v1.67Z" transform="translate(-102.02 -300.38)" fill="#636363"/><path d="M195.63,460.44v6.74h-2.18V451.54h4.61a4.91,4.91,0,0,1,3.49,1.15,4.29,4.29,0,0,1,1.23,3.3,4,4,0,0,1-.57,2.14,3.79,3.79,0,0,1-1.65,1.42,3,3,0,0,1,1.73,1.35,4.72,4.72,0,0,1,.53,2.34v1.36A6.12,6.12,0,0,0,203,466a1.88,1.88,0,0,0,.49,1v0.25h-2.25a1.86,1.86,0,0,1-.48-1.08,9.74,9.74,0,0,1-.11-1.5v-1.32a3.24,3.24,0,0,0-.61-2.07,2,2,0,0,0-1.68-.76h-2.7Zm0-1.67H198a2.56,2.56,0,0,0,2-.71,2.92,2.92,0,0,0,.64-2A3.13,3.13,0,0,0,200,454a2.36,2.36,0,0,0-1.91-.74h-2.43v5.56Z" transform="translate(-102.02 -300.38)" fill="#636363"/><path d="M337.56,466a4.83,4.83,0,0,1-1.78,1.58,6.35,6.35,0,0,1-3.14.69,5.35,5.35,0,0,1-3.95-1.49,5.74,5.74,0,0,1-1.5-4.25v-4.64a5.79,5.79,0,0,1,1.45-4.21,5.9,5.9,0,0,1,7.52-.27,4.28,4.28,0,0,1,1.25,3.35l0,0.06h-2.05a3.12,3.12,0,0,0-.71-2.19,2.68,2.68,0,0,0-2.08-.78,2.84,2.84,0,0,0-2.31,1,4.59,4.59,0,0,0-.84,3v4.66a4.64,4.64,0,0,0,.88,3,2.94,2.94,0,0,0,2.38,1,3.84,3.84,0,0,0,1.77-.34,2.36,2.36,0,0,0,1-.84v-3.64h-2.88v-1.59h5.07V466Z" transform="translate(-102.02 -300.38)" fill="#636363"/><path d="M353.18,462.35a6,6,0,0,1-1.5,4.33,5.35,5.35,0,0,1-4,1.55,5.2,5.2,0,0,1-4-1.55,6,6,0,0,1-1.47-4.33v-4.3a6.09,6.09,0,0,1,1.47-4.34,5.16,5.16,0,0,1,4-1.57,5.35,5.35,0,0,1,4,1.56,6,6,0,0,1,1.51,4.35v4.3ZM351,458a4.76,4.76,0,0,0-.88-3.1,3.06,3.06,0,0,0-2.5-1.06,2.9,2.9,0,0,0-2.41,1.06,4.89,4.89,0,0,0-.84,3.1v4.33a4.93,4.93,0,0,0,.85,3.13,2.91,2.91,0,0,0,2.42,1.06,3,3,0,0,0,2.49-1.06,4.84,4.84,0,0,0,.87-3.13V458Z" transform="translate(-102.02 -300.38)" fill="#636363"/><path d="M360.12,466.36h6.33V468h-8.51V452.37h2.18v14Z" transform="translate(-102.02 -300.38)" fill="#636363"/><path d="M378.39,461.07h-5.47v7h-2.18V452.37h8.59v1.68h-6.41v5.35h5.47v1.67Z" transform="translate(-102.02 -300.38)" fill="#636363"/><path d="M390.59,468V452.37h4.33a5.32,5.32,0,0,1,3.51,1.05,3.88,3.88,0,0,1,1.26,3.16,3.5,3.5,0,0,1-.55,1.94,3.2,3.2,0,0,1-1.53,1.25,3,3,0,0,1,2.1,1.29,4.34,4.34,0,0,1,.74,2.52,4.23,4.23,0,0,1-1.24,3.29,4.88,4.88,0,0,1-3.42,1.13h-5.2Zm2.18-8.86h2.48a2.22,2.22,0,0,0,1.65-.68,2.57,2.57,0,0,0-2-4.42h-2.15v5.1Zm0,1.57v5.64h3a2.33,2.33,0,0,0,1.83-.71,3,3,0,0,0,.64-2,3.17,3.17,0,0,0-.63-2.06,2.27,2.27,0,0,0-1.77-.82h-3.09Z" transform="translate(-102.02 -300.38)" fill="#636363"/><path d="M411.84,464.06h-4.67L406,468h-2.27l4.69-15.64h2.12L415.24,468H413Zm-4.18-1.73h3.7l-1.8-6.36h-0.06Z" transform="translate(-102.02 -300.38)" fill="#636363"/><path d="M421.41,466.36h6.33V468h-8.51V452.37h2.18v14Z" transform="translate(-102.02 -300.38)" fill="#636363"/><path d="M434.21,466.36h6.33V468H432V452.37h2.18v14Z" transform="translate(-102.02 -300.38)" fill="#636363"/><path d="M556.74,465.13a4.83,4.83,0,0,1-1.78,1.58,6.35,6.35,0,0,1-3.14.69,5.35,5.35,0,0,1-3.95-1.49,5.74,5.74,0,0,1-1.5-4.25V457a5.8,5.8,0,0,1,1.45-4.21,5.9,5.9,0,0,1,7.52-.27,4.28,4.28,0,0,1,1.25,3.35l0,0.06h-2.05a3.12,3.12,0,0,0-.71-2.19,2.68,2.68,0,0,0-2.08-.78,2.84,2.84,0,0,0-2.31,1,4.59,4.59,0,0,0-.84,3v4.66a4.64,4.64,0,0,0,.88,3,2.94,2.94,0,0,0,2.38,1,3.84,3.84,0,0,0,1.77-.34,2.36,2.36,0,0,0,1-.84v-3.64h-2.88v-1.59h5.07v5.8Z" transform="translate(-102.02 -300.38)" fill="#636363"/><path d="M572.36,461.51a6,6,0,0,1-1.5,4.33,5.35,5.35,0,0,1-4,1.55,5.2,5.2,0,0,1-4-1.55,6,6,0,0,1-1.47-4.33v-4.3a6.09,6.09,0,0,1,1.47-4.34,5.16,5.16,0,0,1,4-1.57,5.35,5.35,0,0,1,4,1.56,6,6,0,0,1,1.51,4.35v4.3Zm-2.17-4.33a4.76,4.76,0,0,0-.88-3.1,3.06,3.06,0,0,0-2.5-1.06,2.9,2.9,0,0,0-2.41,1.06,4.89,4.89,0,0,0-.84,3.1v4.33a4.93,4.93,0,0,0,.85,3.13,2.91,2.91,0,0,0,2.42,1.06,3,3,0,0,0,2.49-1.06,4.84,4.84,0,0,0,.87-3.13v-4.33Z" transform="translate(-102.02 -300.38)" fill="#636363"/><path d="M579.29,465.52h6.33v1.65h-8.51V451.53h2.18v14Z" transform="translate(-102.02 -300.38)" fill="#636363"/><path d="M597.57,460.22H592.1v7h-2.18V451.53h8.59v1.68H592.1v5.35h5.47v1.67Z" transform="translate(-102.02 -300.38)" fill="#636363"/><path d="M619.55,462.47l0,0.06a4.61,4.61,0,0,1-1.29,3.59,5.07,5.07,0,0,1-3.66,1.28,5,5,0,0,1-3.83-1.54,6.12,6.12,0,0,1-1.43-4.32V457.2a6.22,6.22,0,0,1,1.41-4.33,4.84,4.84,0,0,1,3.78-1.56,5.3,5.3,0,0,1,3.74,1.24,4.58,4.58,0,0,1,1.3,3.63l0,0.06h-2.09a3.54,3.54,0,0,0-.73-2.47,2.84,2.84,0,0,0-2.19-.79,2.58,2.58,0,0,0-2.22,1.08,5.22,5.22,0,0,0-.78,3.1v4.37a5.18,5.18,0,0,0,.81,3.13,2.67,2.67,0,0,0,2.28,1.08,2.73,2.73,0,0,0,2.13-.78,3.64,3.64,0,0,0,.71-2.5h2.09Z" transform="translate(-102.02 -300.38)" fill="#636363"/><path d="M631.05,463.22h-4.67l-1.13,4H623l4.69-15.64h2.12l4.65,15.64h-2.27Zm-4.18-1.73h3.7l-1.8-6.36H628.7Z" transform="translate(-102.02 -300.38)" fill="#636363"/><path d="M640.61,460.44v6.74h-2.18V451.54H643a4.91,4.91,0,0,1,3.49,1.15,4.29,4.29,0,0,1,1.23,3.3,4,4,0,0,1-.57,2.14,3.79,3.79,0,0,1-1.65,1.42,3,3,0,0,1,1.73,1.35,4.72,4.72,0,0,1,.53,2.34v1.36a6.12,6.12,0,0,0,.14,1.34,1.88,1.88,0,0,0,.49,1v0.25h-2.25a1.86,1.86,0,0,1-.48-1.08,9.74,9.74,0,0,1-.11-1.5v-1.32a3.24,3.24,0,0,0-.61-2.07,2,2,0,0,0-1.68-.76h-2.7Zm0-1.67h2.32a2.56,2.56,0,0,0,2-.71,2.92,2.92,0,0,0,.64-2,3.13,3.13,0,0,0-.63-2.08,2.36,2.36,0,0,0-1.91-.74h-2.43v5.56Z" transform="translate(-102.02 -300.38)" fill="#636363"/><path d="M661.36,453.21h-4.15v14H655v-14h-4.11v-1.68h10.45v1.68Z" transform="translate(-102.02 -300.38)" fill="#636363"/><path d="M814.61,462.47l0,0.06a4.61,4.61,0,0,1-1.29,3.59,5.07,5.07,0,0,1-3.66,1.28,5,5,0,0,1-3.83-1.54,6.12,6.12,0,0,1-1.43-4.32V457.2a6.22,6.22,0,0,1,1.41-4.33,4.84,4.84,0,0,1,3.78-1.56,5.3,5.3,0,0,1,3.74,1.24,4.58,4.58,0,0,1,1.3,3.63l0,0.06h-2.09a3.54,3.54,0,0,0-.73-2.47,2.84,2.84,0,0,0-2.19-.79,2.58,2.58,0,0,0-2.22,1.08,5.22,5.22,0,0,0-.78,3.1v4.37a5.18,5.18,0,0,0,.81,3.13,2.67,2.67,0,0,0,2.28,1.08,2.73,2.73,0,0,0,2.13-.78,3.64,3.64,0,0,0,.71-2.5h2.09Z" transform="translate(-102.02 -300.38)" fill="#636363"/><path d="M826.11,463.22h-4.67l-1.13,4H818l4.69-15.64h2.12l4.65,15.64h-2.27Zm-4.18-1.73h3.7l-1.8-6.36h-0.06Z" transform="translate(-102.02 -300.38)" fill="#636363"/><path d="M835.68,461v6.17H833.5V451.53h5.08a4.62,4.62,0,0,1,3.49,1.31,5.3,5.3,0,0,1,0,6.87,4.63,4.63,0,0,1-3.49,1.3h-2.9Zm0-1.68h2.9a2.26,2.26,0,0,0,1.92-.86,3.5,3.5,0,0,0,.66-2.18,3.61,3.61,0,0,0-.65-2.2,2.25,2.25,0,0,0-1.93-.88h-2.9v6.12Z" transform="translate(-102.02 -300.38)" fill="#636363"/><path d="M1036.43,453.21h-4.15v14h-2.19v-14H1026v-1.68h10.45v1.68Z" transform="translate(-102.02 -300.38)" fill="#636363"/><path d="M1048,459.91h-5.31v5.61h6.25v1.65h-8.43V451.53h8.38v1.68h-6.2v5H1048v1.67Z" transform="translate(-102.02 -300.38)" fill="#636363"/><path d="M1060.81,459.91h-5.31v5.61h6.25v1.65h-8.43V451.53h8.38v1.68h-6.2v5h5.31v1.67Z" transform="translate(-102.02 -300.38)" fill="#636363"/><path d="M1205.61,460.22h-5.47v7H1198V451.53h8.59v1.68h-6.41v5.35h5.47v1.67Z" transform="translate(-102.02 -300.38)" fill="#636363"/><path d="M1221.31,461.51a6,6,0,0,1-1.5,4.33,5.35,5.35,0,0,1-4,1.55,5.2,5.2,0,0,1-4-1.55,6,6,0,0,1-1.47-4.33v-4.3a6.09,6.09,0,0,1,1.47-4.34,5.16,5.16,0,0,1,4-1.57,5.35,5.35,0,0,1,4,1.56,6,6,0,0,1,1.51,4.35v4.3Zm-2.17-4.33a4.76,4.76,0,0,0-.88-3.1,3.06,3.06,0,0,0-2.5-1.06,2.9,2.9,0,0,0-2.41,1.06,4.89,4.89,0,0,0-.84,3.1v4.33a4.93,4.93,0,0,0,.85,3.13,2.91,2.91,0,0,0,2.42,1.06,3,3,0,0,0,2.49-1.06,4.84,4.84,0,0,0,.87-3.13v-4.33Z" transform="translate(-102.02 -300.38)" fill="#636363"/><path d="M1228.23,460.44v6.74h-2.18V451.54h4.61a4.91,4.91,0,0,1,3.49,1.15,4.29,4.29,0,0,1,1.23,3.3,4,4,0,0,1-.57,2.14,3.79,3.79,0,0,1-1.65,1.42,3,3,0,0,1,1.73,1.35,4.72,4.72,0,0,1,.53,2.34v1.36a6.12,6.12,0,0,0,.14,1.34,1.88,1.88,0,0,0,.49,1v0.25h-2.25a1.86,1.86,0,0,1-.48-1.08,9.74,9.74,0,0,1-.11-1.5v-1.32a3.24,3.24,0,0,0-.61-2.07,2,2,0,0,0-1.68-.76h-2.7Zm0-1.67h2.32a2.56,2.56,0,0,0,2-.71,2.92,2.92,0,0,0,.64-2,3.13,3.13,0,0,0-.63-2.08,2.36,2.36,0,0,0-1.91-.74h-2.43v5.56Z" transform="translate(-102.02 -300.38)" fill="#636363"/><path d="M1248,459.91h-5.31v5.61h6.25v1.65h-8.43V451.53h8.38v1.68h-6.2v5H1248v1.67Z" transform="translate(-102.02 -300.38)" fill="#636363"/><path d="M1260.44,463.24a2.57,2.57,0,0,0-.61-1.77,5.37,5.37,0,0,0-2.16-1.26,8.85,8.85,0,0,1-3.38-1.77,3.73,3.73,0,0,1-1.18-2.89,4,4,0,0,1,1.31-3,4.76,4.76,0,0,1,3.35-1.2,4.66,4.66,0,0,1,3.48,1.33,4.43,4.43,0,0,1,1.27,3.34l0,0.06h-2.09a3.29,3.29,0,0,0-.73-2.22,2.41,2.41,0,0,0-1.92-.85,2.26,2.26,0,0,0-1.8.73,2.67,2.67,0,0,0-.64,1.83,2.27,2.27,0,0,0,.68,1.69,6.51,6.51,0,0,0,2.28,1.26,8,8,0,0,1,3.25,1.83,4,4,0,0,1,1.12,2.92,3.82,3.82,0,0,1-1.32,3,5.11,5.11,0,0,1-3.45,1.13,5.56,5.56,0,0,1-3.59-1.22,4.11,4.11,0,0,1-1.47-3.51l0-.06h2.11a3.09,3.09,0,0,0,.84,2.37,3,3,0,0,0,2.09.78,2.58,2.58,0,0,0,1.9-.68A2.46,2.46,0,0,0,1260.44,463.24Z" transform="translate(-102.02 -300.38)" fill="#636363"/><path d="M1276.62,453.21h-4.15v14h-2.19v-14h-4.11v-1.68h10.45v1.68Z" transform="translate(-102.02 -300.38)" fill="#636363"/><path d="M149.13,679.52h0.06l3.75-12.76h2.79V682.4h-2.17V671.13H153.5l-3.59,11.28h-1.49l-3.64-11.45h-0.06V682.4h-2.17V666.76h2.85Z" transform="translate(-102.02 -300.38)" fill="#636363"/><path d="M168,678.45H163.3l-1.13,4H159.9l4.69-15.64h2.12l4.65,15.64H169.1Zm-4.18-1.73h3.7l-1.8-6.36h-0.06Z" transform="translate(-102.02 -300.38)" fill="#636363"/><path d="M177.54,676.23v6.17h-2.18V666.76h5.08a4.62,4.62,0,0,1,3.49,1.31,5.3,5.3,0,0,1,0,6.87,4.63,4.63,0,0,1-3.49,1.3h-2.9Zm0-1.68h2.9a2.26,2.26,0,0,0,1.92-.86,3.5,3.5,0,0,0,.66-2.18,3.61,3.61,0,0,0-.65-2.2,2.25,2.25,0,0,0-1.93-.88h-2.9v6.12Z" transform="translate(-102.02 -300.38)" fill="#636363"/><path d="M317.07,678.47a2.57,2.57,0,0,0-.61-1.77,5.38,5.38,0,0,0-2.16-1.26,8.85,8.85,0,0,1-3.38-1.77,3.73,3.73,0,0,1-1.18-2.89,4,4,0,0,1,1.31-3,4.75,4.75,0,0,1,3.35-1.2,4.66,4.66,0,0,1,3.48,1.33,4.43,4.43,0,0,1,1.27,3.34l0,0.06H317a3.29,3.29,0,0,0-.73-2.22,2.42,2.42,0,0,0-1.92-.85,2.26,2.26,0,0,0-1.8.73,2.67,2.67,0,0,0-.64,1.83,2.27,2.27,0,0,0,.68,1.69,6.51,6.51,0,0,0,2.28,1.26,8,8,0,0,1,3.25,1.83,4,4,0,0,1,1.12,2.92,3.81,3.81,0,0,1-1.32,3,5.11,5.11,0,0,1-3.45,1.13,5.56,5.56,0,0,1-3.59-1.22,4.11,4.11,0,0,1-1.47-3.51l0-.06h2.11a3.09,3.09,0,0,0,.84,2.37,3,3,0,0,0,2.09.78,2.58,2.58,0,0,0,1.9-.68A2.47,2.47,0,0,0,317.07,678.47Z" transform="translate(-102.02 -300.38)" fill="#636363"/><path d="M334.37,682.4h-2.18v-6.9h-6.12v6.9h-2.18V666.76h2.18v7.08h6.12v-7.08h2.18V682.4Z" transform="translate(-102.02 -300.38)" fill="#636363"/><path d="M350.09,676.74a6,6,0,0,1-1.5,4.33,5.35,5.35,0,0,1-4,1.55,5.2,5.2,0,0,1-4-1.55,6,6,0,0,1-1.47-4.33v-4.3a6.09,6.09,0,0,1,1.47-4.34,5.16,5.16,0,0,1,4-1.57,5.35,5.35,0,0,1,4,1.56,6,6,0,0,1,1.51,4.34v4.3Zm-2.17-4.33a4.76,4.76,0,0,0-.88-3.1,3.06,3.06,0,0,0-2.5-1.06,2.9,2.9,0,0,0-2.41,1.06,4.89,4.89,0,0,0-.84,3.1v4.33a4.93,4.93,0,0,0,.85,3.13,2.91,2.91,0,0,0,2.42,1.06,3,3,0,0,0,2.49-1.06,4.84,4.84,0,0,0,.87-3.13v-4.33Z" transform="translate(-102.02 -300.38)" fill="#636363"/><path d="M363.91,668.44h-4.15v14h-2.19v-14h-4.11v-1.68h10.45v1.68Z" transform="translate(-102.02 -300.38)" fill="#636363"/><path d="M376.32,676.85l2.3,4.23h-1.5l-2.65-4.14v-0.2l2.65-4.12h1.5Zm3.6,0,2.3,4.23h-1.5l-2.65-4.14v-0.2l2.65-4.12h1.5Z" transform="translate(-102.02 -300.38)" fill="#636363"/><path d="M386.53,682.4V666.76H391a5.2,5.2,0,0,1,4.14,1.88,7.18,7.18,0,0,1,1.61,4.83v2.22a7.16,7.16,0,0,1-1.61,4.83A5.21,5.21,0,0,1,391,682.4h-4.44Zm2.18-14v12.31H391a3,3,0,0,0,2.58-1.41,6.31,6.31,0,0,0,1-3.64v-2.25a6.25,6.25,0,0,0-1-3.6,3,3,0,0,0-2.58-1.41h-2.26Z" transform="translate(-102.02 -300.38)" fill="#636363"/><path d="M403.69,675.66v6.74h-2.18V666.77h4.61a4.91,4.91,0,0,1,3.49,1.15,4.29,4.29,0,0,1,1.23,3.3,4,4,0,0,1-.57,2.14,3.8,3.8,0,0,1-1.65,1.42,3,3,0,0,1,1.73,1.35,4.72,4.72,0,0,1,.53,2.34v1.36a6.12,6.12,0,0,0,.14,1.34,1.88,1.88,0,0,0,.49,1v0.25h-2.25a1.86,1.86,0,0,1-.48-1.08,9.72,9.72,0,0,1-.11-1.5V678.5a3.24,3.24,0,0,0-.61-2.07,2,2,0,0,0-1.68-.76h-2.7Zm0-1.66H406a2.56,2.56,0,0,0,2-.71,2.92,2.92,0,0,0,.64-2,3.13,3.13,0,0,0-.63-2.08,2.36,2.36,0,0,0-1.91-.74h-2.43V674Z" transform="translate(-102.02 -300.38)" fill="#636363"/><path d="M418.32,682.4h-2.18V666.76h2.18V682.4Z" transform="translate(-102.02 -300.38)" fill="#636363"/><path d="M428,678.81l0.23,1h0.06l0.23-.95,3.25-12.06h2.33l-4.78,15.64H427.2l-4.77-15.64h2.32Z" transform="translate(-102.02 -300.38)" fill="#636363"/><path d="M445.5,675.14H440.2v5.61h6.25v1.65H438V666.76h8.38v1.68h-6.2v5h5.31v1.67Z" transform="translate(-102.02 -300.38)" fill="#636363"/><path d="M452.11,676.49l-1.48-3.27h1.51l1.72,2.25h0.55l0.16,0.93,0,0v0.12l0,0-0.16.9h-0.54l-1.73,2.26h-1.51Zm3.72,0-1.48-3.27h1.51l1.72,2.25h0.55l0.16,0.93,0,0v0.12l0,0-0.16.9h-0.54l-1.73,2.26h-1.51Z" transform="translate(-102.02 -300.38)" fill="#636363"/><path d="M555.87,680.36a4.83,4.83,0,0,1-1.78,1.58,6.36,6.36,0,0,1-3.14.69,5.35,5.35,0,0,1-3.95-1.49,5.74,5.74,0,0,1-1.5-4.25v-4.64A5.79,5.79,0,0,1,547,668a5.9,5.9,0,0,1,7.52-.27,4.28,4.28,0,0,1,1.25,3.35l0,0.06h-2.05a3.12,3.12,0,0,0-.71-2.19,2.68,2.68,0,0,0-2.08-.78,2.83,2.83,0,0,0-2.31,1,4.59,4.59,0,0,0-.84,3v4.66a4.63,4.63,0,0,0,.88,3,2.93,2.93,0,0,0,2.38,1,3.84,3.84,0,0,0,1.77-.34,2.36,2.36,0,0,0,1-.84v-3.64H550.8v-1.59h5.07v5.8Z" transform="translate(-102.02 -300.38)" fill="#636363"/><path d="M571.49,676.74a6,6,0,0,1-1.5,4.33,5.35,5.35,0,0,1-4,1.55,5.2,5.2,0,0,1-4-1.55,6,6,0,0,1-1.47-4.33v-4.3A6.09,6.09,0,0,1,562,668.1a5.16,5.16,0,0,1,4-1.57,5.35,5.35,0,0,1,4,1.56,6,6,0,0,1,1.51,4.34v4.3Zm-2.17-4.33a4.76,4.76,0,0,0-.88-3.1,3.06,3.06,0,0,0-2.5-1.06,2.9,2.9,0,0,0-2.41,1.06,4.89,4.89,0,0,0-.84,3.1v4.33a4.93,4.93,0,0,0,.85,3.13,2.91,2.91,0,0,0,2.42,1.06,3,3,0,0,0,2.49-1.06,4.84,4.84,0,0,0,.87-3.13v-4.33Z" transform="translate(-102.02 -300.38)" fill="#636363"/><path d="M578.42,680.75h6.33v1.65h-8.51V666.76h2.18v14Z" transform="translate(-102.02 -300.38)" fill="#636363"/><path d="M596.69,675.45h-5.47v7H589V666.76h8.59v1.68h-6.41v5.35h5.47v1.67Z" transform="translate(-102.02 -300.38)" fill="#636363"/><path d="M616,678.47a2.57,2.57,0,0,0-.61-1.77,5.38,5.38,0,0,0-2.16-1.26,8.85,8.85,0,0,1-3.38-1.77,3.73,3.73,0,0,1-1.18-2.89,4,4,0,0,1,1.31-3,4.75,4.75,0,0,1,3.35-1.2,4.66,4.66,0,0,1,3.48,1.33,4.43,4.43,0,0,1,1.27,3.34l0,0.06H616a3.29,3.29,0,0,0-.73-2.22,2.41,2.41,0,0,0-1.92-.85,2.26,2.26,0,0,0-1.8.73,2.67,2.67,0,0,0-.64,1.83,2.27,2.27,0,0,0,.68,1.69,6.51,6.51,0,0,0,2.28,1.26,8,8,0,0,1,3.25,1.83,4,4,0,0,1,1.12,2.92,3.81,3.81,0,0,1-1.32,3,5.11,5.11,0,0,1-3.45,1.13,5.56,5.56,0,0,1-3.59-1.22,4.11,4.11,0,0,1-1.47-3.51l0-.06h2.11a3.09,3.09,0,0,0,.84,2.37,3,3,0,0,0,2.09.78,2.58,2.58,0,0,0,1.9-.68A2.47,2.47,0,0,0,616,678.47Z" transform="translate(-102.02 -300.38)" fill="#636363"/><path d="M633.33,682.4h-2.18v-6.9H625v6.9h-2.18V666.76H625v7.08h6.12v-7.08h2.18V682.4Z" transform="translate(-102.02 -300.38)" fill="#636363"/><path d="M649,676.74a6,6,0,0,1-1.5,4.33,5.35,5.35,0,0,1-4,1.55,5.2,5.2,0,0,1-4-1.55,6,6,0,0,1-1.47-4.33v-4.3a6.09,6.09,0,0,1,1.47-4.34,5.16,5.16,0,0,1,4-1.57,5.35,5.35,0,0,1,4,1.56,6,6,0,0,1,1.51,4.34v4.3Zm-2.17-4.33a4.76,4.76,0,0,0-.88-3.1,3.06,3.06,0,0,0-2.5-1.06,2.9,2.9,0,0,0-2.41,1.06,4.89,4.89,0,0,0-.84,3.1v4.33a4.93,4.93,0,0,0,.85,3.13,2.91,2.91,0,0,0,2.42,1.06,3,3,0,0,0,2.49-1.06,4.84,4.84,0,0,0,.87-3.13v-4.33Z" transform="translate(-102.02 -300.38)" fill="#636363"/><path d="M661.29,675.14H656v5.61h6.25v1.65H653.8V666.76h8.38v1.68H656v5h5.31v1.67Z" transform="translate(-102.02 -300.38)" fill="#636363"/><path d="M801.56,680.36a4.83,4.83,0,0,1-1.78,1.58,6.36,6.36,0,0,1-3.14.69,5.35,5.35,0,0,1-3.95-1.49,5.74,5.74,0,0,1-1.5-4.25v-4.64a5.79,5.79,0,0,1,1.45-4.21,5.9,5.9,0,0,1,7.52-.27,4.28,4.28,0,0,1,1.25,3.35l0,0.06h-2.05a3.12,3.12,0,0,0-.71-2.19,2.68,2.68,0,0,0-2.08-.78,2.83,2.83,0,0,0-2.31,1,4.59,4.59,0,0,0-.84,3v4.66a4.63,4.63,0,0,0,.88,3,2.93,2.93,0,0,0,2.38,1,3.84,3.84,0,0,0,1.77-.34,2.36,2.36,0,0,0,1-.84v-3.64h-2.88v-1.59h5.07v5.8Z" transform="translate(-102.02 -300.38)" fill="#636363"/><path d="M808.83,680.75h6.33v1.65h-8.51V666.76h2.18v14Z" transform="translate(-102.02 -300.38)" fill="#636363"/><path d="M829.28,676.74a6,6,0,0,1-1.5,4.33,5.35,5.35,0,0,1-4,1.55,5.2,5.2,0,0,1-4-1.55,6,6,0,0,1-1.47-4.33v-4.3a6.09,6.09,0,0,1,1.47-4.34,5.16,5.16,0,0,1,4-1.57,5.35,5.35,0,0,1,4,1.56,6,6,0,0,1,1.51,4.34v4.3Zm-2.17-4.33a4.76,4.76,0,0,0-.88-3.1,3.06,3.06,0,0,0-2.5-1.06,2.9,2.9,0,0,0-2.41,1.06,4.89,4.89,0,0,0-.84,3.1v4.33a4.93,4.93,0,0,0,.85,3.13,2.91,2.91,0,0,0,2.42,1.06,3,3,0,0,0,2.49-1.06,4.84,4.84,0,0,0,.87-3.13v-4.33Z" transform="translate(-102.02 -300.38)" fill="#636363"/><path d="M838.1,678.81l0.23,1h0.06l0.23-.95,3.25-12.06h2.33l-4.78,15.64h-2.13l-4.77-15.64h2.32Z" transform="translate(-102.02 -300.38)" fill="#636363"/><path d="M855.6,675.14h-5.31v5.61h6.25v1.65h-8.43V666.76h8.38v1.68h-6.2v5h5.31v1.67Z" transform="translate(-102.02 -300.38)" fill="#636363"/><path d="M1006.35,675.9v6.17h-2.18V666.42h5.08a4.63,4.63,0,0,1,3.49,1.3,5.31,5.31,0,0,1,0,6.87,4.64,4.64,0,0,1-3.49,1.3h-2.9Zm0-1.68h2.9a2.26,2.26,0,0,0,1.92-.87,3.5,3.5,0,0,0,.66-2.17,3.61,3.61,0,0,0-.65-2.2,2.25,2.25,0,0,0-1.93-.88h-2.9v6.12Z" transform="translate(-102.02 -300.38)" fill="#636363"/><path d="M1028.74,666.42v10.34a5.49,5.49,0,0,1-1.46,4.06,5.13,5.13,0,0,1-3.79,1.46,5,5,0,0,1-3.72-1.47,5.56,5.56,0,0,1-1.43-4.06V666.42h2.18v10.34a4.43,4.43,0,0,0,.82,2.84,2.63,2.63,0,0,0,2.15,1,2.74,2.74,0,0,0,2.22-1,4.35,4.35,0,0,0,.84-2.85V666.42h2.19Z" transform="translate(-102.02 -300.38)" fill="#636363"/><path d="M1043.09,668.1h-4.15v14h-2.19v-14h-4.11v-1.68h10.45v1.68Z" transform="translate(-102.02 -300.38)" fill="#636363"/><path d="M1056.69,668.1h-4.15v14h-2.19v-14h-4.11v-1.68h10.45v1.68Z" transform="translate(-102.02 -300.38)" fill="#636363"/><path d="M1068.24,674.8h-5.31v5.61h6.25v1.65h-8.43V666.42h8.38v1.68h-6.2v5h5.31v1.67Z" transform="translate(-102.02 -300.38)" fill="#636363"/><path d="M1075.75,675.33v6.74h-2.18V666.43h4.61a4.91,4.91,0,0,1,3.49,1.15,4.29,4.29,0,0,1,1.23,3.3,4,4,0,0,1-.57,2.14,3.8,3.8,0,0,1-1.65,1.42,3,3,0,0,1,1.73,1.35,4.72,4.72,0,0,1,.53,2.34v1.36a6.12,6.12,0,0,0,.14,1.34,1.88,1.88,0,0,0,.49,1v0.25h-2.25a1.86,1.86,0,0,1-.48-1.08,9.72,9.72,0,0,1-.11-1.5v-1.32a3.24,3.24,0,0,0-.61-2.07,2,2,0,0,0-1.68-.76h-2.7Zm0-1.67h2.32a2.56,2.56,0,0,0,2-.71,2.92,2.92,0,0,0,.64-2,3.13,3.13,0,0,0-.63-2.08,2.36,2.36,0,0,0-1.91-.74h-2.43v5.56Z" transform="translate(-102.02 -300.38)" fill="#636363"/><path d="M1143.05,675.9v6.17h-2.18V666.42H1146a4.63,4.63,0,0,1,3.49,1.3,5.31,5.31,0,0,1,0,6.87,4.64,4.64,0,0,1-3.49,1.3h-2.9Zm0-1.68h2.9a2.26,2.26,0,0,0,1.92-.87,3.5,3.5,0,0,0,.66-2.17,3.61,3.61,0,0,0-.65-2.2,2.24,2.24,0,0,0-1.93-.88h-2.9v6.12Z" transform="translate(-102.02 -300.38)" fill="#636363"/><path d="M1165.45,666.42v10.34a5.49,5.49,0,0,1-1.46,4.06,5.13,5.13,0,0,1-3.79,1.46,5,5,0,0,1-3.72-1.47,5.56,5.56,0,0,1-1.43-4.06V666.42h2.18v10.34a4.43,4.43,0,0,0,.82,2.84,2.63,2.63,0,0,0,2.15,1,2.74,2.74,0,0,0,2.22-1,4.35,4.35,0,0,0,.84-2.85V666.42h2.19Z" transform="translate(-102.02 -300.38)" fill="#636363"/><path d="M1179.8,668.1h-4.15v14h-2.19v-14h-4.11v-1.68h10.45v1.68Z" transform="translate(-102.02 -300.38)" fill="#636363"/><path d="M1193.39,668.1h-4.15v14h-2.19v-14h-4.11v-1.68h10.45v1.68Z" transform="translate(-102.02 -300.38)" fill="#636363"/><path d="M1204.95,674.8h-5.31v5.61h6.25v1.65h-8.43V666.42h8.38v1.68h-6.2v5h5.31v1.67Z" transform="translate(-102.02 -300.38)" fill="#636363"/><path d="M1212.46,675.33v6.74h-2.18V666.43h4.61a4.91,4.91,0,0,1,3.49,1.15,4.29,4.29,0,0,1,1.23,3.3A4,4,0,0,1,1219,673a3.8,3.8,0,0,1-1.65,1.42,3,3,0,0,1,1.73,1.35,4.72,4.72,0,0,1,.53,2.34v1.36a6.12,6.12,0,0,0,.14,1.34,1.88,1.88,0,0,0,.49,1v0.25H1218a1.86,1.86,0,0,1-.48-1.08,9.73,9.73,0,0,1-.11-1.5v-1.32a3.24,3.24,0,0,0-.61-2.07,2,2,0,0,0-1.68-.76h-2.7Zm0-1.67h2.32a2.56,2.56,0,0,0,2-.71,2.92,2.92,0,0,0,.64-2,3.13,3.13,0,0,0-.63-2.08,2.36,2.36,0,0,0-1.91-.74h-2.43v5.56Z" transform="translate(-102.02 -300.38)" fill="#636363"/><path d="M1238.66,678.11H1234l-1.13,4h-2.27l4.69-15.64h2.12l4.65,15.64h-2.27Zm-4.18-1.73h3.7l-1.8-6.36h-0.06Z" transform="translate(-102.02 -300.38)" fill="#636363"/><path d="M1256.55,682.06h-2.19l-6.06-11.54-0.06,0v11.52h-2.18V666.42h2.18l6.06,11.5h0.06V666.42h2.19v15.64Z" transform="translate(-102.02 -300.38)" fill="#636363"/><path d="M1261.73,682.06V666.42h4.44a5.2,5.2,0,0,1,4.14,1.88,7.18,7.18,0,0,1,1.61,4.83v2.22a7.16,7.16,0,0,1-1.61,4.83,5.21,5.21,0,0,1-4.14,1.87h-4.44Zm2.18-14v12.31h2.26a3,3,0,0,0,2.58-1.41,6.31,6.31,0,0,0,1-3.64v-2.25a6.25,6.25,0,0,0-1-3.6,3,3,0,0,0-2.58-1.41h-2.26Z" transform="translate(-102.02 -300.38)" fill="#636363"/><path d="M1283.76,682.06V666.42h4.33a5.32,5.32,0,0,1,3.51,1.05,3.88,3.88,0,0,1,1.26,3.16,3.5,3.5,0,0,1-.55,1.94,3.2,3.2,0,0,1-1.53,1.25,3,3,0,0,1,2.1,1.29,4.34,4.34,0,0,1,.74,2.52,4.24,4.24,0,0,1-1.24,3.29,4.89,4.89,0,0,1-3.42,1.13h-5.2Zm2.18-8.86h2.48a2.22,2.22,0,0,0,1.65-.68,2.57,2.57,0,0,0-2-4.42h-2.15v5.1Zm0,1.57v5.64h3a2.33,2.33,0,0,0,1.83-.71,3,3,0,0,0,.64-2,3.17,3.17,0,0,0-.63-2.06,2.27,2.27,0,0,0-1.77-.82h-3.09Z" transform="translate(-102.02 -300.38)" fill="#636363"/><path d="M1305,678.11h-4.67l-1.13,4h-2.27l4.69-15.64h2.12l4.65,15.64h-2.27Zm-4.18-1.73h3.7l-1.8-6.36h-0.06Z" transform="translate(-102.02 -300.38)" fill="#636363"/><path d="M1314.59,680.41h6.33v1.65h-8.51V666.42h2.18v14Z" transform="translate(-102.02 -300.38)" fill="#636363"/><path d="M1327.39,680.41h6.33v1.65h-8.51V666.42h2.18v14Z" transform="translate(-102.02 -300.38)" fill="#636363"/><path d="M154.14,892.7l0,0.06a4.61,4.61,0,0,1-1.29,3.59,5.07,5.07,0,0,1-3.66,1.28,5,5,0,0,1-3.83-1.54,6.12,6.12,0,0,1-1.43-4.32v-4.34a6.22,6.22,0,0,1,1.41-4.33,4.84,4.84,0,0,1,3.78-1.56,5.3,5.3,0,0,1,3.74,1.24,4.57,4.57,0,0,1,1.3,3.63l0,0.06h-2.09a3.54,3.54,0,0,0-.73-2.46,2.84,2.84,0,0,0-2.19-.79,2.59,2.59,0,0,0-2.22,1.08,5.22,5.22,0,0,0-.78,3.1v4.37a5.18,5.18,0,0,0,.81,3.13,2.67,2.67,0,0,0,2.28,1.08,2.74,2.74,0,0,0,2.13-.78,3.65,3.65,0,0,0,.71-2.5h2.09Z" transform="translate(-102.02 -300.38)" fill="#636363"/><path d="M169,881.76V892.1a5.49,5.49,0,0,1-1.46,4.06,5.13,5.13,0,0,1-3.79,1.46,5,5,0,0,1-3.72-1.47,5.56,5.56,0,0,1-1.43-4.06V881.76h2.18V892.1a4.43,4.43,0,0,0,.82,2.84,2.63,2.63,0,0,0,2.15,1,2.74,2.74,0,0,0,2.22-1,4.35,4.35,0,0,0,.84-2.85V881.76H169Z" transform="translate(-102.02 -300.38)" fill="#636363"/><path d="M176.14,891.23v6.17H174V881.76H179a4.63,4.63,0,0,1,3.49,1.3,5.31,5.31,0,0,1,0,6.87,4.64,4.64,0,0,1-3.49,1.3h-2.9Zm0-1.68H179a2.26,2.26,0,0,0,1.92-.87,3.5,3.5,0,0,0,.66-2.17,3.61,3.61,0,0,0-.65-2.2,2.24,2.24,0,0,0-1.93-.88h-2.9v6.12Z" transform="translate(-102.02 -300.38)" fill="#636363"/><path d="M376.43,883.44h-4.15v14h-2.19v-14H366v-1.68h10.45v1.68Z" transform="translate(-102.02 -300.38)" fill="#636363"/><path d="M388,890.14h-5.31v5.61h6.25v1.65H380.5V881.76h8.38v1.68h-6.2v5H388v1.67Z" transform="translate(-102.02 -300.38)" fill="#636363"/><path d="M400.81,890.14h-5.31v5.61h6.25v1.65h-8.43V881.76h8.38v1.68h-6.2v5h5.31v1.67Z" transform="translate(-102.02 -300.38)" fill="#636363"/><path d="M560.52,894.52h0.06l3.75-12.76h2.79V897.4H565V886.13h-0.06L561.3,897.4h-1.49l-3.64-11.45H556.1V897.4h-2.17V881.76h2.85Z" transform="translate(-102.02 -300.38)" fill="#636363"/><path d="M579.36,893.45h-4.67l-1.13,4h-2.27L576,881.76h2.12l4.65,15.64h-2.27Zm-4.18-1.73h3.7l-1.8-6.36H577Z" transform="translate(-102.02 -300.38)" fill="#636363"/><path d="M588.92,890.66v6.74h-2.18V881.77h4.61a4.91,4.91,0,0,1,3.49,1.15,4.29,4.29,0,0,1,1.23,3.3,4,4,0,0,1-.57,2.14,3.8,3.8,0,0,1-1.65,1.42,3,3,0,0,1,1.73,1.35,4.72,4.72,0,0,1,.53,2.34v1.36a6.12,6.12,0,0,0,.14,1.34,1.88,1.88,0,0,0,.49,1v0.25h-2.25a1.86,1.86,0,0,1-.48-1.08,9.72,9.72,0,0,1-.11-1.5V893.5a3.24,3.24,0,0,0-.61-2.07,2,2,0,0,0-1.68-.76h-2.7Zm0-1.66h2.32a2.56,2.56,0,0,0,2-.71,2.92,2.92,0,0,0,.64-2,3.13,3.13,0,0,0-.63-2.08,2.36,2.36,0,0,0-1.91-.74h-2.43V889Z" transform="translate(-102.02 -300.38)" fill="#636363"/><path d="M608.3,893.47a2.57,2.57,0,0,0-.61-1.77,5.38,5.38,0,0,0-2.16-1.26,8.85,8.85,0,0,1-3.38-1.77,3.73,3.73,0,0,1-1.18-2.89,4,4,0,0,1,1.31-3,4.75,4.75,0,0,1,3.35-1.2,4.66,4.66,0,0,1,3.48,1.33,4.43,4.43,0,0,1,1.27,3.34l0,0.06h-2.09a3.29,3.29,0,0,0-.73-2.22,2.41,2.41,0,0,0-1.92-.85,2.26,2.26,0,0,0-1.8.73,2.67,2.67,0,0,0-.64,1.83,2.27,2.27,0,0,0,.68,1.69,6.51,6.51,0,0,0,2.28,1.26,8,8,0,0,1,3.25,1.83,4,4,0,0,1,1.12,2.92,3.81,3.81,0,0,1-1.32,3,5.11,5.11,0,0,1-3.45,1.13,5.56,5.56,0,0,1-3.59-1.22,4.11,4.11,0,0,1-1.47-3.51l0-.06h2.11a3.09,3.09,0,0,0,.84,2.37,3,3,0,0,0,2.09.78,2.58,2.58,0,0,0,1.9-.68A2.47,2.47,0,0,0,608.3,893.47Z" transform="translate(-102.02 -300.38)" fill="#636363"/><path d="M625.61,897.4h-2.18v-6.9H617.3v6.9h-2.18V881.76h2.18v7.08h6.12v-7.08h2.18V897.4Z" transform="translate(-102.02 -300.38)" fill="#636363"/><path d="M637.91,893.45h-4.67l-1.13,4h-2.27l4.69-15.64h2.12l4.65,15.64H639Zm-4.18-1.73h3.7l-1.8-6.36h-0.06Z" transform="translate(-102.02 -300.38)" fill="#636363"/><path d="M647.48,895.75h6.33v1.65h-8.51V881.76h2.18v14Z" transform="translate(-102.02 -300.38)" fill="#636363"/><path d="M770,895.36a4.83,4.83,0,0,1-1.78,1.58,6.36,6.36,0,0,1-3.14.69,5.35,5.35,0,0,1-3.95-1.49,5.74,5.74,0,0,1-1.5-4.25v-4.64a5.79,5.79,0,0,1,1.45-4.21,5.9,5.9,0,0,1,7.52-.27,4.28,4.28,0,0,1,1.25,3.35l0,0.06h-2.05a3.12,3.12,0,0,0-.71-2.19,2.68,2.68,0,0,0-2.08-.78,2.83,2.83,0,0,0-2.31,1,4.59,4.59,0,0,0-.84,3v4.66a4.63,4.63,0,0,0,.88,3,2.93,2.93,0,0,0,2.38,1,3.84,3.84,0,0,0,1.77-.34,2.36,2.36,0,0,0,1-.84v-3.64h-2.88v-1.59H770v5.8Z" transform="translate(-102.02 -300.38)" fill="#636363"/><path d="M785.61,891.74a6,6,0,0,1-1.5,4.33,5.35,5.35,0,0,1-4,1.55,5.2,5.2,0,0,1-4-1.55,6,6,0,0,1-1.47-4.33v-4.3a6.09,6.09,0,0,1,1.47-4.34,5.16,5.16,0,0,1,4-1.57,5.35,5.35,0,0,1,4,1.56,6,6,0,0,1,1.51,4.34v4.3Zm-2.17-4.33a4.76,4.76,0,0,0-.88-3.1,3.06,3.06,0,0,0-2.5-1.06,2.9,2.9,0,0,0-2.41,1.06,4.89,4.89,0,0,0-.84,3.1v4.33a4.93,4.93,0,0,0,.85,3.13,2.91,2.91,0,0,0,2.42,1.06,3,3,0,0,0,2.49-1.06,4.84,4.84,0,0,0,.87-3.13v-4.33Z" transform="translate(-102.02 -300.38)" fill="#636363"/><path d="M792.54,895.75h6.33v1.65h-8.51V881.76h2.18v14Z" transform="translate(-102.02 -300.38)" fill="#636363"/><path d="M810.81,890.45h-5.47v7h-2.18V881.76h8.59v1.68h-6.41v5.35h5.47v1.67Z" transform="translate(-102.02 -300.38)" fill="#636363"/><path d="M825.19,891.23v6.17H823V881.76h5.08a4.63,4.63,0,0,1,3.49,1.3,5.31,5.31,0,0,1,0,6.87,4.64,4.64,0,0,1-3.49,1.3h-2.9Zm0-1.68h2.9a2.26,2.26,0,0,0,1.92-.87,3.5,3.5,0,0,0,.66-2.17,3.61,3.61,0,0,0-.65-2.2,2.24,2.24,0,0,0-1.93-.88h-2.9v6.12Z" transform="translate(-102.02 -300.38)" fill="#636363"/><path d="M842.79,893.45h-4.67l-1.13,4h-2.27l4.69-15.64h2.12l4.65,15.64h-2.27Zm-4.18-1.73h3.7l-1.8-6.36h-0.06Z" transform="translate(-102.02 -300.38)" fill="#636363"/><path d="M860.67,897.4h-2.19l-6.06-11.54-0.06,0V897.4h-2.18V881.76h2.18l6.06,11.5h0.06V881.76h2.19V897.4Z" transform="translate(-102.02 -300.38)" fill="#636363"/><path d="M874.9,883.44h-4.15v14h-2.19v-14h-4.11v-1.68H874.9v1.68Z" transform="translate(-102.02 -300.38)" fill="#636363"/><path d="M885.93,893.47a2.57,2.57,0,0,0-.61-1.77,5.38,5.38,0,0,0-2.16-1.26,8.85,8.85,0,0,1-3.38-1.77,3.73,3.73,0,0,1-1.18-2.89,4,4,0,0,1,1.31-3,4.75,4.75,0,0,1,3.35-1.2,4.66,4.66,0,0,1,3.48,1.33,4.43,4.43,0,0,1,1.27,3.34l0,0.06h-2.09a3.29,3.29,0,0,0-.73-2.22,2.41,2.41,0,0,0-1.92-.85,2.26,2.26,0,0,0-1.8.73,2.67,2.67,0,0,0-.64,1.83,2.27,2.27,0,0,0,.68,1.69,6.51,6.51,0,0,0,2.28,1.26,8,8,0,0,1,3.25,1.83,4,4,0,0,1,1.12,2.92,3.81,3.81,0,0,1-1.32,3,5.11,5.11,0,0,1-3.45,1.13,5.56,5.56,0,0,1-3.59-1.22,4.11,4.11,0,0,1-1.47-3.51l0-.06h2.11a3.09,3.09,0,0,0,.84,2.37,3,3,0,0,0,2.09.78,2.58,2.58,0,0,0,1.9-.68A2.47,2.47,0,0,0,885.93,893.47Z" transform="translate(-102.02 -300.38)" fill="#636363"/><path d="M956.82,897.17V881.53h4.33a5.32,5.32,0,0,1,3.51,1.05,3.88,3.88,0,0,1,1.26,3.16,3.5,3.5,0,0,1-.55,1.94,3.2,3.2,0,0,1-1.53,1.25,3,3,0,0,1,2.1,1.29,4.34,4.34,0,0,1,.74,2.52,4.24,4.24,0,0,1-1.24,3.29,4.89,4.89,0,0,1-3.42,1.13h-5.2Zm2.18-8.86h2.48a2.22,2.22,0,0,0,1.65-.68,2.57,2.57,0,0,0-2-4.42H959v5.1Zm0,1.57v5.64h3a2.33,2.33,0,0,0,1.83-.71,3,3,0,0,0,.64-2,3.17,3.17,0,0,0-.63-2.06,2.27,2.27,0,0,0-1.77-.82H959Z" transform="translate(-102.02 -300.38)" fill="#636363"/><path d="M978.08,893.22h-4.67l-1.13,4H970l4.69-15.64h2.12l4.65,15.64h-2.27Zm-4.18-1.73h3.7l-1.8-6.36h-0.06Z" transform="translate(-102.02 -300.38)" fill="#636363"/><path d="M987.65,895.52H994v1.65h-8.51V881.53h2.18v14Z" transform="translate(-102.02 -300.38)" fill="#636363"/><path d="M1000.45,895.52h6.33v1.65h-8.51V881.53h2.18v14Z" transform="translate(-102.02 -300.38)" fill="#636363"/><path d="M1020.28,890.44v6.74h-2.18V881.54h4.61a4.91,4.91,0,0,1,3.49,1.15,4.29,4.29,0,0,1,1.23,3.3,4,4,0,0,1-.57,2.14,3.8,3.8,0,0,1-1.65,1.42,3,3,0,0,1,1.73,1.35,4.72,4.72,0,0,1,.53,2.34v1.36a6.13,6.13,0,0,0,.14,1.34,1.88,1.88,0,0,0,.49,1v0.25h-2.25a1.86,1.86,0,0,1-.48-1.08,9.72,9.72,0,0,1-.11-1.5v-1.32a3.24,3.24,0,0,0-.61-2.07,2,2,0,0,0-1.68-.76h-2.7Zm0-1.67h2.32a2.56,2.56,0,0,0,2-.71,2.92,2.92,0,0,0,.64-2,3.13,3.13,0,0,0-.63-2.08,2.36,2.36,0,0,0-1.91-.74h-2.43v5.56Z" transform="translate(-102.02 -300.38)" fill="#636363"/><path d="M1040,889.91h-5.31v5.61H1041v1.65h-8.43V881.53h8.38v1.68h-6.2v5H1040v1.67Z" transform="translate(-102.02 -300.38)" fill="#636363"/><path d="M1054.71,883.21h-4.15v14h-2.19v-14h-4.11v-1.68h10.45v1.68Z" transform="translate(-102.02 -300.38)" fill="#636363"/><path d="M1061,890.44v6.74h-2.18V881.54h4.61a4.91,4.91,0,0,1,3.49,1.15,4.29,4.29,0,0,1,1.23,3.3,4,4,0,0,1-.57,2.14,3.8,3.8,0,0,1-1.65,1.42,3,3,0,0,1,1.73,1.35,4.72,4.72,0,0,1,.53,2.34v1.36a6.12,6.12,0,0,0,.14,1.34,1.88,1.88,0,0,0,.49,1v0.25h-2.25a1.86,1.86,0,0,1-.48-1.08,9.72,9.72,0,0,1-.11-1.5v-1.32a3.24,3.24,0,0,0-.61-2.07,2,2,0,0,0-1.68-.76H1061Zm0-1.67h2.32a2.56,2.56,0,0,0,2-.71,2.92,2.92,0,0,0,.64-2,3.13,3.13,0,0,0-.63-2.08,2.36,2.36,0,0,0-1.91-.74H1061v5.56Z" transform="translate(-102.02 -300.38)" fill="#636363"/><path d="M1075.58,897.17h-2.18V881.53h2.18v15.64Z" transform="translate(-102.02 -300.38)" fill="#636363"/><path d="M1088.46,889.91h-5.31v5.61h6.25v1.65H1081V881.53h8.38v1.68h-6.2v5h5.31v1.67Z" transform="translate(-102.02 -300.38)" fill="#636363"/><path d="M1098.09,893.59l0.23,1h0.06l0.23-.95,3.25-12.06h2.33l-4.78,15.64h-2.13l-4.77-15.64h2.32Z" transform="translate(-102.02 -300.38)" fill="#636363"/><path d="M1115.59,889.91h-5.31v5.61h6.25v1.65h-8.43V881.53h8.38v1.68h-6.2v5h5.31v1.67Z" transform="translate(-102.02 -300.38)" fill="#636363"/><path d="M1123.09,890.44v6.74h-2.18V881.54h4.61a4.91,4.91,0,0,1,3.49,1.15,4.29,4.29,0,0,1,1.23,3.3,4,4,0,0,1-.57,2.14,3.8,3.8,0,0,1-1.65,1.42,3,3,0,0,1,1.73,1.35,4.72,4.72,0,0,1,.53,2.34v1.36a6.13,6.13,0,0,0,.14,1.34,1.88,1.88,0,0,0,.49,1v0.25h-2.25a1.86,1.86,0,0,1-.48-1.08,9.72,9.72,0,0,1-.11-1.5v-1.32a3.24,3.24,0,0,0-.61-2.07,2,2,0,0,0-1.68-.76h-2.7Zm0-1.67h2.32a2.56,2.56,0,0,0,2-.71,2.92,2.92,0,0,0,.64-2,3.13,3.13,0,0,0-.63-2.08,2.36,2.36,0,0,0-1.91-.74h-2.43v5.56Z" transform="translate(-102.02 -300.38)" fill="#636363"/><path d="M1182,894.3H1182l3.75-12.76h2.79v15.64h-2.17V885.91h-0.06l-3.59,11.28h-1.49l-3.64-11.45h-0.06v11.44h-2.17V881.53h2.85Z" transform="translate(-102.02 -300.38)" fill="#636363"/><path d="M1204.21,891.51a6,6,0,0,1-1.5,4.33,5.35,5.35,0,0,1-4,1.55,5.2,5.2,0,0,1-4-1.55,6,6,0,0,1-1.47-4.33v-4.3a6.09,6.09,0,0,1,1.47-4.34,5.16,5.16,0,0,1,4-1.57,5.35,5.35,0,0,1,4,1.56,6,6,0,0,1,1.51,4.34v4.3Zm-2.17-4.33a4.76,4.76,0,0,0-.88-3.1,3.06,3.06,0,0,0-2.5-1.06,2.9,2.9,0,0,0-2.41,1.06,4.89,4.89,0,0,0-.84,3.1v4.33a4.93,4.93,0,0,0,.85,3.13,2.91,2.91,0,0,0,2.42,1.06,3,3,0,0,0,2.49-1.06,4.84,4.84,0,0,0,.87-3.13v-4.33Z" transform="translate(-102.02 -300.38)" fill="#636363"/><path d="M1219.21,881.53v10.34a5.49,5.49,0,0,1-1.46,4.06,5.13,5.13,0,0,1-3.79,1.46,5,5,0,0,1-3.72-1.47,5.56,5.56,0,0,1-1.43-4.06V881.53H1211v10.34a4.43,4.43,0,0,0,.82,2.84,2.63,2.63,0,0,0,2.15,1,2.74,2.74,0,0,0,2.22-1,4.35,4.35,0,0,0,.84-2.85V881.53h2.19Z" transform="translate(-102.02 -300.38)" fill="#636363"/><path d="M1234.7,897.17h-2.19l-6.06-11.54-0.06,0v11.52h-2.18V881.53h2.18l6.06,11.5h0.06V881.53h2.19v15.64Z" transform="translate(-102.02 -300.38)" fill="#636363"/><path d="M1248.93,883.21h-4.15v14h-2.19v-14h-4.11v-1.68h10.45v1.68Z" transform="translate(-102.02 -300.38)" fill="#636363"/><path d="M1259.06,893.22h-4.67l-1.13,4H1251l4.69-15.64h2.12l4.65,15.64h-2.27Zm-4.18-1.73h3.7l-1.8-6.36h-0.06Z" transform="translate(-102.02 -300.38)" fill="#636363"/><path d="M1268.83,897.17h-2.18V881.53h2.18v15.64Z" transform="translate(-102.02 -300.38)" fill="#636363"/><path d="M1284.71,897.17h-2.19l-6.06-11.54-0.06,0v11.52h-2.18V881.53h2.18l6.06,11.5h0.06V881.53h2.19v15.64Z" transform="translate(-102.02 -300.38)" fill="#636363"/><path d="M1297,893.24a2.57,2.57,0,0,0-.61-1.77,5.38,5.38,0,0,0-2.16-1.26,8.85,8.85,0,0,1-3.38-1.77,3.73,3.73,0,0,1-1.18-2.89,4,4,0,0,1,1.31-3,4.75,4.75,0,0,1,3.35-1.2,4.66,4.66,0,0,1,3.48,1.33,4.43,4.43,0,0,1,1.27,3.34l0,0.06H1297a3.29,3.29,0,0,0-.73-2.22,2.41,2.41,0,0,0-1.92-.85,2.26,2.26,0,0,0-1.8.73,2.67,2.67,0,0,0-.64,1.83,2.27,2.27,0,0,0,.68,1.69,6.51,6.51,0,0,0,2.28,1.26,8,8,0,0,1,3.25,1.83,4,4,0,0,1,1.12,2.92,3.81,3.81,0,0,1-1.32,3,5.11,5.11,0,0,1-3.45,1.13,5.56,5.56,0,0,1-3.59-1.22,4.11,4.11,0,0,1-1.47-3.51l0-.06h2.11a3.09,3.09,0,0,0,.84,2.37,3,3,0,0,0,2.09.78,2.58,2.58,0,0,0,1.9-.68A2.47,2.47,0,0,0,1297,893.24Z" transform="translate(-102.02 -300.38)" fill="#636363"/><path d="M149.58,1096.28h-4.15v14h-2.19v-14h-4.11v-1.68h10.45v1.68Z" transform="translate(-102.02 -300.38)" fill="#636363"/><path d="M161.14,1103h-5.31v5.61h6.25v1.65h-8.43v-15.64H162v1.68h-6.2v5h5.31V1103Z" transform="translate(-102.02 -300.38)" fill="#636363"/><path d="M174,1103h-5.31v5.61h6.25v1.65h-8.43v-15.64h8.38v1.68h-6.2v5H174V1103Z" transform="translate(-102.02 -300.38)" fill="#636363"/><path d="M186.43,1106.31a2.57,2.57,0,0,0-.61-1.77,5.38,5.38,0,0,0-2.16-1.26,8.85,8.85,0,0,1-3.38-1.77,3.73,3.73,0,0,1-1.18-2.89,4,4,0,0,1,1.31-3,4.75,4.75,0,0,1,3.35-1.2,4.66,4.66,0,0,1,3.48,1.33,4.43,4.43,0,0,1,1.27,3.34l0,0.06h-2.09a3.29,3.29,0,0,0-.73-2.22,2.42,2.42,0,0,0-1.92-.85,2.26,2.26,0,0,0-1.8.73,2.67,2.67,0,0,0-.64,1.83,2.27,2.27,0,0,0,.68,1.69,6.51,6.51,0,0,0,2.28,1.26,8,8,0,0,1,3.25,1.83,4,4,0,0,1,1.12,2.92,3.81,3.81,0,0,1-1.32,3,5.11,5.11,0,0,1-3.45,1.13,5.56,5.56,0,0,1-3.59-1.22,4.11,4.11,0,0,1-1.47-3.51l0-.06h2.11a3.09,3.09,0,0,0,.84,2.37,3,3,0,0,0,2.09.78,2.58,2.58,0,0,0,1.9-.68A2.47,2.47,0,0,0,186.43,1106.31Z" transform="translate(-102.02 -300.38)" fill="#636363"/><path d="M353.24,1110.25h-2.18v-6.9h-6.12v6.9h-2.18v-15.64h2.18v7.08h6.12v-7.08h2.18v15.64Z" transform="translate(-102.02 -300.38)" fill="#636363"/><path d="M365.54,1106.29h-4.67l-1.13,4h-2.27l4.69-15.64h2.12l4.65,15.64h-2.27Zm-4.18-1.73h3.7l-1.8-6.36h-0.06Z" transform="translate(-102.02 -300.38)" fill="#636363"/><path d="M374.6,1108.59h6.82v1.65h-9.15v-1.34l6.58-12.63h-6.52v-1.66h8.86v1.3Z" transform="translate(-102.02 -300.38)" fill="#636363"/><path d="M393,1106.29h-4.67l-1.13,4h-2.27l4.69-15.64h2.12l4.65,15.64h-2.27Zm-4.18-1.73h3.7l-1.8-6.36h-0.06Z" transform="translate(-102.02 -300.38)" fill="#636363"/><path d="M402.54,1103.51v6.74h-2.18v-15.63H405a4.91,4.91,0,0,1,3.49,1.15,4.29,4.29,0,0,1,1.23,3.3,4,4,0,0,1-.57,2.14,3.8,3.8,0,0,1-1.65,1.42,3,3,0,0,1,1.73,1.35,4.72,4.72,0,0,1,.53,2.34v1.36a6.12,6.12,0,0,0,.14,1.34,1.88,1.88,0,0,0,.49,1v0.25h-2.25a1.86,1.86,0,0,1-.48-1.08,9.72,9.72,0,0,1-.11-1.5v-1.32a3.24,3.24,0,0,0-.61-2.07,2,2,0,0,0-1.68-.76h-2.7Zm0-1.67h2.32a2.56,2.56,0,0,0,2-.71,2.92,2.92,0,0,0,.64-2,3.13,3.13,0,0,0-.63-2.08,2.36,2.36,0,0,0-1.91-.74h-2.43v5.56Z" transform="translate(-102.02 -300.38)" fill="#636363"/><path d="M414.8,1110.25v-15.64h4.44a5.2,5.2,0,0,1,4.14,1.88,7.18,7.18,0,0,1,1.61,4.83v2.22a7.16,7.16,0,0,1-1.61,4.83,5.21,5.21,0,0,1-4.14,1.87H414.8Zm2.18-14v12.31h2.26a3,3,0,0,0,2.58-1.41,6.31,6.31,0,0,0,1-3.64v-2.25a6.25,6.25,0,0,0-1-3.6,3,3,0,0,0-2.58-1.41H417Z" transform="translate(-102.02 -300.38)" fill="#636363"/><path d="M563.29,1108.2a4.83,4.83,0,0,1-1.78,1.58,6.36,6.36,0,0,1-3.14.69,5.35,5.35,0,0,1-3.95-1.49,5.74,5.74,0,0,1-1.5-4.25v-4.64a5.79,5.79,0,0,1,1.45-4.21,5.9,5.9,0,0,1,7.52-.27,4.28,4.28,0,0,1,1.25,3.35l0,0.06h-2.05a3.12,3.12,0,0,0-.71-2.19,2.68,2.68,0,0,0-2.08-.78,2.83,2.83,0,0,0-2.31,1,4.59,4.59,0,0,0-.84,3v4.66a4.63,4.63,0,0,0,.88,3,2.93,2.93,0,0,0,2.38,1,3.84,3.84,0,0,0,1.77-.34,2.36,2.36,0,0,0,1-.84V1104h-2.88v-1.59h5.07v5.8Z" transform="translate(-102.02 -300.38)" fill="#636363"/><path d="M578.9,1104.58a6,6,0,0,1-1.5,4.33,5.35,5.35,0,0,1-4,1.55,5.2,5.2,0,0,1-4-1.55,6,6,0,0,1-1.47-4.33v-4.3a6.09,6.09,0,0,1,1.47-4.34,5.16,5.16,0,0,1,4-1.57,5.35,5.35,0,0,1,4,1.56,6,6,0,0,1,1.51,4.34v4.3Zm-2.17-4.33a4.76,4.76,0,0,0-.88-3.1,3.06,3.06,0,0,0-2.5-1.06,2.9,2.9,0,0,0-2.41,1.06,4.89,4.89,0,0,0-.84,3.1v4.33a4.93,4.93,0,0,0,.85,3.13,2.91,2.91,0,0,0,2.42,1.06,3,3,0,0,0,2.49-1.06,4.84,4.84,0,0,0,.87-3.13v-4.33Z" transform="translate(-102.02 -300.38)" fill="#636363"/><path d="M585.84,1108.59h6.33v1.65h-8.51v-15.64h2.18v14Z" transform="translate(-102.02 -300.38)" fill="#636363"/><path d="M604.11,1103.3h-5.47v7h-2.18v-15.64h8.59v1.68h-6.41v5.35h5.47v1.66Z" transform="translate(-102.02 -300.38)" fill="#636363"/><path d="M616.31,1110.25v-15.64h4.33a5.32,5.32,0,0,1,3.51,1.05,3.88,3.88,0,0,1,1.26,3.16,3.5,3.5,0,0,1-.55,1.94,3.2,3.2,0,0,1-1.53,1.25,3,3,0,0,1,2.1,1.29,4.34,4.34,0,0,1,.74,2.52,4.24,4.24,0,0,1-1.24,3.29,4.89,4.89,0,0,1-3.42,1.13h-5.2Zm2.18-8.86H621a2.22,2.22,0,0,0,1.65-.68,2.57,2.57,0,0,0-2-4.42h-2.15v5.1Zm0,1.57v5.64h3a2.33,2.33,0,0,0,1.83-.71,3,3,0,0,0,.64-2,3.17,3.17,0,0,0-.63-2.06,2.27,2.27,0,0,0-1.77-.82h-3.09Z" transform="translate(-102.02 -300.38)" fill="#636363"/><path d="M637.57,1106.29h-4.67l-1.13,4H629.5l4.69-15.64h2.12l4.65,15.64h-2.27Zm-4.18-1.73h3.7l-1.8-6.36h-0.06Z" transform="translate(-102.02 -300.38)" fill="#636363"/><path d="M654.82,1108.2a4.83,4.83,0,0,1-1.78,1.58,6.36,6.36,0,0,1-3.14.69,5.35,5.35,0,0,1-3.95-1.49,5.74,5.74,0,0,1-1.5-4.25v-4.64a5.79,5.79,0,0,1,1.45-4.21,5.9,5.9,0,0,1,7.52-.27,4.28,4.28,0,0,1,1.25,3.35l0,0.06h-2.05a3.12,3.12,0,0,0-.71-2.19,2.68,2.68,0,0,0-2.08-.78,2.83,2.83,0,0,0-2.31,1,4.59,4.59,0,0,0-.84,3v4.66a4.63,4.63,0,0,0,.88,3,2.93,2.93,0,0,0,2.38,1,3.84,3.84,0,0,0,1.77-.34,2.36,2.36,0,0,0,1-.84V1104h-2.88v-1.59h5.07v5.8Z" transform="translate(-102.02 -300.38)" fill="#636363"/><path d="M778.6,1094.49v10.34a5.49,5.49,0,0,1-1.46,4.06,5.13,5.13,0,0,1-3.79,1.46,5,5,0,0,1-3.72-1.47,5.56,5.56,0,0,1-1.43-4.06v-10.34h2.18v10.34a4.43,4.43,0,0,0,.82,2.84,2.63,2.63,0,0,0,2.15,1,2.74,2.74,0,0,0,2.22-1,4.35,4.35,0,0,0,.84-2.85v-10.34h2.19Z" transform="translate(-102.02 -300.38)" fill="#636363"/><path d="M790.11,1107.25h0.06l3.75-12.76h2.79v15.64h-2.17v-11.27h-0.06l-3.59,11.28H789.4l-3.64-11.45H785.7v11.44h-2.17v-15.64h2.85Z" transform="translate(-102.02 -300.38)" fill="#636363"/><path d="M801.84,1110.13v-15.64h4.33a5.32,5.32,0,0,1,3.51,1.05,3.88,3.88,0,0,1,1.26,3.16,3.5,3.5,0,0,1-.55,1.94,3.2,3.2,0,0,1-1.53,1.25,3,3,0,0,1,2.1,1.29,4.34,4.34,0,0,1,.74,2.52,4.24,4.24,0,0,1-1.24,3.29,4.89,4.89,0,0,1-3.42,1.13h-5.2Zm2.18-8.86h2.48a2.22,2.22,0,0,0,1.65-.68,2.57,2.57,0,0,0-2-4.42H804v5.1Zm0,1.57v5.64h3a2.33,2.33,0,0,0,1.83-.71,3,3,0,0,0,.64-2,3.17,3.17,0,0,0-.63-2.06,2.27,2.27,0,0,0-1.77-.82H804Z" transform="translate(-102.02 -300.38)" fill="#636363"/><path d="M818.35,1103.4v6.74h-2.18V1094.5h4.61a4.91,4.91,0,0,1,3.49,1.15,4.29,4.29,0,0,1,1.23,3.3,4,4,0,0,1-.57,2.14,3.8,3.8,0,0,1-1.65,1.42,3,3,0,0,1,1.73,1.35,4.72,4.72,0,0,1,.53,2.34v1.36a6.13,6.13,0,0,0,.14,1.34,1.88,1.88,0,0,0,.49,1v0.25h-2.25a1.86,1.86,0,0,1-.48-1.08,9.72,9.72,0,0,1-.11-1.5v-1.32a3.24,3.24,0,0,0-.61-2.07,2,2,0,0,0-1.68-.76h-2.7Zm0-1.66h2.32a2.56,2.56,0,0,0,2-.71,2.92,2.92,0,0,0,.64-2,3.13,3.13,0,0,0-.63-2.08,2.36,2.36,0,0,0-1.91-.74h-2.43v5.56Z" transform="translate(-102.02 -300.38)" fill="#636363"/><path d="M838.09,1102.87h-5.31v5.61H839v1.65H830.6v-15.64H839v1.68h-6.2v5h5.31v1.67Z" transform="translate(-102.02 -300.38)" fill="#636363"/><path d="M845.61,1108.48h6.33v1.65h-8.51v-15.64h2.18v14Z" transform="translate(-102.02 -300.38)" fill="#636363"/><path d="M858.41,1108.48h6.33v1.65h-8.51v-15.64h2.18v14Z" transform="translate(-102.02 -300.38)" fill="#636363"/><path d="M876.15,1106.18h-4.67l-1.13,4h-2.27l4.69-15.64h2.12l4.65,15.64h-2.27Zm-4.18-1.73h3.7l-1.8-6.36H873.8Z" transform="translate(-102.02 -300.38)" fill="#636363"/><path d="M994.35,1108.2a4.83,4.83,0,0,1-1.78,1.58,6.36,6.36,0,0,1-3.14.69,5.35,5.35,0,0,1-3.95-1.49,5.74,5.74,0,0,1-1.5-4.25v-4.64a5.79,5.79,0,0,1,1.45-4.21,5.9,5.9,0,0,1,7.52-.27,4.28,4.28,0,0,1,1.25,3.35l0,0.06h-2.05a3.12,3.12,0,0,0-.71-2.19,2.68,2.68,0,0,0-2.08-.78,2.83,2.83,0,0,0-2.31,1,4.59,4.59,0,0,0-.84,3v4.66a4.63,4.63,0,0,0,.88,3,2.93,2.93,0,0,0,2.38,1,3.84,3.84,0,0,0,1.77-.34,2.36,2.36,0,0,0,1-.84V1104h-2.88v-1.59h5.07v5.8Z" transform="translate(-102.02 -300.38)" fill="#636363"/><path d="M1010,1104.58a6,6,0,0,1-1.5,4.33,5.35,5.35,0,0,1-4,1.55,5.2,5.2,0,0,1-4-1.55,6,6,0,0,1-1.47-4.33v-4.3a6.09,6.09,0,0,1,1.47-4.34,5.16,5.16,0,0,1,4-1.57,5.35,5.35,0,0,1,4,1.56,6,6,0,0,1,1.51,4.34v4.3Zm-2.17-4.33a4.76,4.76,0,0,0-.88-3.1,3.06,3.06,0,0,0-2.5-1.06,2.9,2.9,0,0,0-2.41,1.06,4.89,4.89,0,0,0-.84,3.1v4.33a4.93,4.93,0,0,0,.85,3.13,2.91,2.91,0,0,0,2.42,1.06,3,3,0,0,0,2.49-1.06,4.84,4.84,0,0,0,.87-3.13v-4.33Z" transform="translate(-102.02 -300.38)" fill="#636363"/><path d="M1016.9,1108.59h6.33v1.65h-8.51v-15.64h2.18v14Z" transform="translate(-102.02 -300.38)" fill="#636363"/><path d="M1035.17,1103.3h-5.47v7h-2.18v-15.64h8.59v1.68h-6.41v5.35h5.47v1.66Z" transform="translate(-102.02 -300.38)" fill="#636363"/><path d="M1055,1103.3h-5.47v7h-2.18v-15.64H1056v1.68h-6.41v5.35H1055v1.66Z" transform="translate(-102.02 -300.38)" fill="#636363"/><path d="M1062.56,1110.25h-2.18v-15.64h2.18v15.64Z" transform="translate(-102.02 -300.38)" fill="#636363"/><path d="M1075.43,1103h-5.31v5.61h6.25v1.65h-8.43v-15.64h8.38v1.68h-6.2v5h5.31V1103Z" transform="translate(-102.02 -300.38)" fill="#636363"/><path d="M1083,1108.59h6.33v1.65h-8.51v-15.64H1083v14Z" transform="translate(-102.02 -300.38)" fill="#636363"/><path d="M1093.57,1110.25v-15.64H1098a5.2,5.2,0,0,1,4.14,1.88,7.18,7.18,0,0,1,1.61,4.83v2.22a7.16,7.16,0,0,1-1.61,4.83,5.21,5.21,0,0,1-4.14,1.87h-4.44Zm2.18-14v12.31H1098a3,3,0,0,0,2.58-1.41,6.31,6.31,0,0,0,1-3.64v-2.25a6.25,6.25,0,0,0-1-3.6,3,3,0,0,0-2.58-1.41h-2.26Z" transform="translate(-102.02 -300.38)" fill="#636363"/><path d="M1221.68,1110.25h-2.18v-6.9h-6.12v6.9h-2.18v-15.64h2.18v7.08h6.12v-7.08h2.18v15.64Z" transform="translate(-102.02 -300.38)" fill="#636363"/><path d="M1237.4,1104.58a6,6,0,0,1-1.5,4.33,5.35,5.35,0,0,1-4,1.55,5.2,5.2,0,0,1-4-1.55,6,6,0,0,1-1.47-4.33v-4.3a6.09,6.09,0,0,1,1.47-4.34,5.16,5.16,0,0,1,4-1.57,5.35,5.35,0,0,1,4,1.56,6,6,0,0,1,1.51,4.34v4.3Zm-2.17-4.33a4.76,4.76,0,0,0-.88-3.1,3.06,3.06,0,0,0-2.5-1.06,2.9,2.9,0,0,0-2.41,1.06,4.89,4.89,0,0,0-.84,3.1v4.33a4.93,4.93,0,0,0,.85,3.13,2.91,2.91,0,0,0,2.42,1.06,3,3,0,0,0,2.49-1.06,4.84,4.84,0,0,0,.87-3.13v-4.33Z" transform="translate(-102.02 -300.38)" fill="#636363"/><path d="M1244.33,1108.59h6.33v1.65h-8.51v-15.64h2.18v14Z" transform="translate(-102.02 -300.38)" fill="#636363"/><path d="M1262.44,1103h-5.31v5.61h6.25v1.65H1255v-15.64h8.38v1.68h-6.2v5h5.31V1103Z" transform="translate(-102.02 -300.38)" fill="#636363"/><path d="M112.39,1325.13a4.83,4.83,0,0,1-1.78,1.58,6.36,6.36,0,0,1-3.14.69,5.35,5.35,0,0,1-3.95-1.49,5.74,5.74,0,0,1-1.5-4.25V1317a5.79,5.79,0,0,1,1.45-4.21,5.9,5.9,0,0,1,7.52-.27,4.28,4.28,0,0,1,1.25,3.35l0,0.06h-2.05a3.12,3.12,0,0,0-.71-2.19,2.68,2.68,0,0,0-2.08-.78,2.83,2.83,0,0,0-2.31,1,4.59,4.59,0,0,0-.84,3v4.66a4.63,4.63,0,0,0,.88,3,2.93,2.93,0,0,0,2.38,1,3.84,3.84,0,0,0,1.77-.34,2.36,2.36,0,0,0,1-.84v-3.64h-2.88v-1.59h5.07v5.8Z" transform="translate(-102.02 -300.38)" fill="#636363"/><path d="M128,1321.51a6,6,0,0,1-1.5,4.33,5.35,5.35,0,0,1-4,1.55,5.2,5.2,0,0,1-4-1.55,6,6,0,0,1-1.47-4.33v-4.3a6.09,6.09,0,0,1,1.47-4.34,5.16,5.16,0,0,1,4-1.57,5.35,5.35,0,0,1,4,1.56,6,6,0,0,1,1.51,4.34v4.3Zm-2.17-4.33a4.76,4.76,0,0,0-.88-3.1,3.06,3.06,0,0,0-2.5-1.06,2.9,2.9,0,0,0-2.41,1.06,4.89,4.89,0,0,0-.84,3.1v4.33a4.93,4.93,0,0,0,.85,3.13,2.91,2.91,0,0,0,2.42,1.06,3,3,0,0,0,2.49-1.06,4.84,4.84,0,0,0,.87-3.13v-4.33Z" transform="translate(-102.02 -300.38)" fill="#636363"/><path d="M134.94,1325.52h6.33v1.65h-8.51v-15.64h2.18v14Z" transform="translate(-102.02 -300.38)" fill="#636363"/><path d="M153.21,1320.22h-5.47v7h-2.18v-15.64h8.59v1.68h-6.41v5.35h5.47v1.66Z" transform="translate(-102.02 -300.38)" fill="#636363"/><path d="M172.54,1323.24a2.57,2.57,0,0,0-.61-1.77,5.38,5.38,0,0,0-2.16-1.26,8.85,8.85,0,0,1-3.38-1.77,3.73,3.73,0,0,1-1.18-2.89,4,4,0,0,1,1.31-3,4.75,4.75,0,0,1,3.35-1.2,4.66,4.66,0,0,1,3.48,1.33,4.43,4.43,0,0,1,1.27,3.34l0,0.06h-2.09a3.29,3.29,0,0,0-.73-2.22,2.41,2.41,0,0,0-1.92-.85,2.26,2.26,0,0,0-1.8.73,2.67,2.67,0,0,0-.64,1.83,2.27,2.27,0,0,0,.68,1.69,6.51,6.51,0,0,0,2.28,1.26,8,8,0,0,1,3.25,1.83,4,4,0,0,1,1.12,2.92,3.81,3.81,0,0,1-1.32,3,5.11,5.11,0,0,1-3.45,1.13,5.56,5.56,0,0,1-3.59-1.22,4.11,4.11,0,0,1-1.47-3.51l0-.06H167a3.09,3.09,0,0,0,.84,2.37,3,3,0,0,0,2.09.78,2.58,2.58,0,0,0,1.9-.68A2.47,2.47,0,0,0,172.54,1323.24Z" transform="translate(-102.02 -300.38)" fill="#636363"/><path d="M189.85,1327.17h-2.18v-6.9h-6.12v6.9h-2.18v-15.64h2.18v7.08h6.12v-7.08h2.18v15.64Z" transform="translate(-102.02 -300.38)" fill="#636363"/><path d="M197.41,1327.17h-2.18v-15.64h2.18v15.64Z" transform="translate(-102.02 -300.38)" fill="#636363"/><path d="M205,1320.44v6.74h-2.18v-15.63h4.61a4.91,4.91,0,0,1,3.49,1.15,4.29,4.29,0,0,1,1.23,3.3,4,4,0,0,1-.57,2.14,3.8,3.8,0,0,1-1.65,1.42,3,3,0,0,1,1.73,1.35,4.72,4.72,0,0,1,.53,2.34v1.36a6.12,6.12,0,0,0,.14,1.34,1.88,1.88,0,0,0,.49,1v0.25h-2.25a1.86,1.86,0,0,1-.48-1.08,9.72,9.72,0,0,1-.11-1.5v-1.32a3.24,3.24,0,0,0-.61-2.07,2,2,0,0,0-1.68-.76H205Zm0-1.66h2.32a2.56,2.56,0,0,0,2-.71,2.92,2.92,0,0,0,.64-2,3.13,3.13,0,0,0-.63-2.08,2.36,2.36,0,0,0-1.91-.74H205v5.56Z" transform="translate(-102.02 -300.38)" fill="#636363"/><path d="M225.72,1313.21h-4.15v14h-2.19v-14h-4.11v-1.68h10.45v1.68Z" transform="translate(-102.02 -300.38)" fill="#636363"/><path d="M348.26,1324.52h0.06l3.75-12.76h2.79v15.64h-2.17v-11.27h-0.06L349,1327.4h-1.49l-3.64-11.45h-0.06v11.44h-2.17v-15.64h2.85Z" transform="translate(-102.02 -300.38)" fill="#636363"/><path d="M367.1,1323.45h-4.67l-1.13,4H359l4.69-15.64h2.12l4.65,15.64h-2.27Zm-4.18-1.73h3.7l-1.8-6.36h-0.06Z" transform="translate(-102.02 -300.38)" fill="#636363"/><path d="M376.66,1320.66v6.74h-2.18v-15.63h4.61a4.91,4.91,0,0,1,3.49,1.15,4.29,4.29,0,0,1,1.23,3.3,4,4,0,0,1-.57,2.14,3.8,3.8,0,0,1-1.65,1.42,3,3,0,0,1,1.73,1.35,4.72,4.72,0,0,1,.53,2.34v1.36a6.12,6.12,0,0,0,.14,1.34,1.88,1.88,0,0,0,.49,1v0.25h-2.25a1.86,1.86,0,0,1-.48-1.08,9.72,9.72,0,0,1-.11-1.5v-1.32a3.24,3.24,0,0,0-.61-2.07,2,2,0,0,0-1.68-.76h-2.7Zm0-1.66H379a2.56,2.56,0,0,0,2-.71,2.92,2.92,0,0,0,.64-2,3.13,3.13,0,0,0-.63-2.08,2.36,2.36,0,0,0-1.91-.74h-2.43V1319Z" transform="translate(-102.02 -300.38)" fill="#636363"/><path d="M392.17,1320.36h-1.07v7h-2.18v-15.64h2.18v6.85H392l4.36-6.85H399l-5.16,7.35,5.55,8.29h-2.77Z" transform="translate(-102.02 -300.38)" fill="#636363"/><path d="M410.74,1320.14h-5.31v5.61h6.25v1.65h-8.43v-15.64h8.38v1.68h-6.2v5h5.31v1.67Z" transform="translate(-102.02 -300.38)" fill="#636363"/><path d="M418.24,1320.66v6.74h-2.18v-15.63h4.61a4.91,4.91,0,0,1,3.49,1.15,4.29,4.29,0,0,1,1.23,3.3,4,4,0,0,1-.57,2.14,3.8,3.8,0,0,1-1.65,1.42,3,3,0,0,1,1.73,1.35,4.72,4.72,0,0,1,.53,2.34v1.36a6.12,6.12,0,0,0,.14,1.34,1.88,1.88,0,0,0,.49,1v0.25h-2.25a1.86,1.86,0,0,1-.48-1.08,9.72,9.72,0,0,1-.11-1.5v-1.32a3.24,3.24,0,0,0-.61-2.07,2,2,0,0,0-1.68-.76h-2.7Zm0-1.66h2.32a2.56,2.56,0,0,0,2-.71,2.92,2.92,0,0,0,.64-2,3.13,3.13,0,0,0-.63-2.08,2.36,2.36,0,0,0-1.91-.74h-2.43V1319Z" transform="translate(-102.02 -300.38)" fill="#636363"/><path d="M567.83,1325.36a4.83,4.83,0,0,1-1.78,1.58,6.36,6.36,0,0,1-3.14.69,5.35,5.35,0,0,1-3.95-1.49,5.74,5.74,0,0,1-1.5-4.25v-4.64a5.79,5.79,0,0,1,1.45-4.21,5.9,5.9,0,0,1,7.52-.27,4.28,4.28,0,0,1,1.25,3.35l0,0.06h-2.05a3.12,3.12,0,0,0-.71-2.19,2.68,2.68,0,0,0-2.08-.78,2.83,2.83,0,0,0-2.31,1,4.59,4.59,0,0,0-.84,3v4.66a4.63,4.63,0,0,0,.88,3,2.93,2.93,0,0,0,2.38,1,3.84,3.84,0,0,0,1.77-.34,2.36,2.36,0,0,0,1-.84v-3.64h-2.88v-1.59h5.07v5.8Z" transform="translate(-102.02 -300.38)" fill="#636363"/><path d="M575.1,1325.75h6.33v1.65h-8.51v-15.64h2.18v14Z" transform="translate(-102.02 -300.38)" fill="#636363"/><path d="M592.84,1323.45h-4.67l-1.13,4h-2.27l4.69-15.64h2.12l4.65,15.64H594Zm-4.18-1.73h3.7l-1.8-6.36h-0.06Z" transform="translate(-102.02 -300.38)" fill="#636363"/><path d="M607.37,1323.47a2.57,2.57,0,0,0-.61-1.77,5.38,5.38,0,0,0-2.16-1.26,8.85,8.85,0,0,1-3.38-1.77,3.73,3.73,0,0,1-1.18-2.89,4,4,0,0,1,1.31-3,4.75,4.75,0,0,1,3.35-1.2,4.66,4.66,0,0,1,3.48,1.33,4.43,4.43,0,0,1,1.27,3.34l0,0.06h-2.09a3.29,3.29,0,0,0-.73-2.22,2.41,2.41,0,0,0-1.92-.85,2.26,2.26,0,0,0-1.8.73,2.67,2.67,0,0,0-.64,1.83,2.27,2.27,0,0,0,.68,1.69,6.51,6.51,0,0,0,2.28,1.26,8,8,0,0,1,3.25,1.83,4,4,0,0,1,1.12,2.92,3.81,3.81,0,0,1-1.32,3,5.11,5.11,0,0,1-3.45,1.13,5.56,5.56,0,0,1-3.59-1.22,4.11,4.11,0,0,1-1.47-3.51l0-.06h2.11a3.09,3.09,0,0,0,.84,2.37,3,3,0,0,0,2.09.78,2.58,2.58,0,0,0,1.9-.68A2.47,2.47,0,0,0,607.37,1323.47Z" transform="translate(-102.02 -300.38)" fill="#636363"/><path d="M621.32,1323.47a2.57,2.57,0,0,0-.61-1.77,5.38,5.38,0,0,0-2.16-1.26,8.85,8.85,0,0,1-3.38-1.77,3.73,3.73,0,0,1-1.18-2.89,4,4,0,0,1,1.31-3,4.75,4.75,0,0,1,3.35-1.2,4.66,4.66,0,0,1,3.48,1.33,4.43,4.43,0,0,1,1.27,3.34l0,0.06h-2.09a3.29,3.29,0,0,0-.73-2.22,2.41,2.41,0,0,0-1.92-.85,2.26,2.26,0,0,0-1.8.73,2.67,2.67,0,0,0-.64,1.83,2.27,2.27,0,0,0,.68,1.69,6.51,6.51,0,0,0,2.28,1.26,8,8,0,0,1,3.25,1.83,4,4,0,0,1,1.12,2.92,3.81,3.81,0,0,1-1.32,3,5.11,5.11,0,0,1-3.45,1.13,5.56,5.56,0,0,1-3.59-1.22,4.11,4.11,0,0,1-1.47-3.51l0-.06h2.11a3.09,3.09,0,0,0,.84,2.37,3,3,0,0,0,2.09.78,2.58,2.58,0,0,0,1.9-.68A2.47,2.47,0,0,0,621.32,1323.47Z" transform="translate(-102.02 -300.38)" fill="#636363"/><path d="M635.62,1320.14h-5.31v5.61h6.25v1.65h-8.43v-15.64h8.38v1.68h-6.2v5h5.31v1.67Z" transform="translate(-102.02 -300.38)" fill="#636363"/><path d="M648.09,1323.47a2.57,2.57,0,0,0-.61-1.77,5.38,5.38,0,0,0-2.16-1.26,8.85,8.85,0,0,1-3.38-1.77,3.73,3.73,0,0,1-1.18-2.89,4,4,0,0,1,1.31-3,4.75,4.75,0,0,1,3.35-1.2,4.66,4.66,0,0,1,3.48,1.33,4.43,4.43,0,0,1,1.27,3.34l0,0.06H648a3.29,3.29,0,0,0-.73-2.22,2.41,2.41,0,0,0-1.92-.85,2.26,2.26,0,0,0-1.8.73,2.67,2.67,0,0,0-.64,1.83,2.27,2.27,0,0,0,.68,1.69,6.51,6.51,0,0,0,2.28,1.26,8,8,0,0,1,3.25,1.83,4,4,0,0,1,1.12,2.92,3.81,3.81,0,0,1-1.32,3,5.11,5.11,0,0,1-3.45,1.13,5.56,5.56,0,0,1-3.59-1.22,4.11,4.11,0,0,1-1.47-3.51l0-.06h2.11a3.09,3.09,0,0,0,.84,2.37,3,3,0,0,0,2.09.78,2.58,2.58,0,0,0,1.9-.68A2.47,2.47,0,0,0,648.09,1323.47Z" transform="translate(-102.02 -300.38)" fill="#636363"/><path d="M787.85,1313.44H783.7v14h-2.19v-14h-4.11v-1.68h10.45v1.68Z" transform="translate(-102.02 -300.38)" fill="#636363"/><path d="M794.08,1320.66v6.74H791.9v-15.63h4.61a4.91,4.91,0,0,1,3.49,1.15,4.29,4.29,0,0,1,1.23,3.3,4,4,0,0,1-.57,2.14,3.8,3.8,0,0,1-1.65,1.42,3,3,0,0,1,1.73,1.35,4.72,4.72,0,0,1,.53,2.34v1.36a6.12,6.12,0,0,0,.14,1.34,1.88,1.88,0,0,0,.49,1v0.25h-2.25a1.86,1.86,0,0,1-.48-1.08,9.72,9.72,0,0,1-.11-1.5v-1.32a3.24,3.24,0,0,0-.61-2.07,2,2,0,0,0-1.68-.76h-2.7Zm0-1.66h2.32a2.56,2.56,0,0,0,2-.71,2.92,2.92,0,0,0,.64-2,3.13,3.13,0,0,0-.63-2.08,2.36,2.36,0,0,0-1.91-.74h-2.43V1319Z" transform="translate(-102.02 -300.38)" fill="#636363"/><path d="M816.87,1321.74a6,6,0,0,1-1.5,4.33,5.35,5.35,0,0,1-4,1.55,5.2,5.2,0,0,1-4-1.55,6,6,0,0,1-1.47-4.33v-4.3a6.09,6.09,0,0,1,1.47-4.34,5.16,5.16,0,0,1,4-1.57,5.35,5.35,0,0,1,4,1.56,6,6,0,0,1,1.51,4.34v4.3Zm-2.17-4.33a4.76,4.76,0,0,0-.88-3.1,3.06,3.06,0,0,0-2.5-1.06,2.9,2.9,0,0,0-2.41,1.06,4.89,4.89,0,0,0-.84,3.1v4.33a4.93,4.93,0,0,0,.85,3.13,2.91,2.91,0,0,0,2.42,1.06,3,3,0,0,0,2.49-1.06,4.84,4.84,0,0,0,.87-3.13v-4.33Z" transform="translate(-102.02 -300.38)" fill="#636363"/><path d="M823.8,1325.75h6.33v1.65h-8.51v-15.64h2.18v14Z" transform="translate(-102.02 -300.38)" fill="#636363"/><path d="M836.61,1325.75h6.33v1.65h-8.51v-15.64h2.18v14Z" transform="translate(-102.02 -300.38)" fill="#636363"/><path d="M854.72,1320.14h-5.31v5.61h6.25v1.65h-8.43v-15.64h8.38v1.68h-6.2v5h5.31v1.67Z" transform="translate(-102.02 -300.38)" fill="#636363"/><path d="M864.56,1319.39h0.06l3.27-7.63h2.45l-4.69,10v5.63h-2.18v-5.79l-4.61-9.85h2.43Z" transform="translate(-102.02 -300.38)" fill="#636363"/><path d="M1022.16,1327.4H1020v-15.64h2.18v15.64Z" transform="translate(-102.02 -300.38)" fill="#636363"/><path d="M1029.72,1320.66v6.74h-2.18v-15.63h4.61a4.91,4.91,0,0,1,3.49,1.15,4.29,4.29,0,0,1,1.23,3.3,4,4,0,0,1-.57,2.14,3.8,3.8,0,0,1-1.65,1.42,3,3,0,0,1,1.73,1.35,4.72,4.72,0,0,1,.53,2.34v1.36a6.13,6.13,0,0,0,.14,1.34,1.88,1.88,0,0,0,.49,1v0.25h-2.25a1.86,1.86,0,0,1-.48-1.08,9.72,9.72,0,0,1-.11-1.5v-1.32a3.24,3.24,0,0,0-.61-2.07,2,2,0,0,0-1.68-.76h-2.7Zm0-1.66H1032a2.56,2.56,0,0,0,2-.71,2.92,2.92,0,0,0,.64-2,3.13,3.13,0,0,0-.63-2.08,2.36,2.36,0,0,0-1.91-.74h-2.43V1319Z" transform="translate(-102.02 -300.38)" fill="#636363"/><path d="M1052.5,1321.74a6,6,0,0,1-1.5,4.33,5.35,5.35,0,0,1-4,1.55,5.2,5.2,0,0,1-4-1.55,6,6,0,0,1-1.47-4.33v-4.3a6.09,6.09,0,0,1,1.47-4.34,5.16,5.16,0,0,1,4-1.57,5.35,5.35,0,0,1,4,1.56,6,6,0,0,1,1.51,4.34v4.3Zm-2.17-4.33a4.76,4.76,0,0,0-.88-3.1,3.06,3.06,0,0,0-2.5-1.06,2.9,2.9,0,0,0-2.41,1.06,4.89,4.89,0,0,0-.84,3.1v4.33a4.93,4.93,0,0,0,.85,3.13,2.91,2.91,0,0,0,2.42,1.06,3,3,0,0,0,2.49-1.06,4.84,4.84,0,0,0,.87-3.13v-4.33Z" transform="translate(-102.02 -300.38)" fill="#636363"/><path d="M1067.76,1327.4h-2.19l-6.06-11.54-0.06,0v11.52h-2.18v-15.64h2.18l6.06,11.5h0.06v-11.49h2.19v15.64Z" transform="translate(-102.02 -300.38)" fill="#636363"/><path d="M1171.67,1324.52h0.06l3.75-12.76h2.79v15.64h-2.17v-11.27H1176l-3.59,11.28H1171l-3.64-11.45h-0.06v11.44h-2.17v-15.64h2.85Z" transform="translate(-102.02 -300.38)" fill="#636363"/><path d="M1193.92,1321.74a6,6,0,0,1-1.5,4.33,5.35,5.35,0,0,1-4,1.55,5.2,5.2,0,0,1-4-1.55,6,6,0,0,1-1.47-4.33v-4.3a6.09,6.09,0,0,1,1.47-4.34,5.16,5.16,0,0,1,4-1.57,5.35,5.35,0,0,1,4,1.56,6,6,0,0,1,1.51,4.34v4.3Zm-2.17-4.33a4.76,4.76,0,0,0-.88-3.1,3.06,3.06,0,0,0-2.5-1.06,2.9,2.9,0,0,0-2.41,1.06,4.89,4.89,0,0,0-.84,3.1v4.33a4.93,4.93,0,0,0,.85,3.13,2.91,2.91,0,0,0,2.42,1.06,3,3,0,0,0,2.49-1.06,4.84,4.84,0,0,0,.87-3.13v-4.33Z" transform="translate(-102.02 -300.38)" fill="#636363"/><path d="M1198.68,1327.4v-15.64H1203a5.32,5.32,0,0,1,3.51,1.05,3.88,3.88,0,0,1,1.26,3.16,3.5,3.5,0,0,1-.55,1.94,3.2,3.2,0,0,1-1.53,1.25,3,3,0,0,1,2.1,1.29,4.34,4.34,0,0,1,.74,2.52,4.24,4.24,0,0,1-1.24,3.29,4.89,4.89,0,0,1-3.42,1.13h-5.2Zm2.18-8.86h2.48a2.22,2.22,0,0,0,1.65-.68,2.57,2.57,0,0,0-2-4.42h-2.15v5.1Zm0,1.57v5.64h3a2.33,2.33,0,0,0,1.83-.71,3,3,0,0,0,.64-2,3.17,3.17,0,0,0-.63-2.06,2.27,2.27,0,0,0-1.77-.82h-3.09Z" transform="translate(-102.02 -300.38)" fill="#636363"/><path d="M1215.39,1327.4h-2.18v-15.64h2.18v15.64Z" transform="translate(-102.02 -300.38)" fill="#636363"/><path d="M1223,1325.75h6.33v1.65h-8.51v-15.64H1223v14Z" transform="translate(-102.02 -300.38)" fill="#636363"/><path d="M1241.07,1320.14h-5.31v5.61H1242v1.65h-8.43v-15.64H1242v1.68h-6.2v5h5.31v1.67Z" transform="translate(-102.02 -300.38)" fill="#636363"/><path d="M1263.42,1325.36a4.83,4.83,0,0,1-1.78,1.58,6.36,6.36,0,0,1-3.14.69,5.35,5.35,0,0,1-3.95-1.49,5.74,5.74,0,0,1-1.5-4.25v-4.64a5.79,5.79,0,0,1,1.45-4.21,5.9,5.9,0,0,1,7.52-.27,4.28,4.28,0,0,1,1.25,3.35l0,0.06h-2.05a3.12,3.12,0,0,0-.71-2.19,2.68,2.68,0,0,0-2.08-.78,2.83,2.83,0,0,0-2.31,1,4.59,4.59,0,0,0-.84,3v4.66a4.63,4.63,0,0,0,.88,3,2.93,2.93,0,0,0,2.38,1,3.84,3.84,0,0,0,1.77-.34,2.36,2.36,0,0,0,1-.84v-3.64h-2.88v-1.59h5.07v5.8Z" transform="translate(-102.02 -300.38)" fill="#636363"/><path d="M1275.43,1323.45h-4.67l-1.13,4h-2.27l4.69-15.64h2.12l4.65,15.64h-2.27Zm-4.18-1.73h3.7l-1.8-6.36h-0.06Z" transform="translate(-102.02 -300.38)" fill="#636363"/><path d="M1289.34,1324.52h0.06l3.75-12.76h2.79v15.64h-2.17v-11.27h-0.06l-3.59,11.28h-1.49l-3.64-11.45h-0.06v11.44h-2.17v-15.64h2.85Z" transform="translate(-102.02 -300.38)" fill="#636363"/><path d="M1308.56,1320.14h-5.31v5.61h6.25v1.65h-8.43v-15.64h8.38v1.68h-6.2v5h5.31v1.67Z" transform="translate(-102.02 -300.38)" fill="#636363"/></svg>