<svg id="Icon_Set" data-name="Icon Set" xmlns="http://www.w3.org/2000/svg" width="67.86" height="109.79" viewBox="0 0 67.86 109.79"><title>mobile-game</title><line x1="59.85" y1="90.5" x2="8.01" y2="90.5" fill="none" stroke="#344154" stroke-miterlimit="10" stroke-width="3"/><line x1="8.01" y1="12.73" x2="59.85" y2="12.73" fill="none" stroke="#344154" stroke-miterlimit="10" stroke-width="3"/><rect x="1.5" y="1.5" width="64.86" height="106.79" rx="7.47" ry="7.47" fill="none" stroke="#344154" stroke-miterlimit="10" stroke-width="3"/><circle cx="33.93" cy="99.49" r="4.1" fill="none" stroke="#344154" stroke-miterlimit="10" stroke-width="3"/><path d="M1237.62,1234.21a10.92,10.92,0,0,1-4.22-.79,9.34,9.34,0,0,1-3.26-2.23,10.1,10.1,0,0,1-2.1-3.47,14.06,14.06,0,0,1,0-9.06,9.94,9.94,0,0,1,2.1-3.45,9.24,9.24,0,0,1,3.24-2.2,10.89,10.89,0,0,1,4.16-.77,11.29,11.29,0,0,1,3.56.55,9.29,9.29,0,0,1,2.91,1.55,7.89,7.89,0,0,1,3,5.59h-4.08a4.58,4.58,0,0,0-.48-1.75,3.93,3.93,0,0,0-1.09-1.3,4.91,4.91,0,0,0-1.63-.81,7.42,7.42,0,0,0-2.11-.28,6.35,6.35,0,0,0-2.53.49,5.37,5.37,0,0,0-2,1.44,6.73,6.73,0,0,0-1.28,2.33,10.08,10.08,0,0,0-.46,3.16,10,10,0,0,0,.46,3.14,6.88,6.88,0,0,0,1.28,2.34,5.51,5.51,0,0,0,2,1.47,6.18,6.18,0,0,0,2.54.51,8.91,8.91,0,0,0,3.4-.58,5.79,5.79,0,0,0,2.38-1.82V1226h-5.28v-3.66h9.2v11.49h-3.06l-0.51-1.53a7.5,7.5,0,0,1-2.63,1.4A11.86,11.86,0,0,1,1237.62,1234.21Z" transform="translate(-1203.36 -1170)" fill="#344154"/><line x1="27.5" y1="7.18" x2="40.36" y2="7.18" fill="none" stroke="#344154" stroke-miterlimit="10" stroke-width="3"/></svg>