<svg id="Icon_Set" data-name="Icon Set" xmlns="http://www.w3.org/2000/svg" width="123.59" height="118.42" viewBox="0 0 123.59 118.42"><title>putter</title><path d="M1088.22,563.36a4.5,4.5,0,0,0-6.29,6.29" transform="translate(-982.07 -518.81)" fill="none" stroke="#344154" stroke-miterlimit="10" stroke-width="3"/><path d="M1076.37,575.21a4.5,4.5,0,0,0-6.29,6.29" transform="translate(-982.07 -518.81)" fill="none" stroke="#344154" stroke-miterlimit="10" stroke-width="3"/><path d="M1064.51,587.07a4.5,4.5,0,0,0-6.29,6.29" transform="translate(-982.07 -518.81)" fill="none" stroke="#344154" stroke-miterlimit="10" stroke-width="3"/><path d="M1065.41,564.26a4.5,4.5,0,0,0-6.29,6.29" transform="translate(-982.07 -518.81)" fill="none" stroke="#344154" stroke-miterlimit="10" stroke-width="3"/><path d="M1062.87,576.63a4.5,4.5,0,0,0-6.29,6.29" transform="translate(-982.07 -518.81)" fill="none" stroke="#344154" stroke-miterlimit="10" stroke-width="3"/><circle cx="93.82" cy="62.9" r="28.27" fill="none" stroke="#344154" stroke-miterlimit="10" stroke-width="3"/><path d="M1070.81,568.69a4.5,4.5,0,0,1,6.29-6.29" transform="translate(-982.07 -518.81)" fill="none" stroke="#344154" stroke-miterlimit="10" stroke-width="3"/><polyline points="28.44 39.92 28.44 96.47 20.09 96.47 20.09 39.92" fill="none" stroke="#344154" stroke-miterlimit="10" stroke-width="3"/><path d="M1010.52,615.28h-8.35l-0.25.4a18.79,18.79,0,0,0-2.77,9.82h0a18.79,18.79,0,0,0,2.77,9.82l0.25,0.4h8.35l0.25-.4a18.79,18.79,0,0,0,2.77-9.82h0a18.79,18.79,0,0,0-2.77-9.82Z" transform="translate(-982.07 -518.81)" fill="none" stroke="#344154" stroke-miterlimit="10" stroke-width="3"/><path d="M1006.34,520.31a80.17,80.17,0,0,0-22.77,3.14v4.61a6,6,0,0,0,6,6h1.21a8.68,8.68,0,0,1,8.68,8.68v11.7s0.5,5.41,6.92,5.41,6.92-5.41,6.92-5.41V542.7a8.68,8.68,0,0,1,8.68-8.68h1.21a6,6,0,0,0,6-6v-4.61A80.17,80.17,0,0,0,1006.34,520.31Z" transform="translate(-982.07 -518.81)" fill="none" stroke="#344154" stroke-miterlimit="10" stroke-width="3"/></svg>