<svg id="Icon_Set" data-name="Icon Set" xmlns="http://www.w3.org/2000/svg" width="84.9" height="108.22" viewBox="0 0 84.9 108.22"><title>putter-and-ball</title><path d="M1211.56,630.62l29.21-1.19a10.71,10.71,0,0,0,9.76-7.43l1.28-4L1259.2,595a2.46,2.46,0,0,0-1.59-3.09l-4.36-1.4a2.46,2.46,0,0,0-3.09,1.59l-6.3,19.64a3.58,3.58,0,0,1-4.51,2.32L1216,606.54a7.92,7.92,0,0,0-10,5.12l-2.65,8.26A8.2,8.2,0,0,0,1211.56,630.62Z" transform="translate(-1194.84 -523.91)" fill="none" stroke="#344154" stroke-miterlimit="10" stroke-width="3"/><path d="M1276.46,525.53h0a2.56,2.56,0,0,0-3.22,1.66L1253,590.39l4.87,1.56,20.26-63.19A2.56,2.56,0,0,0,1276.46,525.53Z" transform="translate(-1194.84 -523.91)" fill="none" stroke="#344154" stroke-miterlimit="10" stroke-width="3"/><circle cx="15.44" cy="54.11" r="13.94" fill="none" stroke="#344154" stroke-miterlimit="10" stroke-width="3"/><line x1="7.42" y1="65.51" x2="14.23" y2="83.68" fill="none" stroke="#344154" stroke-miterlimit="10" stroke-width="3"/><line x1="25.51" y1="63.75" x2="21.98" y2="78.74" fill="none" stroke="#344154" stroke-miterlimit="10" stroke-width="3"/></svg>