<svg id="Icon_Set" data-name="Icon Set" xmlns="http://www.w3.org/2000/svg" width="101.99" height="109.16" viewBox="0 0 101.99 109.16"><title>icons</title><path d="M361.39,811.84c-16.58,0-27,10.56-27,18.42,0,11.77,24.39,21.32,54.48,21.32,17.57,0,33.19-3.25,43.15-8.3a2.49,2.49,0,0,0-.74-4.67A92.08,92.08,0,0,1,416.35,835c-4-1.36-8.5-3.05-11.3-6.36a6.65,6.65,0,0,1-1.55-3c-0.44-2.28.89-4.59,2.67-6.09a33.49,33.49,0,0,1,6-3.48,4.75,4.75,0,0,0,1.66-1.26,2.66,2.66,0,0,0-.73-3.7,5.14,5.14,0,0,0-2.49-.53c-5.68-.23-28.43-0.12-34.13,0-3.14,0-6.27.09-9.41,0.09" transform="translate(-332.87 -743.92)" fill="none" stroke="#344154" stroke-miterlimit="10" stroke-width="3"/><line x1="34.23" y1="86.34" x2="34.23" y2="1.5" fill="none" stroke="#344154" stroke-miterlimit="10" stroke-width="3"/><rect x="34.23" y="1.5" width="49.74" height="32.73" fill="none" stroke="#344154" stroke-miterlimit="10" stroke-width="3"/><line x1="34.23" y1="17.87" x2="83.97" y2="17.87" fill="none" stroke="#344154" stroke-miterlimit="10" stroke-width="3"/></svg>