<svg id="Icon_Set" data-name="Icon Set" xmlns="http://www.w3.org/2000/svg" width="127.49" height="97.01" viewBox="0 0 127.49 97.01"><title>umbrella</title><path d="M823.87,1035.52c9.59,0,28.08,4.32,28.08,4.32-4.46-50.36-28.08-64-28.08-64s-23.63,13.64-28.08,64C795.78,1039.84,814.28,1035.52,823.87,1035.52Z" transform="translate(-760.13 -969.2)" fill="none" stroke="#344154" stroke-linejoin="round" stroke-width="3"/><path d="M823.87,975.85s-45.63-2.93-62.24,43.75c0,0,26.06,4.32,34.16,20.25C800.24,989.48,823.87,975.85,823.87,975.85Z" transform="translate(-760.13 -969.2)" fill="none" stroke="#344154" stroke-linejoin="round" stroke-width="3"/><path d="M823.87,975.85s45.63-2.93,62.24,43.75c0,0-26.06,4.32-34.16,20.25C847.5,989.48,823.87,975.85,823.87,975.85Z" transform="translate(-760.13 -969.2)" fill="none" stroke="#344154" stroke-linejoin="round" stroke-width="3"/><line x1="63.74" y1="66.32" x2="63.74" y2="81.02" fill="none" stroke="#344154" stroke-miterlimit="10" stroke-width="3"/><rect x="61.69" y="81.02" width="4.11" height="14.48" rx="1.79" ry="1.79" fill="none" stroke="#344154" stroke-miterlimit="10" stroke-width="3"/><line x1="63.74" y1="6.64" x2="63.74" y2="1.5" fill="none" stroke="#344154" stroke-linecap="round" stroke-linejoin="round" stroke-width="3"/></svg>