<svg xmlns="http://www.w3.org/2000/svg" width="24" height="24" viewBox="0 0 24 24">
  <defs>
    <style>
      .a {
        fill: #db4e3f;
      }

      .b {
        fill: #fff;
        fill-rule: evenodd;
      }
    </style>
  </defs>
  <title>icon-google</title>
  <g>
    <rect class="a" width="24" height="24"/>
    <g>
      <path class="b" d="M9.27274,11.31819v1.63636h2.70682a2.57742,2.57742,0,0,1-2.70682,2.05908,3.01413,3.01413,0,0,1,0-6.02726,2.68588,2.68588,0,0,1,1.90228.73637L12.47047,8.475A4.57508,4.57508,0,0,0,9.27274,7.22729a4.77271,4.77271,0,1,0,0,9.54542,4.40237,4.40237,0,0,0,4.58181-4.66363,4.38971,4.38971,0,0,0-.075-.79089Zm0,0"/>
      <polyline class="b" points="19.5 11.318 18.136 11.318 18.136 9.955 16.773 9.955 16.773 11.318 15.409 11.318 15.409 12.682 16.773 12.682 16.773 14.045 18.136 14.045 18.136 12.682 19.5 12.682"/>
    </g>
  </g>
</svg>
