<svg xmlns="http://www.w3.org/2000/svg" width="24" height="24" viewBox="0 0 24 24">
  <defs>
    <style>
      .a {
        fill: #2ca9e1;
      }

      .b {
        fill: #fff;
      }
    </style>
  </defs>
  <title>icon-twitter</title>
  <g>
    <rect class="a" width="24" height="24"/>
    <path class="b" d="M16.4033,9.7418c.00433.0974.00572.1948.00572.29359a6.45946,6.45946,0,0,1-9.94536,5.44327,4.503,4.503,0,0,0,.5414.03153A4.55474,4.55474,0,0,0,9.827,14.53755a2.27318,2.27318,0,0,1-2.12285-1.57712,2.22662,2.22662,0,0,0,.42825.04159,2.30545,2.30545,0,0,0,.59882-.08024,2.27421,2.27421,0,0,1-1.82355-2.22743v-.02867a2.27629,2.27629,0,0,0,1.02993.2836A2.274,2.274,0,0,1,7.23425,7.9154a6.453,6.453,0,0,0,4.68266,2.375A2.27653,2.27653,0,0,1,14.13,7.5a2.26792,2.26792,0,0,1,1.65728.71764,4.54049,4.54049,0,0,0,1.44393-.55145,2.2795,2.2795,0,0,1-.99984,1.25625,4.48,4.48,0,0,0,1.30494-.35673A4.63016,4.63016,0,0,1,16.4033,9.7418Z"/>
  </g>
</svg>
